<svg xmlns="http://www.w3.org/2000/svg"  viewBox="0 0 100 100" width="100px" height="100px"><path fill="#ee3e54" d="M13,27c-1.105,0-2,0.895-2,2s0.895,2,2,2s2-0.895,2-2S14.105,27,13,27z"/><path fill="#f1bc19" d="M77,12c-0.552,0-1,0.448-1,1s0.448,1,1,1s1-0.448,1-1S77.552,12,77,12z"/><path fill="#fce0a2" d="M50,13c-20.435,0-37,16.565-37,37s16.565,37,37,37s37-16.565,37-37S70.435,13,50,13z"/><path fill="#f1bc19" d="M83,11c-2.209,0-4,1.791-4,4s1.791,4,4,4s4-1.791,4-4S85.209,11,83,11z"/><path fill="#ee3e54" d="M87,22c-1.105,0-2,0.895-2,2s0.895,2,2,2s2-0.895,2-2S88.105,22,87,22z"/><path fill="#fbcd59" d="M81,74c-1.105,0-2,0.895-2,2s0.895,2,2,2s2-0.895,2-2S82.105,74,81,74z M15,59c-2.209,0-4,1.791-4,4 c0,2.209,1.791,4,4,4s4-1.791,4-4C19,60.791,17.209,59,15,59z"/><path fill="#ee3e54" d="M25,85c-1.105,0-2,0.895-2,2s0.895,2,2,2s2-0.895,2-2S26.105,85,25,85z"/><path fill="#fff" d="M18.5,51c-1.381,0-2.5,1.119-2.5,2.5s1.119,2.5,2.5,2.5s2.5-1.119,2.5-2.5S19.881,51,18.5,51z"/><path fill="#f1bc19" d="M21,66c-0.552,0-1,0.448-1,1s0.448,1,1,1s1-0.448,1-1S21.552,66,21,66z"/><path fill="#fff" d="M80,33c-0.552,0-1,0.448-1,1s0.448,1,1,1s1-0.448,1-1S80.552,33,80,33z"/><g><path fill="#4985c1" d="M35,72.3c-4,0-7.3-3.3-7.3-7.3V35c0-4,3.3-7.3,7.3-7.3h30c4,0,7.3,3.3,7.3,7.3v30 c0,4-3.3,7.3-7.3,7.3H35z"/><path fill="#472b29" d="M65,28.4c3.6,0,6.6,3,6.6,6.6v30c0,3.6-3,6.6-6.6,6.6H35c-3.6,0-6.6-3-6.6-6.6V35 c0-3.6,3-6.6,6.6-6.6H65 M65,27H35c-4.4,0-8,3.6-8,8v30c0,4.4,3.6,8,8,8h30c4.4,0,8-3.6,8-8V35C73,30.6,69.4,27,65,27L65,27z"/><path fill="#fdfcee" d="M68.812,48.213v1.8v14.3c0,2.5-2,4.5-4.5,4.5h-28c-2.5,0-4.5-2-4.5-4.5v-28c0-2.5,2-4.5,4.5-4.5 h25.4h2.6c2.5,0,4.5,2,4.5,4.5v3.4v2v1v1.1v2.9V48.213"/><path fill="#472b29" d="M68.5,47.4c-0.3,0-0.5-0.2-0.5-0.5V43c0-0.3,0.2-0.5,0.5-0.5S69,42.7,69,43v3.9 C69,47.2,68.8,47.4,68.5,47.4z M68.5,40.5c-0.3,0-0.5-0.2-0.5-0.5v-2c0-0.3,0.2-0.5,0.5-0.5S69,37.7,69,38v2 C69,40.3,68.8,40.5,68.5,40.5z"/><path fill="#472b29" d="M64,69H36c-2.8,0-5-2.2-5-5V36c0-2.8,2.2-5,5-5h25.4c0.3,0,0.5,0.2,0.5,0.5S61.7,32,61.4,32H36 c-2.2,0-4,1.8-4,4v28c0,2.2,1.8,4,4,4h28c2.2,0,4-1.8,4-4V49.6c0-0.3,0.2-0.5,0.5-0.5s0.5,0.2,0.5,0.5V64C69,66.8,66.8,69,64,69z"/><path fill="#4985c1" d="M51.504,56.984c-0.338-0.198-0.652-0.539-0.774-0.873c-0.127-0.333-0.107-1.009-0.107-2.178v-5.495 h4.813v-4.126h-4.813V39.5h-3.008c-0.137,1.126-0.38,2.054-0.741,2.78c-0.36,0.731-0.835,1.354-1.428,1.871 c-0.59,0.517-1.555,0.918-2.385,1.197v3.09h2.75v7.477c0,0.976,0.101,1.721,0.3,2.237c0.202,0.511,0.56,0.996,1.083,1.453 c0.522,0.452,1.151,0.804,1.885,1.052c0.735,0.243,1.3,0.367,2.262,0.367c0.841,0,1.628-0.089,2.354-0.258 c0.725-0.174,1.537-0.477,2.431-0.902v-3.48c-1.018,0.667-2.047,0.995-3.074,0.995C52.471,57.388,51.955,57.251,51.504,56.984z"/><path fill="#472b29" d="M51.34,61.525c-1.038,0-1.651-0.138-2.419-0.392c-0.793-0.268-1.484-0.654-2.055-1.148 c-0.578-0.506-0.988-1.06-1.22-1.647c-0.226-0.587-0.335-1.378-0.335-2.421v-6.978h-2.25c-0.276,0-0.5-0.224-0.5-0.5v-3.09 c0-0.215,0.137-0.405,0.34-0.474c1.021-0.344,1.786-0.724,2.215-1.1c0.539-0.469,0.979-1.046,1.31-1.716 c0.329-0.663,0.562-1.543,0.692-2.619c0.031-0.251,0.244-0.44,0.497-0.44h3.009c0.276,0,0.5,0.224,0.5,0.5v4.313h4.313 c0.276,0,0.5,0.224,0.5,0.5v4.125c0,0.276-0.224,0.5-0.5,0.5h-4.313l0,5.415c-0.002,0.768-0.003,1.375,0.075,1.579 c0.081,0.223,0.31,0.475,0.559,0.62c0,0,0.001,0.001,0.002,0.001c0.377,0.222,0.812,0.342,1.285,0.325 c0.939,0,1.881-0.307,2.807-0.914c0.154-0.1,0.351-0.108,0.512-0.021c0.162,0.087,0.262,0.256,0.262,0.44v3.48 c0,0.193-0.111,0.369-0.285,0.451c-0.926,0.442-1.777,0.757-2.529,0.938C53.034,61.434,52.204,61.525,51.34,61.525z M43.561,47.939h2.25c0.276,0,0.5,0.224,0.5,0.5v7.478c0,0.905,0.09,1.597,0.267,2.057c0.171,0.434,0.49,0.858,0.945,1.257 c0.47,0.407,1.049,0.729,1.716,0.954c0.681,0.226,1.194,0.34,2.102,0.34c0.787,0,1.541-0.083,2.241-0.245 c0.605-0.146,1.292-0.392,2.044-0.734v-2.298c-0.865,0.429-1.748,0.627-2.629,0.633c-0.634,0-1.223-0.156-1.744-0.464 c-0.452-0.264-0.832-0.698-0.991-1.132c-0.142-0.372-0.141-0.926-0.138-1.932l0-5.912c0-0.276,0.224-0.5,0.5-0.5h4.313v-3.125 h-4.313c-0.276,0-0.5-0.224-0.5-0.5V40h-2.072c-0.153,1.003-0.393,1.825-0.729,2.503c-0.389,0.788-0.91,1.47-1.547,2.025 c-0.48,0.421-1.224,0.816-2.213,1.176V47.939z"/></g></svg>