<svg xmlns="http://www.w3.org/2000/svg"  viewBox="0 0 128 128" width="128px" height="128px"><path fill="#e6e6ef" d="M33.9 104H113.9V124H33.9zM113.9 94L93.9 94 33.9 94 33.9 14 103.9 14 113.9 39z"/><path fill="#444b54" d="M113.9,97h-20c-1.7,0-3-1.3-3-3s1.3-3,3-3h17V39.6l-9-22.6h-8c-1.7,0-3-1.3-3-3s1.3-3,3-3h10c1.2,0,2.3,0.7,2.8,1.9l10,25c0.1,0.4,0.2,0.7,0.2,1.1v55C116.9,95.7,115.6,97,113.9,97z"/><path fill="#fff" d="M83.9,94h-75c-2.8,0-5-2.2-5-5V19c0-2.8,2.2-5,5-5h75V94z"/><path fill="#444b54" d="M78.9,97h-70c-4.4,0-8-3.6-8-8V19c0-4.4,3.6-8,8-8h70c4.4,0,8,3.6,8,8v70C86.9,93.4,83.3,97,78.9,97z M8.9,17c-1.1,0-2,0.9-2,2v70c0,1.1,0.9,2,2,2h70c1.1,0,2-0.9,2-2V19c0-1.1-0.9-2-2-2H8.9z"/><path fill="#e6e6ef" d="M11.9 22H75.9V84H11.9z"/><path fill="#6e6e8e" d="M75.9,78h-53c-2.8,0-5-2.2-5-5V33c0-2.8,2.2-5,5-5h53V78z"/><path fill="#fff" d="M3.9 104H83.9V124H3.9z"/><path fill="#444b54" d="M3.9 127c-1.7 0-3-1.3-3-3v-20c0-1.7 1.3-3 3-3s3 1.3 3 3v20C6.9 125.7 5.6 127 3.9 127zM113.9 127c-1.7 0-3-1.3-3-3v-20c0-1.7 1.3-3 3-3s3 1.3 3 3v20C116.9 125.7 115.6 127 113.9 127z"/><path fill="#6e6e8e" d="M13.9 110H57V116H13.9zM63 110H69V116H63z"/><path fill="#39d3d3" d="M49.9 44H69.9V50H49.9zM43.9 50L37.9 50 37.9 44 43.9 44M37.9 34H57.9V40H37.9zM63.9 40L69.9 40 69.9 34 63.9 34"/><g><path fill="#444b54" d="M123.9,127H3.9c-1.7,0-3-1.3-3-3s1.3-3,3-3h120c1.7,0,3,1.3,3,3S125.6,127,123.9,127z"/></g></svg>