<svg xmlns="http://www.w3.org/2000/svg"  viewBox="0 0 100 100" width="100px" height="100px"><circle cx="14" cy="30" r="2" fill="#78a0cf"/><circle cx="78" cy="14" r="1" fill="#f1bc19"/><circle cx="51" cy="51" r="37" fill="#cee1f4"/><circle cx="84" cy="16" r="4" fill="#f1bc19"/><circle cx="88" cy="25" r="2" fill="#78a0cf"/><circle cx="82" cy="77" r="2" fill="#fbcd59"/><circle cx="16" cy="64" r="4" fill="#fbcd59"/><circle cx="26" cy="88" r="2" fill="#78a0cf"/><circle cx="20.5" cy="53.5" r="2.5" fill="#fff"/><circle cx="22" cy="68" r="1" fill="#f1bc19"/><circle cx="81" cy="35" r="1" fill="#fff"/><g><polygon fill="#836f61" points="74,50 28,50 32,41 70,41"/><polygon fill="#472b29" points="28.001,35 74.001,35 70.001,41 32.001,41"/><path fill="#ce942b" d="M28.721,35.3c0.313-5.189,4.008-9.6,6.279-9.6h32c3.213,0,6.047,4.41,6.284,9.6H28.721z"/><path fill="#472b29" d="M67,26.4c2.656,0,5.097,3.757,5.531,8.2H29.491c0.583-4.535,3.835-8.2,5.509-8.2H67 M67,25H35 c-3,0-7,5.5-7,11h46C74,30.5,71,25,67,25L67,25z"/><circle cx="42.5" cy="44.5" r="3" fill="#f1bc19"/><path fill="#472b29" d="M42.5,48c-1.93,0-3.5-1.57-3.5-3.5s1.57-3.5,3.5-3.5s3.5,1.57,3.5,3.5S44.43,48,42.5,48z M42.5,42 c-1.379,0-2.5,1.122-2.5,2.5s1.121,2.5,2.5,2.5s2.5-1.122,2.5-2.5S43.879,42,42.5,42z"/><circle cx="38.5" cy="46.5" r="3" fill="#cbc9bc"/><path fill="#472b29" d="M38.5,50c-1.93,0-3.5-1.57-3.5-3.5s1.57-3.5,3.5-3.5s3.5,1.57,3.5,3.5S40.43,50,38.5,50z M38.5,44 c-1.379,0-2.5,1.122-2.5,2.5s1.121,2.5,2.5,2.5s2.5-1.122,2.5-2.5S39.879,44,38.5,44z"/><circle cx="34.5" cy="48.5" r="3" fill="#f5e690"/><path fill="#472b29" d="M34.5,52c-1.93,0-3.5-1.57-3.5-3.5s1.57-3.5,3.5-3.5s3.5,1.57,3.5,3.5S36.43,52,34.5,52z M34.5,46 c-1.379,0-2.5,1.122-2.5,2.5s1.121,2.5,2.5,2.5s2.5-1.122,2.5-2.5S35.879,46,34.5,46z"/><circle cx="39.5" cy="49.5" r="3" fill="#fbcd59"/><path fill="#472b29" d="M39.5,53c-1.93,0-3.5-1.57-3.5-3.5s1.57-3.5,3.5-3.5s3.5,1.57,3.5,3.5S41.43,53,39.5,53z M39.5,47 c-1.379,0-2.5,1.122-2.5,2.5s1.121,2.5,2.5,2.5s2.5-1.122,2.5-2.5S40.879,47,39.5,47z"/><circle cx="46.5" cy="43.5" r="3" fill="#cbc9bc"/><path fill="#472b29" d="M46.5,47c-1.93,0-3.5-1.57-3.5-3.5s1.57-3.5,3.5-3.5s3.5,1.57,3.5,3.5S48.43,47,46.5,47z M46.5,41 c-1.379,0-2.5,1.122-2.5,2.5s1.121,2.5,2.5,2.5s2.5-1.122,2.5-2.5S47.879,41,46.5,41z"/><circle cx="51.5" cy="42.5" r="3" fill="#f5e690"/><path fill="#472b29" d="M51.5,46c-1.93,0-3.5-1.57-3.5-3.5s1.57-3.5,3.5-3.5s3.5,1.57,3.5,3.5S53.43,46,51.5,46z M51.5,40 c-1.379,0-2.5,1.122-2.5,2.5s1.121,2.5,2.5,2.5s2.5-1.122,2.5-2.5S52.879,40,51.5,40z"/><circle cx="60.5" cy="44.5" r="3" fill="#f1bc19"/><path fill="#472b29" d="M60.5,48c-1.93,0-3.5-1.57-3.5-3.5s1.57-3.5,3.5-3.5s3.5,1.57,3.5,3.5S62.43,48,60.5,48z M60.5,42 c-1.379,0-2.5,1.122-2.5,2.5s1.121,2.5,2.5,2.5s2.5-1.122,2.5-2.5S61.879,42,60.5,42z"/><circle cx="64.5" cy="45.5" r="3" fill="#cbc9bc"/><path fill="#472b29" d="M64.5,49c-1.93,0-3.5-1.57-3.5-3.5s1.57-3.5,3.5-3.5s3.5,1.57,3.5,3.5S66.43,49,64.5,49z M64.5,43 c-1.379,0-2.5,1.122-2.5,2.5s1.121,2.5,2.5,2.5s2.5-1.122,2.5-2.5S65.879,43,64.5,43z"/><circle cx="67.5" cy="48.5" r="3" fill="#f5e690"/><path fill="#472b29" d="M67.5,52c-1.93,0-3.5-1.57-3.5-3.5s1.57-3.5,3.5-3.5s3.5,1.57,3.5,3.5S69.43,52,67.5,52z M67.5,46 c-1.379,0-2.5,1.122-2.5,2.5s1.121,2.5,2.5,2.5s2.5-1.122,2.5-2.5S68.879,46,67.5,46z"/><circle cx="56.5" cy="44.5" r="3" fill="#fbcd59"/><path fill="#472b29" d="M56.5,48c-1.93,0-3.5-1.57-3.5-3.5s1.57-3.5,3.5-3.5s3.5,1.57,3.5,3.5S58.43,48,56.5,48z M56.5,42 c-1.379,0-2.5,1.122-2.5,2.5s1.121,2.5,2.5,2.5s2.5-1.122,2.5-2.5S57.879,42,56.5,42z"/><circle cx="48.5" cy="47.5" r="3" fill="#f1bc19"/><path fill="#472b29" d="M48.5,51c-1.93,0-3.5-1.57-3.5-3.5s1.57-3.5,3.5-3.5s3.5,1.57,3.5,3.5S50.43,51,48.5,51z M48.5,45 c-1.379,0-2.5,1.122-2.5,2.5s1.121,2.5,2.5,2.5s2.5-1.122,2.5-2.5S49.879,45,48.5,45z"/><circle cx="52.5" cy="47.5" r="3" fill="#f5e690"/><path fill="#472b29" d="M52.5,51c-1.93,0-3.5-1.57-3.5-3.5s1.57-3.5,3.5-3.5s3.5,1.57,3.5,3.5S54.43,51,52.5,51z M52.5,45 c-1.379,0-2.5,1.122-2.5,2.5s1.121,2.5,2.5,2.5s2.5-1.122,2.5-2.5S53.879,45,52.5,45z"/><circle cx="57.5" cy="49.5" r="3" fill="#fbcd59"/><path fill="#472b29" d="M57.5,53c-1.93,0-3.5-1.57-3.5-3.5s1.57-3.5,3.5-3.5s3.5,1.57,3.5,3.5S59.43,53,57.5,53z M57.5,47 c-1.379,0-2.5,1.122-2.5,2.5s1.121,2.5,2.5,2.5s2.5-1.122,2.5-2.5S58.879,47,57.5,47z"/><circle cx="63.5" cy="48.5" r="3" fill="#fbcd59"/><path fill="#472b29" d="M63.5,52c-1.93,0-3.5-1.57-3.5-3.5s1.57-3.5,3.5-3.5s3.5,1.57,3.5,3.5S65.43,52,63.5,52z M63.5,46 c-1.379,0-2.5,1.122-2.5,2.5s1.121,2.5,2.5,2.5s2.5-1.122,2.5-2.5S64.879,46,63.5,46z"/><circle cx="43.5" cy="47.5" r="3" fill="#fbcd59"/><path fill="#472b29" d="M43.5,51c-1.93,0-3.5-1.57-3.5-3.5s1.57-3.5,3.5-3.5s3.5,1.57,3.5,3.5S45.43,51,43.5,51z M43.5,45 c-1.379,0-2.5,1.122-2.5,2.5s1.121,2.5,2.5,2.5s2.5-1.122,2.5-2.5S44.879,45,43.5,45z"/><ellipse cx="58.5" cy="75.5" fill="#fbcd59" rx="3" ry="2"/><path fill="#472b29" d="M58.5,78c-1.963,0-3.5-1.098-3.5-2.5s1.537-2.5,3.5-2.5s3.5,1.098,3.5,2.5S60.463,78,58.5,78z M58.5,74c-1.355,0-2.5,0.687-2.5,1.5s1.145,1.5,2.5,1.5s2.5-0.687,2.5-1.5S59.855,74,58.5,74z"/><ellipse cx="52.5" cy="79.5" fill="#fbcd59" rx="3" ry="2"/><path fill="#472b29" d="M52.5,82c-1.963,0-3.5-1.098-3.5-2.5s1.537-2.5,3.5-2.5s3.5,1.098,3.5,2.5S54.463,82,52.5,82z M52.5,78c-1.355,0-2.5,0.687-2.5,1.5s1.145,1.5,2.5,1.5s2.5-0.687,2.5-1.5S53.855,78,52.5,78z"/><ellipse cx="63.5" cy="76.5" fill="#fbcd59" rx="3" ry="2"/><path fill="#472b29" d="M63.5,79c-1.963,0-3.5-1.098-3.5-2.5s1.537-2.5,3.5-2.5s3.5,1.098,3.5,2.5S65.463,79,63.5,79z M63.5,75c-1.355,0-2.5,0.687-2.5,1.5s1.145,1.5,2.5,1.5s2.5-0.687,2.5-1.5S64.855,75,63.5,75z"/><rect width="46" height="22" x="28" y="50" fill="#ce942b"/><path fill="#472b29" d="M69.5,55.75H58.958c-0.138,0-0.25-0.112-0.25-0.25s0.112-0.25,0.25-0.25H69.5 c0.138,0,0.25,0.112,0.25,0.25S69.638,55.75,69.5,55.75z"/><path fill="#472b29" d="M44.375,55.75h-8.333c-0.138,0-0.25-0.112-0.25-0.25s0.112-0.25,0.25-0.25h8.333 c0.138,0,0.25,0.112,0.25,0.25S44.513,55.75,44.375,55.75z"/><path fill="#472b29" d="M33.958,55.75H28.5c-0.138,0-0.25-0.112-0.25-0.25s0.112-0.25,0.25-0.25h5.458 c0.138,0,0.25,0.112,0.25,0.25S34.096,55.75,33.958,55.75z"/><path fill="#472b29" d="M73.5,60.75H57.708c-0.138,0-0.25-0.112-0.25-0.25s0.112-0.25,0.25-0.25H73.5 c0.138,0,0.25,0.112,0.25,0.25S73.638,60.75,73.5,60.75z"/><path fill="#472b29" d="M37,31.75h-7.292c-0.138,0-0.25-0.112-0.25-0.25s0.112-0.25,0.25-0.25H37 c0.138,0,0.25,0.112,0.25,0.25S37.138,31.75,37,31.75z"/><g><path fill="#472b29" d="M72,31.75H40c-0.138,0-0.25-0.112-0.25-0.25s0.112-0.25,0.25-0.25h32c0.138,0,0.25,0.112,0.25,0.25 S72.138,31.75,72,31.75z"/></g><g><path fill="#472b29" d="M70.5,28.75H61c-0.138,0-0.25-0.112-0.25-0.25s0.112-0.25,0.25-0.25h9.5 c0.138,0,0.25,0.112,0.25,0.25S70.638,28.75,70.5,28.75z"/></g><g><path fill="#472b29" d="M58.5,28.75H31c-0.138,0-0.25-0.112-0.25-0.25s0.112-0.25,0.25-0.25h27.5 c0.138,0,0.25,0.112,0.25,0.25S58.638,28.75,58.5,28.75z"/></g><g><path fill="#472b29" d="M45.417,60.75h-4.875c-0.138,0-0.25-0.112-0.25-0.25s0.112-0.25,0.25-0.25h4.875 c0.138,0,0.25,0.112,0.25,0.25S45.555,60.75,45.417,60.75z"/></g><g><path fill="#472b29" d="M38.542,60.75H28.5c-0.138,0-0.25-0.112-0.25-0.25s0.112-0.25,0.25-0.25h10.042 c0.138,0,0.25,0.112,0.25,0.25S38.68,60.75,38.542,60.75z"/></g><g><path fill="#472b29" d="M73.5,65.75H55.708c-0.138,0-0.25-0.112-0.25-0.25s0.112-0.25,0.25-0.25H73.5 c0.138,0,0.25,0.112,0.25,0.25S73.638,65.75,73.5,65.75z"/></g><g><path fill="#472b29" d="M46.583,65.75H28.5c-0.138,0-0.25-0.112-0.25-0.25s0.112-0.25,0.25-0.25h18.083 c0.138,0,0.25,0.112,0.25,0.25S46.721,65.75,46.583,65.75z"/></g><g><path fill="#fbcd59" d="M33,65.688v-1.109C33,63.707,32.293,63,31.422,63H29v4v4h4h4v-2.422C37,67.707,36.293,67,35.422,67 h-1.109C33.588,67,33,66.412,33,65.688z"/><path fill="#472b29" d="M37.25,71.25h-8.5v-8.5h2.672c1.008,0,1.828,0.82,1.828,1.828v1.109 c0,0.586,0.477,1.063,1.063,1.063h1.109c1.008,0,1.828,0.82,1.828,1.828V71.25z M29.25,70.75h7.5v-2.172 c0-0.732-0.596-1.328-1.328-1.328h-1.109c-0.861,0-1.563-0.701-1.563-1.563v-1.109c0-0.732-0.596-1.328-1.328-1.328H29.25V70.75z"/></g><g><path fill="#fbcd59" d="M67.688,67h-1.109C65.707,67,65,67.707,65,68.578V71h4h4v-4v-4h-2.422 C69.707,63,69,63.707,69,64.578v1.109C69,66.412,68.412,67,67.688,67z"/><path fill="#472b29" d="M73.25,71.25h-8.5v-2.672c0-1.008,0.82-1.828,1.828-1.828h1.109c0.586,0,1.063-0.477,1.063-1.063 v-1.109c0-1.008,0.82-1.828,1.828-1.828h2.672V71.25z M65.25,70.75h7.5v-7.5h-2.172c-0.732,0-1.328,0.596-1.328,1.328v1.109 c0,0.862-0.701,1.563-1.563,1.563h-1.109c-0.732,0-1.328,0.596-1.328,1.328V70.75z"/></g><g><path fill="#fbcd59" d="M57,50.625H46v6.162c0,0.625,0.308,1.209,0.819,1.552l1.33,0.893 c0.465,0.312,0.532,0.982,0.139,1.385L47.4,61.526c-0.469,0.48-0.469,1.259,0,1.74l3.25,3.326c0.469,0.48,1.23,0.48,1.7,0 l3.25-3.326c0.469-0.48,0.469-1.259,0-1.74l-0.888-0.909c-0.393-0.402-0.326-1.073,0.139-1.385l1.33-0.893 C56.692,57.996,57,57.413,57,56.787V50.625z"/><path fill="#472b29" d="M51.5,67.202c-0.389,0-0.755-0.155-1.028-0.436l-3.25-3.326c-0.563-0.576-0.563-1.513,0-2.089 l0.888-0.909c0.136-0.139,0.202-0.332,0.183-0.529c-0.021-0.195-0.123-0.367-0.282-0.474l-1.33-0.893 c-0.582-0.39-0.93-1.048-0.93-1.759v-6.412h11.5v6.412c0,0.711-0.348,1.369-0.93,1.76l-1.33,0.892 c-0.159,0.107-0.262,0.28-0.282,0.474c-0.02,0.197,0.047,0.389,0.183,0.528l0.888,0.909c0.563,0.576,0.563,1.513,0,2.089 l-3.25,3.326C52.255,67.047,51.889,67.202,51.5,67.202z M46.25,50.875v5.912c0,0.544,0.265,1.047,0.709,1.344l1.33,0.893 c0.282,0.19,0.465,0.495,0.5,0.838c0.035,0.345-0.082,0.684-0.322,0.929L47.579,61.7c-0.375,0.384-0.375,1.007,0,1.39l3.25,3.326 c0.359,0.368,0.982,0.368,1.342,0l3.25-3.327c0.375-0.383,0.375-1.007,0-1.39l-0.888-0.909c-0.24-0.245-0.357-0.584-0.322-0.929 c0.035-0.343,0.218-0.648,0.5-0.838l1.33-0.893c0.444-0.298,0.709-0.8,0.709-1.344v-5.912H46.25z"/></g><g><polygon fill="#472b29" points="70.001,41 73.976,36 72.294,36 68.835,40.223 68.408,40.864 68.721,41.568 72.6,50.297 72.6,70.6 29.4,70.6 29.4,50.297 33.28,41.569 33.593,40.865 33.165,40.224 29.656,36 27.974,36 32.001,41 32,41 28,50 28,72 74,72 74,50 70,41"/></g><g><path fill="#ce942b" d="M51.5,62.5L51.5,62.5c-0.552,0-1-0.448-1-1v-4c0-0.552,0.448-1,1-1l0,0c0.552,0,1,0.448,1,1v4 C52.5,62.052,52.052,62.5,51.5,62.5z"/><path fill="#472b29" d="M51.5,62.75c-0.689,0-1.25-0.561-1.25-1.25v-4c0-0.689,0.561-1.25,1.25-1.25s1.25,0.561,1.25,1.25 v4C52.75,62.189,52.189,62.75,51.5,62.75z M51.5,56.75c-0.413,0-0.75,0.336-0.75,0.75v4c0,0.414,0.337,0.75,0.75,0.75 s0.75-0.336,0.75-0.75v-4C52.25,57.086,51.913,56.75,51.5,56.75z"/></g><g><rect width="45" height="1" x="28.5" y="50" fill="#472b29"/></g><g><rect width="3.902" height="3.902" x="39.496" y="41.887" fill="#ee3e54" transform="rotate(18.986 41.445 43.831)"/><polygon fill="#f4989e" points="41.447,43.838 40.236,41.358 38.967,45.048 38.967,45.048"/><polygon fill="#f4989e" points="41.428,43.831 42.639,46.311 43.908,42.621 43.908,42.621"/><path fill="#472b29" d="M42.657,46.567c-0.027,0-0.055-0.004-0.081-0.014l-3.689-1.269 c-0.131-0.045-0.2-0.187-0.155-0.318L40,41.277c0.021-0.063,0.067-0.114,0.127-0.143c0.059-0.029,0.127-0.034,0.19-0.012 l3.689,1.269c0.131,0.045,0.2,0.187,0.155,0.318l-1.269,3.69c-0.021,0.063-0.067,0.114-0.127,0.143 C42.732,46.559,42.695,46.567,42.657,46.567z M39.285,44.893L42.502,46l1.106-3.217l-3.217-1.106L39.285,44.893z"/></g><g><rect width="3.902" height="3.902" x="52.612" y="38.924" fill="#00a5a5" transform="rotate(45.001 54.563 40.875)"/><polygon fill="#a8dbdb" points="54.563,40.875 54.563,38.116 51.803,40.875 51.804,40.875"/><polygon fill="#a8dbdb" points="54.549,40.861 54.549,43.62 57.308,40.861 57.308,40.861"/><path fill="#472b29" d="M54.563,43.884c-0.066,0-0.13-0.026-0.177-0.073l-2.759-2.759c-0.098-0.098-0.098-0.256,0-0.354 l2.759-2.759c0.094-0.094,0.26-0.094,0.354,0l2.759,2.759c0.098,0.098,0.098,0.256,0,0.354l-2.759,2.759 C54.692,43.858,54.629,43.884,54.563,43.884z M52.157,40.875l2.405,2.406l2.405-2.406l-2.405-2.406L52.157,40.875z"/></g><g><rect width="3.902" height="3.902" x="59.195" y="44.007" fill="#00a5a5" transform="rotate(45.001 61.147 45.958)"/><polygon fill="#a8dbdb" points="61.146,45.958 61.146,43.199 58.387,45.958 58.387,45.958"/><polygon fill="#a8dbdb" points="61.132,45.945 61.132,48.704 63.891,45.945 63.891,45.945"/><path fill="#472b29" d="M61.146,48.967c-0.064,0-0.128-0.024-0.177-0.073l-2.759-2.759c-0.098-0.098-0.098-0.256,0-0.354 l2.759-2.759c0.098-0.098,0.256-0.098,0.354,0l2.76,2.759c0.047,0.047,0.073,0.11,0.073,0.177s-0.026,0.13-0.073,0.177 l-2.76,2.759C61.273,48.943,61.21,48.967,61.146,48.967z M58.74,45.958l2.405,2.406l2.406-2.406l-2.406-2.406L58.74,45.958z"/></g><g><path fill="#472b29" d="M55.5,53.25h-4.417c-0.138,0-0.25-0.112-0.25-0.25s0.112-0.25,0.25-0.25H55.5 c0.138,0,0.25,0.112,0.25,0.25S55.638,53.25,55.5,53.25z"/></g><g><path fill="#472b29" d="M49.417,53.25H47.5c-0.138,0-0.25-0.112-0.25-0.25s0.112-0.25,0.25-0.25h1.917 c0.138,0,0.25,0.112,0.25,0.25S49.555,53.25,49.417,53.25z"/></g><g><path fill="#fbcd59" d="M51,30c-2.761,0-5,2.183-5,4.875h10C56,32.183,53.761,30,51,30z"/><path fill="#472b29" d="M56.25,35.125h-10.5v-0.25c0-2.826,2.355-5.125,5.25-5.125s5.25,2.299,5.25,5.125V35.125z M46.257,34.625h9.486c-0.134-2.434-2.21-4.375-4.743-4.375S46.391,32.191,46.257,34.625z"/></g></g></svg>