<svg xmlns="http://www.w3.org/2000/svg"  viewBox="0 0 100 100" width="100px" height="100px"><circle cx="13" cy="29" r="2" fill="#ee3e54"/><circle cx="77" cy="13" r="1" fill="#f1bc19"/><circle cx="50" cy="50" r="37" fill="#fce0a2"/><circle cx="83" cy="15" r="4" fill="#f1bc19"/><circle cx="87" cy="24" r="2" fill="#ee3e54"/><circle cx="81" cy="76" r="2" fill="#fbcd59"/><circle cx="15" cy="63" r="4" fill="#fbcd59"/><circle cx="25" cy="87" r="2" fill="#ee3e54"/><circle cx="18.5" cy="53.5" r="2.5" fill="#fff"/><circle cx="21" cy="67" r="1" fill="#f1bc19"/><circle cx="80" cy="34" r="1" fill="#fff"/><polygon fill="#9f8066" points="46.533,29.3 45.798,23.7 55.202,23.7 54.467,29.3"/><path fill="#472b29" d="M54.404,24.4l-0.551,4.2h-6.706l-0.551-4.2H54.404 M56,23H45l0.918,7h9.163L56,23L56,23z"/><path fill="#c5def0" d="M50.501,78.3c-0.68,0-1.372-0.039-2.055-0.116c-8.079-0.911-14.646-7.482-15.613-15.626 c-0.723-6.059,1.582-12.013,6.165-15.927c4.019-3.437,6.452-8.054,6.852-13c0.052-0.637-0.339-1.23-0.951-1.445 c-0.815-0.287-1.301-1.089-1.18-1.949c0.123-0.876,0.94-1.536,1.901-1.536h9.762c0.958,0,1.774,0.658,1.899,1.531 c0.122,0.859-0.36,1.662-1.174,1.952c-0.602,0.214-0.99,0.803-0.944,1.432c0.376,5.081,2.712,9.695,6.41,12.659 c4.275,3.431,6.727,8.555,6.727,14.059c0,4.801-1.852,9.314-5.215,12.707C59.723,76.432,55.254,78.3,50.501,78.3 C50.501,78.3,50.501,78.3,50.501,78.3z"/><path fill="#88ae45" d="M66.146,52.955c-0.523-1.034-1.854-1.263-2.695-0.48c-0.58,0.537-1.28,0.989-2.007,0.989 c-0.58,0-1.171-0.326-1.7-0.766c-1.126-0.92-2.764-0.926-3.89,0c-0.529,0.44-1.115,0.766-1.7,0.766 c-0.569,0-1.149-0.314-1.672-0.743c-1.143-0.931-2.786-0.931-3.93,0c-0.529,0.423-1.103,0.743-1.678,0.743 c-0.58,0-1.171-0.331-1.706-0.771c-1.109-0.92-2.741-0.92-3.85,0c-0.535,0.44-1.126,0.771-1.706,0.771 c-0.734,0-1.433-0.457-2.013-0.989c-0.808-0.754-2.133-0.6-2.633,0.389c-1.291,2.532-1.996,5.423-1.894,8.492 c0.296,9.103,7.774,16.652,16.833,16.966C59.84,78.67,68,70.682,68,60.778C68,57.961,67.323,55.31,66.146,52.955z"/><path fill="#472b29" d="M39.612,53.714c-0.707,0-1.467-0.354-2.258-1.051c-0.368-0.331-0.875-0.476-1.362-0.389 c-0.44,0.079-0.791,0.329-0.989,0.705c-0.065,0.122-0.215,0.17-0.338,0.105c-0.122-0.064-0.169-0.216-0.104-0.338 c0.268-0.508,0.757-0.859,1.344-0.965c0.638-0.112,1.303,0.076,1.782,0.508c0.696,0.612,1.344,0.924,1.926,0.924 c0.138,0,0.25,0.112,0.25,0.25S39.75,53.714,39.612,53.714z"/><path fill="#472b29" d="M46.874,53.714c-0.569,0-1.196-0.278-1.865-0.828c-1.024-0.85-2.509-0.849-3.532-0.001 c-0.107,0.088-0.264,0.072-0.352-0.033c-0.088-0.105-0.074-0.264,0.033-0.352c1.207-1.002,2.96-1.003,4.169,0 c0.576,0.474,1.097,0.714,1.546,0.714c0.444,0,0.942-0.226,1.521-0.688c0.109-0.086,0.266-0.067,0.352,0.039 c0.086,0.108,0.069,0.266-0.039,0.352C48.036,53.453,47.436,53.714,46.874,53.714z"/><path fill="#472b29" d="M54.153,53.714c-0.566,0-1.182-0.27-1.83-0.8c-0.414-0.337-0.913-0.551-1.442-0.618 c-0.137-0.018-0.234-0.143-0.216-0.279c0.017-0.139,0.142-0.228,0.28-0.217c0.622,0.079,1.208,0.33,1.695,0.727 c0.557,0.456,1.066,0.688,1.514,0.688c0.457,0,0.975-0.238,1.541-0.708c1.216-1,2.985-1,4.208-0.001 c0.107,0.087,0.123,0.245,0.035,0.352c-0.088,0.106-0.245,0.123-0.352,0.035c-1.038-0.848-2.541-0.85-3.573,0 C55.355,53.437,54.729,53.714,54.153,53.714z"/><path fill="#472b29" d="M61.443,53.714c-0.138,0-0.25-0.112-0.25-0.25s0.112-0.25,0.25-0.25 c0.596,0,1.253-0.312,1.953-0.926c0.489-0.432,1.141-0.608,1.783-0.496c0.625,0.113,1.153,0.494,1.447,1.045 c0.065,0.122,0.019,0.273-0.103,0.339c-0.123,0.063-0.272,0.019-0.338-0.103c-0.222-0.416-0.621-0.703-1.095-0.789 c-0.493-0.088-0.99,0.048-1.364,0.379C62.933,53.36,62.165,53.714,61.443,53.714z"/><path fill="#edf7f5" d="M57,62.069c0-0.093,0-0.185-0.005-0.278c0-4.374-3.133-6.861-6.622-6.79 C46.844,55.078,44,57.417,44,61.982c0,0.049,0,0.098,0,0.153c0.03,1.483,1.224,2.64,2.605,2.64H46.6v2.329 c0,0.769,0.584,1.396,1.3,1.396h5.2c0.716,0,1.3-0.627,1.3-1.396v-2.329h-0.01C55.796,64.774,56.98,63.58,57,62.069z"/><path fill="#472b29" d="M44.029,61.454c-0.006,0-0.013,0-0.02-0.001c-0.137-0.01-0.241-0.13-0.23-0.268 c0.137-1.817,0.74-3.309,1.79-4.433c0.094-0.101,0.252-0.105,0.354-0.012c0.101,0.095,0.106,0.253,0.012,0.354 c-0.971,1.038-1.528,2.427-1.656,4.128C44.268,61.354,44.159,61.454,44.029,61.454z"/><path fill="#472b29" d="M53.1,68.75h-5.2c-0.854,0-1.55-0.738-1.55-1.646v-2.091c-1.047-0.101-1.988-0.811-2.391-1.831 c-0.051-0.128,0.012-0.273,0.141-0.324c0.126-0.05,0.273,0.012,0.324,0.141c0.361,0.913,1.238,1.526,2.181,1.526 c0.138,0,0.25,0.112,0.25,0.25c0,0.017-0.001,0.033-0.005,0.05v2.279c0,0.632,0.471,1.146,1.05,1.146h5.2 c0.579,0,1.05-0.515,1.05-1.146v-2.258c-0.007-0.022-0.01-0.047-0.01-0.071c0-0.138,0.112-0.25,0.25-0.25 c1.283,0,2.342-1.103,2.36-2.458c0-0.086,0-0.174-0.004-0.263c0-1.972-0.645-3.639-1.863-4.832 c-1.167-1.145-2.773-1.747-4.505-1.721c-0.948,0.021-1.828,0.207-2.613,0.554c-0.129,0.056-0.274-0.001-0.33-0.128 c-0.056-0.126,0.001-0.273,0.127-0.329c0.846-0.373,1.79-0.574,2.805-0.597c1.874-0.029,3.601,0.624,4.865,1.863 c1.316,1.29,2.012,3.08,2.012,5.177c0.005,0.084,0.005,0.182,0.005,0.278c-0.021,1.539-1.165,2.805-2.6,2.942v2.092 C54.65,68.012,53.955,68.75,53.1,68.75z"/><circle cx="47.5" cy="60.5" r="1.5" fill="#9f8066"/><path fill="#472b29" d="M47.5,62.25c-0.965,0-1.75-0.785-1.75-1.75s0.785-1.75,1.75-1.75s1.75,0.785,1.75,1.75 S48.465,62.25,47.5,62.25z M47.5,59.25c-0.689,0-1.25,0.561-1.25,1.25s0.561,1.25,1.25,1.25s1.25-0.561,1.25-1.25 S48.189,59.25,47.5,59.25z"/><circle cx="53.5" cy="60.5" r="1.5" fill="#9f8066"/><path fill="#472b29" d="M53.5,62.25c-0.965,0-1.75-0.785-1.75-1.75s0.785-1.75,1.75-1.75s1.75,0.785,1.75,1.75 S54.465,62.25,53.5,62.25z M53.5,59.25c-0.689,0-1.25,0.561-1.25,1.25s0.561,1.25,1.25,1.25s1.25-0.561,1.25-1.25 S54.189,59.25,53.5,59.25z"/><polygon fill="#9f8066" points="52,65 49,65 50.5,62"/><path fill="#472b29" d="M52,65.25h-3c-0.086,0-0.167-0.045-0.213-0.118c-0.045-0.074-0.049-0.166-0.011-0.243l1.5-3 c0.085-0.17,0.362-0.17,0.447,0l1.5,3c0.039,0.077,0.035,0.169-0.011,0.243C52.167,65.205,52.086,65.25,52,65.25z M49.404,64.75 h2.191L50.5,62.559L49.404,64.75z"/><path fill="#472b29" d="M47.5,33h-2c-0.276,0-0.5-0.224-0.5-0.5s0.224-0.5,0.5-0.5h2c0.276,0,0.5,0.224,0.5,0.5 S47.776,33,47.5,33z"/><path fill="#472b29" d="M55.5,33h-5c-0.276,0-0.5-0.224-0.5-0.5s0.224-0.5,0.5-0.5h5c0.276,0,0.5,0.224,0.5,0.5 S55.776,33,55.5,33z"/><circle cx="38.25" cy="58.75" r="2.75" fill="#d1dc82"/><path fill="#472b29" d="M41,59c-0.138,0-0.25-0.112-0.25-0.25c0-1.379-1.122-2.5-2.5-2.5c-0.543,0-1.06,0.171-1.493,0.495 c-0.111,0.081-0.268,0.061-0.35-0.051c-0.083-0.11-0.06-0.267,0.05-0.35c0.521-0.389,1.141-0.595,1.793-0.595c1.654,0,3,1.346,3,3 C41.25,58.888,41.138,59,41,59z"/><path fill="#472b29" d="M38.25,61.75c-1.654,0-3-1.346-3-3c0-0.138,0.112-0.25,0.25-0.25s0.25,0.112,0.25,0.25 c0,1.379,1.122,2.5,2.5,2.5c0.878,0,1.676-0.448,2.135-1.198c0.072-0.119,0.227-0.155,0.344-0.082 c0.118,0.071,0.155,0.226,0.083,0.344C40.261,61.213,39.303,61.75,38.25,61.75z"/><circle cx="48.25" cy="46.75" r="2.75" fill="#9f8066"/><path fill="#472b29" d="M51,47c-0.138,0-0.25-0.112-0.25-0.25c0-1.379-1.122-2.5-2.5-2.5c-0.543,0-1.06,0.171-1.493,0.495 c-0.11,0.08-0.269,0.061-0.35-0.051c-0.083-0.11-0.06-0.267,0.05-0.35c0.521-0.389,1.141-0.595,1.793-0.595c1.654,0,3,1.346,3,3 C51.25,46.888,51.138,47,51,47z"/><path fill="#472b29" d="M48.25,49.75c-1.654,0-3-1.346-3-3c0-0.138,0.112-0.25,0.25-0.25s0.25,0.112,0.25,0.25 c0,1.379,1.122,2.5,2.5,2.5c0.878,0,1.676-0.448,2.135-1.198c0.072-0.118,0.228-0.156,0.344-0.082 c0.118,0.071,0.155,0.226,0.083,0.344C50.261,49.213,49.303,49.75,48.25,49.75z"/><circle cx="61.25" cy="66.75" r="2.75" fill="#d1dc82"/><path fill="#472b29" d="M61.25,69.75c-1.004,0-1.938-0.499-2.497-1.336c-0.077-0.114-0.046-0.27,0.069-0.347 c0.114-0.077,0.269-0.047,0.347,0.069c0.466,0.697,1.244,1.113,2.081,1.113c1.378,0,2.5-1.121,2.5-2.5s-1.122-2.5-2.5-2.5 C61.112,64.25,61,64.138,61,64s0.112-0.25,0.25-0.25c1.654,0,3,1.346,3,3S62.904,69.75,61.25,69.75z"/><g><path fill="#472b29" d="M58.5,67c-0.138,0-0.25-0.112-0.25-0.25c0-0.998,0.494-1.928,1.322-2.487 c0.114-0.077,0.27-0.049,0.347,0.067c0.078,0.114,0.047,0.27-0.067,0.347c-0.69,0.467-1.103,1.241-1.103,2.073 C58.75,66.888,58.638,67,58.5,67z"/></g><g><circle cx="40.5" cy="67.5" r="2" fill="#d1dc82"/></g><g><path fill="#472b29" d="M40.5,69.75c-1.241,0-2.25-1.01-2.25-2.25c0-0.864,0.482-1.639,1.258-2.021 c0.125-0.062,0.273-0.011,0.334,0.114c0.061,0.124,0.01,0.273-0.114,0.335c-0.604,0.297-0.979,0.899-0.979,1.571 c0,0.965,0.785,1.75,1.75,1.75s1.75-0.785,1.75-1.75c0-0.705-0.419-1.338-1.069-1.612c-0.127-0.054-0.187-0.201-0.133-0.328 c0.054-0.127,0.199-0.188,0.328-0.133c0.834,0.354,1.374,1.167,1.374,2.073C42.75,68.74,41.741,69.75,40.5,69.75z"/></g><g><circle cx="47" cy="73" r="1.5" fill="#d1dc82"/><path fill="#472b29" d="M47,74.75c-0.965,0-1.75-0.785-1.75-1.75s0.785-1.75,1.75-1.75s1.75,0.785,1.75,1.75 S47.965,74.75,47,74.75z M47,71.75c-0.689,0-1.25,0.561-1.25,1.25s0.561,1.25,1.25,1.25s1.25-0.561,1.25-1.25 S47.689,71.75,47,71.75z"/></g><g><circle cx="62" cy="58" r="1.5" fill="#d1dc82"/></g><g><path fill="#472b29" d="M62,59.75c-0.965,0-1.75-0.785-1.75-1.75c0-0.367,0.113-0.719,0.326-1.018 c0.081-0.112,0.236-0.14,0.349-0.058c0.112,0.08,0.138,0.236,0.058,0.349C60.831,57.486,60.75,57.737,60.75,58 c0,0.689,0.561,1.25,1.25,1.25s1.25-0.561,1.25-1.25s-0.561-1.25-1.25-1.25c-0.138,0-0.25-0.112-0.25-0.25s0.112-0.25,0.25-0.25 c0.965,0,1.75,0.785,1.75,1.75S62.965,59.75,62,59.75z"/></g><g><circle cx="51.5" cy="40.5" r="1.5" fill="#9f8066"/></g><g><path fill="#472b29" d="M51.5,42.25c-0.965,0-1.75-0.785-1.75-1.75c0-0.367,0.113-0.719,0.326-1.018 c0.081-0.112,0.236-0.14,0.349-0.058c0.112,0.08,0.138,0.236,0.058,0.349c-0.152,0.213-0.233,0.464-0.233,0.727 c0,0.689,0.561,1.25,1.25,1.25s1.25-0.561,1.25-1.25s-0.561-1.25-1.25-1.25c-0.138,0-0.25-0.112-0.25-0.25s0.112-0.25,0.25-0.25 c0.965,0,1.75,0.785,1.75,1.75S52.465,42.25,51.5,42.25z"/></g><g><circle cx="55.5" cy="72.5" r="2" fill="#d1dc82"/></g><g><path fill="#472b29" d="M55.5,74.75c-0.451,0-0.886-0.133-1.258-0.385c-0.114-0.077-0.145-0.232-0.067-0.347 c0.078-0.115,0.234-0.144,0.347-0.067c0.289,0.195,0.627,0.299,0.978,0.299c0.965,0,1.75-0.785,1.75-1.75s-0.785-1.75-1.75-1.75 s-1.75,0.785-1.75,1.75c0,0.138-0.112,0.25-0.25,0.25s-0.25-0.112-0.25-0.25c0-1.24,1.009-2.25,2.25-2.25s2.25,1.01,2.25,2.25 S56.741,74.75,55.5,74.75z"/></g><g><path fill="#472b29" d="M48.5,68.75c-0.138,0-0.25-0.112-0.25-0.25v-2c0-0.138,0.112-0.25,0.25-0.25s0.25,0.112,0.25,0.25v2 C48.75,68.638,48.638,68.75,48.5,68.75z"/></g><g><path fill="#472b29" d="M50.5,68.75c-0.138,0-0.25-0.112-0.25-0.25v-2c0-0.138,0.112-0.25,0.25-0.25s0.25,0.112,0.25,0.25v2 C50.75,68.638,50.638,68.75,50.5,68.75z"/></g><g><path fill="#472b29" d="M52.5,68.75c-0.138,0-0.25-0.112-0.25-0.25v-2c0-0.138,0.112-0.25,0.25-0.25s0.25,0.112,0.25,0.25v2 C52.75,68.638,52.638,68.75,52.5,68.75z"/></g><g><path fill="#472b29" d="M55.382,29.4c0.602,0,1.132,0.409,1.206,0.93c0.087,0.614-0.31,1.049-0.716,1.194 c-0.898,0.32-1.476,1.202-1.406,2.144c0.39,5.273,2.821,10.067,6.669,13.153c4.109,3.296,6.465,8.221,6.465,13.512 c0,9.521-7.671,17.267-17.1,17.267c-0.654,0-1.318-0.038-1.976-0.112c-7.759-0.876-14.066-7.19-14.996-15.014 c-0.695-5.826,1.52-11.55,5.926-15.312c4.16-3.557,6.679-8.343,7.094-13.475c0.077-0.953-0.505-1.842-1.416-2.162 c-0.407-0.143-0.806-0.577-0.72-1.192c0.073-0.523,0.604-0.933,1.208-0.933H55.382 M55.382,28H45.62 c-1.265,0-2.419,0.887-2.595,2.139c-0.174,1.241,0.566,2.328,1.642,2.706c0.306,0.108,0.512,0.406,0.485,0.729 c-0.394,4.879-2.86,9.318-6.608,12.524c-4.537,3.875-7.196,9.917-6.406,16.542c1.007,8.469,7.831,15.291,16.229,16.239 C49.086,78.96,49.798,79,50.5,79C60.716,79,69,70.645,69,60.333c0-5.917-2.731-11.187-6.989-14.604 c-3.69-2.959-5.8-7.442-6.149-12.164c-0.024-0.32,0.178-0.614,0.48-0.722c1.073-0.382,1.809-1.469,1.632-2.71 C57.796,28.883,56.644,28,55.382,28L55.382,28z"/></g></svg>