<svg xmlns="http://www.w3.org/2000/svg"  viewBox="0 0 100 100" width="100px" height="100px"><circle cx="13" cy="29" r="2" fill="#ee3e54"/><circle cx="77" cy="13" r="1" fill="#f1bc19"/><circle cx="50" cy="50" r="37" fill="#fce0a2"/><circle cx="83" cy="15" r="4" fill="#f1bc19"/><circle cx="87" cy="24" r="2" fill="#ee3e54"/><circle cx="81" cy="76" r="2" fill="#fbcd59"/><circle cx="15" cy="63" r="4" fill="#fbcd59"/><circle cx="25" cy="87" r="2" fill="#ee3e54"/><circle cx="18.5" cy="53.5" r="2.5" fill="#fff"/><circle cx="21" cy="67" r="1" fill="#f1bc19"/><circle cx="80" cy="34" r="1" fill="#fff"/><g><rect width="47.6" height="2.6" x="25.079" y="49.321" fill="#ef9922" transform="rotate(-45.001 48.878 50.622)"/><path fill="#472b29" d="M64.789,33.863l0.849,0.848L32.969,67.38l-0.849-0.848L64.789,33.863 M64.789,31.883 L30.14,66.531l2.828,2.828l34.648-34.648L64.789,31.883L64.789,31.883z"/><path fill="#cbc9bc" d="M71.506,27.994l-14.142,5.657c0,0,3.889,2.475,7.071,1.414c-1.061,3.182,1.414,7.071,1.414,7.071 L71.506,27.994z"/><path fill="#472b29" d="M65.849,42.636c-0.17,0-0.33-0.087-0.422-0.231c-0.098-0.153-2.198-3.503-1.673-6.657 c-3.161,0.519-6.506-1.577-6.659-1.675c-0.158-0.101-0.247-0.281-0.229-0.469c0.018-0.187,0.138-0.348,0.313-0.417L71.32,27.53 c0.185-0.075,0.397-0.032,0.539,0.11c0.142,0.142,0.185,0.354,0.111,0.539l-5.657,14.142c-0.07,0.175-0.231,0.295-0.418,0.313 C65.88,42.635,65.864,42.636,65.849,42.636z M64.435,34.565c0.13,0,0.258,0.051,0.354,0.146c0.134,0.134,0.181,0.332,0.121,0.512 c-0.681,2.043,0.244,4.458,0.871,5.739l4.829-12.071l-12.07,4.828c1.283,0.624,3.7,1.551,5.739,0.871 C64.329,34.574,64.382,34.565,64.435,34.565z"/><polygon fill="#f1d2cd" points="40.747,56.632 34.383,55.925 25.898,64.41 32.262,65.117"/><path fill="#472b29" d="M32.262,65.617c-0.019,0-0.037-0.001-0.055-0.003l-6.364-0.707 c-0.191-0.021-0.353-0.15-0.417-0.332c-0.064-0.181-0.018-0.383,0.118-0.519l8.485-8.485c0.107-0.108,0.257-0.157,0.409-0.144 l6.364,0.707c0.191,0.021,0.353,0.15,0.417,0.332c0.064,0.181,0.018,0.383-0.118,0.519l-8.485,8.485 C32.521,65.565,32.394,65.617,32.262,65.617z M26.987,64.028l5.091,0.565l7.58-7.58l-5.091-0.565L26.987,64.028z"/><path fill="#472b29" d="M66.809,31.952c-0.101,0-0.196-0.062-0.234-0.162c-0.049-0.129,0.017-0.273,0.146-0.321 l1.604-0.605c0.13-0.051,0.273,0.016,0.322,0.146c0.049,0.129-0.017,0.273-0.146,0.321l-1.604,0.605 C66.868,31.947,66.838,31.952,66.809,31.952z"/><path fill="#472b29" d="M62.137,33.715c-0.101,0-0.196-0.062-0.234-0.162c-0.049-0.129,0.017-0.273,0.146-0.322l3.155-1.19 c0.13-0.046,0.274,0.017,0.322,0.146c0.049,0.129-0.017,0.273-0.146,0.322l-3.155,1.19C62.196,33.71,62.166,33.715,62.137,33.715z"/><path fill="#472b29" d="M38.51,59.583c-0.017,0-0.033-0.002-0.049-0.005l-2.807-0.562 c-0.136-0.027-0.224-0.159-0.196-0.294c0.027-0.136,0.166-0.221,0.294-0.196l2.807,0.562c0.136,0.027,0.224,0.159,0.196,0.294 C38.731,59.501,38.627,59.583,38.51,59.583z"/><path fill="#472b29" d="M34.084,58.697c-0.017,0-0.033-0.002-0.049-0.005l-1.808-0.361 c-0.136-0.027-0.223-0.159-0.196-0.294c0.027-0.137,0.162-0.217,0.294-0.196l1.808,0.361c0.136,0.027,0.223,0.159,0.196,0.294 C34.305,58.615,34.201,58.697,34.084,58.697z"/><path fill="#472b29" d="M36.64,61.453c-0.017,0-0.033-0.002-0.049-0.005l-6.234-1.247 c-0.136-0.027-0.224-0.159-0.196-0.294c0.027-0.136,0.166-0.221,0.294-0.196l6.234,1.247c0.136,0.027,0.224,0.159,0.196,0.294 C36.861,61.371,36.757,61.453,36.64,61.453z"/><path fill="#472b29" d="M32.512,62.871c-0.017,0-0.033-0.002-0.049-0.005l-3.976-0.795 c-0.136-0.027-0.224-0.159-0.196-0.294c0.027-0.137,0.162-0.217,0.294-0.196l3.976,0.795c0.136,0.027,0.224,0.159,0.196,0.294 C32.733,62.789,32.629,62.871,32.512,62.871z"/><polygon fill="#f1d2cd" points="42.868,58.753 43.575,65.117 35.09,73.602 34.383,67.238"/><path fill="#472b29" d="M35.09,74.103c-0.056,0-0.111-0.009-0.166-0.028c-0.181-0.063-0.31-0.226-0.332-0.416l-0.708-6.364 c-0.017-0.151,0.036-0.302,0.144-0.409l8.485-8.485c0.135-0.137,0.336-0.184,0.519-0.118c0.181,0.063,0.31,0.226,0.332,0.416 l0.707,6.364c0.017,0.151-0.036,0.302-0.144,0.409l-8.485,8.485C35.349,74.052,35.221,74.103,35.09,74.103z M34.906,67.422 l0.566,5.092l7.58-7.58l-0.565-5.092L34.906,67.422z"/><g><path fill="#472b29" d="M40.728,64.048c-0.117,0-0.221-0.082-0.245-0.201l-0.561-2.808 c-0.027-0.135,0.061-0.267,0.196-0.294c0.134-0.024,0.267,0.061,0.294,0.196l0.561,2.808c0.027,0.135-0.061,0.267-0.196,0.294 C40.761,64.046,40.745,64.048,40.728,64.048z"/></g><g><path fill="#472b29" d="M41.414,67.474c-0.117,0-0.221-0.082-0.245-0.201l-0.362-1.808 c-0.027-0.135,0.061-0.267,0.196-0.294c0.128-0.027,0.267,0.06,0.294,0.196l0.362,1.808c0.027,0.135-0.061,0.267-0.196,0.294 C41.447,67.472,41.43,67.474,41.414,67.474z"/></g><g><path fill="#472b29" d="M39.543,69.344c-0.117,0-0.221-0.082-0.245-0.201l-1.247-6.233 c-0.027-0.135,0.061-0.267,0.196-0.294c0.13-0.021,0.267,0.06,0.294,0.196l1.247,6.233c0.027,0.135-0.061,0.267-0.196,0.294 C39.577,69.342,39.56,69.344,39.543,69.344z"/></g><g><path fill="#472b29" d="M37.673,71.214c-0.117,0-0.221-0.082-0.245-0.201l-0.795-3.976 c-0.027-0.135,0.061-0.267,0.196-0.294c0.13-0.024,0.267,0.061,0.294,0.196l0.795,3.976c0.027,0.135-0.061,0.267-0.196,0.294 C37.707,71.212,37.69,71.214,37.673,71.214z"/></g></g><g><rect width="2.6" height="47.6" x="50.225" y="26.821" fill="#ef9922" transform="rotate(-44.984 51.526 50.623)"/><path fill="#472b29" d="M35.615,33.863l32.668,32.668l-0.849,0.848L34.767,34.711L35.615,33.863 M35.615,31.883 l-2.828,2.828L67.435,69.36l2.828-2.828L35.615,31.883L35.615,31.883z"/><path fill="#cbc9bc" d="M28.898,27.994l5.657,14.142c0,0,2.475-3.889,1.414-7.071c3.182,1.061,7.071-1.414,7.071-1.414 L28.898,27.994z"/><path fill="#472b29" d="M34.555,42.636c-0.015,0-0.031-0.001-0.046-0.002c-0.187-0.018-0.348-0.138-0.418-0.313 L28.434,28.18c-0.074-0.186-0.031-0.397,0.111-0.539c0.142-0.143,0.354-0.186,0.539-0.11l14.142,5.656 c0.174,0.069,0.295,0.23,0.313,0.417c0.017,0.188-0.071,0.368-0.229,0.469c-0.153,0.098-3.5,2.199-6.659,1.675 c0.524,3.154-1.576,6.504-1.673,6.657C34.884,42.549,34.725,42.636,34.555,42.636z M29.795,28.892l4.828,12.069 c0.626-1.283,1.55-3.7,0.871-5.737c-0.06-0.18-0.013-0.378,0.121-0.512c0.134-0.135,0.333-0.178,0.512-0.121 c2.043,0.684,4.459-0.245,5.74-0.871L29.795,28.892z"/><polygon fill="#f1d2cd" points="57.536,58.753 56.828,65.117 65.314,73.602 66.021,67.238"/><path fill="#472b29" d="M65.313,74.103c-0.13,0-0.258-0.051-0.354-0.146l-8.485-8.485c-0.107-0.107-0.16-0.258-0.144-0.409 l0.707-6.364c0.021-0.19,0.15-0.353,0.332-0.416c0.181-0.065,0.383-0.019,0.519,0.118l8.485,8.485 c0.107,0.107,0.16,0.258,0.144,0.409l-0.708,6.364c-0.021,0.19-0.15,0.353-0.332,0.416C65.425,74.094,65.369,74.103,65.313,74.103 z M57.352,64.934l7.58,7.58l0.566-5.092l-7.58-7.58L57.352,64.934z"/><path fill="#472b29" d="M32.605,32.941c-0.101,0-0.196-0.062-0.234-0.162l-0.605-1.604 c-0.049-0.129,0.017-0.273,0.146-0.322c0.13-0.049,0.274,0.017,0.322,0.146l0.605,1.604c0.049,0.129-0.017,0.273-0.146,0.322 C32.665,32.937,32.635,32.941,32.605,32.941z"/><path fill="#472b29" d="M34.369,37.613c-0.101,0-0.196-0.062-0.234-0.162l-1.191-3.155 c-0.049-0.129,0.017-0.273,0.146-0.321c0.13-0.051,0.274,0.016,0.322,0.146l1.191,3.155c0.049,0.129-0.017,0.273-0.146,0.321 C34.428,37.608,34.398,37.613,34.369,37.613z"/><path fill="#472b29" d="M59.676,64.048c-0.017,0-0.033-0.002-0.049-0.005c-0.136-0.027-0.223-0.159-0.196-0.294 l0.561-2.808c0.027-0.136,0.159-0.22,0.294-0.196c0.136,0.027,0.223,0.159,0.196,0.294l-0.561,2.808 C59.896,63.966,59.792,64.048,59.676,64.048z"/><path fill="#472b29" d="M58.99,67.474c-0.017,0-0.033-0.002-0.049-0.005c-0.136-0.027-0.224-0.159-0.196-0.294l0.362-1.808 c0.027-0.137,0.166-0.224,0.294-0.196c0.136,0.027,0.224,0.159,0.196,0.294l-0.362,1.808 C59.211,67.392,59.107,67.474,58.99,67.474z"/><path fill="#472b29" d="M60.86,69.344c-0.017,0-0.033-0.002-0.049-0.005c-0.136-0.027-0.224-0.159-0.196-0.294l1.247-6.233 c0.027-0.137,0.163-0.216,0.294-0.196c0.136,0.027,0.224,0.159,0.196,0.294l-1.247,6.233 C61.081,69.262,60.977,69.344,60.86,69.344z"/><path fill="#472b29" d="M62.73,71.214c-0.017,0-0.033-0.002-0.049-0.005c-0.136-0.027-0.224-0.159-0.196-0.294l0.795-3.976 c0.027-0.136,0.164-0.22,0.294-0.196c0.136,0.027,0.224,0.159,0.196,0.294l-0.795,3.976C62.951,71.132,62.847,71.214,62.73,71.214 z"/><polygon fill="#f1d2cd" points="59.657,56.632 66.021,55.925 74.506,64.41 68.142,65.117"/><path fill="#472b29" d="M68.142,65.617c-0.132,0-0.259-0.052-0.354-0.146l-8.485-8.485 c-0.136-0.136-0.182-0.338-0.118-0.519c0.063-0.182,0.226-0.311,0.417-0.332l6.364-0.707c0.148-0.015,0.301,0.035,0.409,0.144 l8.485,8.485c0.136,0.136,0.182,0.338,0.118,0.519c-0.063,0.182-0.226,0.311-0.417,0.332l-6.364,0.707 C68.179,65.616,68.161,65.617,68.142,65.617z M60.746,57.014l7.58,7.58l5.091-0.565l-7.579-7.58L60.746,57.014z"/><g><path fill="#472b29" d="M61.894,59.583c-0.117,0-0.221-0.082-0.245-0.201c-0.027-0.135,0.061-0.267,0.196-0.294 l2.807-0.562c0.128-0.024,0.267,0.061,0.294,0.196c0.027,0.135-0.061,0.267-0.196,0.294l-2.807,0.562 C61.927,59.581,61.91,59.583,61.894,59.583z"/></g><g><path fill="#472b29" d="M66.319,58.697c-0.117,0-0.221-0.082-0.245-0.201c-0.027-0.135,0.061-0.267,0.196-0.294 l1.808-0.361c0.132-0.021,0.267,0.06,0.294,0.196c0.027,0.135-0.061,0.267-0.196,0.294l-1.808,0.361 C66.352,58.695,66.336,58.697,66.319,58.697z"/></g><g><path fill="#472b29" d="M63.764,61.453c-0.117,0-0.221-0.082-0.245-0.201c-0.027-0.135,0.061-0.267,0.196-0.294 l6.234-1.247c0.128-0.025,0.267,0.061,0.294,0.196c0.027,0.135-0.061,0.267-0.196,0.294l-6.234,1.247 C63.797,61.451,63.78,61.453,63.764,61.453z"/></g><g><path fill="#472b29" d="M67.892,62.871c-0.117,0-0.221-0.082-0.245-0.201c-0.027-0.135,0.061-0.267,0.196-0.294 l3.976-0.795c0.128-0.021,0.267,0.06,0.294,0.196c0.027,0.135-0.061,0.267-0.196,0.294l-3.976,0.795 C67.925,62.869,67.908,62.871,67.892,62.871z"/></g></g></svg>