<svg xmlns="http://www.w3.org/2000/svg"  viewBox="0 0 100 100" width="100px" height="100px"><circle cx="13" cy="29" r="2" fill="#78a0cf"/><circle cx="77" cy="13" r="1" fill="#f1bc19"/><circle cx="50" cy="50" r="37" fill="#cee1f4"/><circle cx="83" cy="15" r="4" fill="#f1bc19"/><circle cx="87" cy="24" r="2" fill="#78a0cf"/><circle cx="81" cy="76" r="2" fill="#fbcd59"/><circle cx="15" cy="63" r="4" fill="#fbcd59"/><circle cx="25" cy="87" r="2" fill="#78a0cf"/><circle cx="20.5" cy="41.5" r="2.5" fill="#fff"/><circle cx="21" cy="67" r="1" fill="#f1bc19"/><circle cx="80" cy="34" r="1" fill="#fff"/><g><path fill="#bd977c" d="M23.7,54.3V35c-0.131-2.251,1.886-3.807,3.911-4.034c7.475-0.84,15.036-1.266,22.472-1.266 c7.421,0,14.927,0.424,22.311,1.26c2.022,0.229,4.037,1.788,3.908,3.999L76.3,54.3H23.7z"/><path fill="#472b29" d="M50.083,30.4c7.395,0,14.875,0.423,22.231,1.256c1.699,0.192,3.393,1.465,3.288,3.262L75.6,34.959 V35v18.6H24.4V35v-0.041l-0.002-0.041c-0.105-1.795,1.591-3.066,3.291-3.257C35.138,30.824,42.673,30.4,50.083,30.4 M50.083,29 c-7.507,0-15.024,0.424-22.551,1.27C24.992,30.555,22.854,32.508,23,35v20h54V35c0.146-2.491-1.989-4.448-4.528-4.735 C65.019,29.421,57.556,29,50.083,29L50.083,29z"/><rect width="48" height="21" x="26" y="44" fill="#836f61"/><path fill="#9f8066" d="M31.019,69.301c-1.816,0-3.563-0.639-4.919-1.8C24.575,66.196,23.7,64.337,23.7,62.4V50.537 c0-4.178,3.192-7.715,7.59-8.412C37.42,41.153,43.365,40.7,50,40.7s12.58,0.453,18.71,1.424c4.398,0.697,7.59,4.234,7.59,8.412 V62.4c0,1.937-0.875,3.796-2.399,5.101c-1.356,1.16-3.103,1.799-4.92,1.799c-0.405,0-0.814-0.032-1.216-0.095 c-5.246-0.821-8.007-1.22-13.426-1.313c-1.431-0.024-2.202-1.121-2.663-1.775c-0.623-0.884-0.949-1.245-1.675-1.245 c-0.774,0-1.208,0.423-1.948,1.321c-0.584,0.708-1.384,1.679-2.757,1.706c-5.406,0.107-8.124,0.533-13.059,1.306 C31.833,69.269,31.424,69.301,31.019,69.301z M50,45.3c-6.477,0-12.025,0.422-17.99,1.368c-2.15,0.341-3.71,1.968-3.71,3.869 V62.4c0,0.6,0.281,1.17,0.791,1.606c0.523,0.447,1.209,0.694,1.932,0.694c0.166,0,0.334-0.013,0.502-0.04 c4.723-0.739,7.574-1.186,12.62-1.334l0.315-0.009l0.202-0.242c1.088-1.305,2.678-2.802,5.338-2.802 c2.063,0,3.74,0.905,5.127,2.767l0.203,0.272l0.339,0.009c4.935,0.138,7.933,0.576,12.806,1.339 c0.169,0.026,0.337,0.039,0.503,0.039c0.723,0,1.408-0.246,1.931-0.694C71.419,63.57,71.7,63,71.7,62.4V50.537 c0-1.901-1.561-3.528-3.711-3.869C62.025,45.722,56.477,45.3,50,45.3z"/><path fill="#472b29" d="M50,41.4c6.597,0,12.507,0.45,18.6,1.416c4.056,0.643,7,3.89,7,7.721V62.4 c0,1.732-0.785,3.397-2.155,4.569c-1.229,1.052-2.815,1.631-4.465,1.632c-0.368,0-0.741-0.029-1.108-0.087 c-5.278-0.826-8.057-1.228-13.522-1.321c-0.993-0.017-1.561-0.709-2.103-1.479c-0.656-0.931-1.167-1.541-2.247-1.541 c-1.189,0-1.82,0.765-2.489,1.576c-0.668,0.81-1.256,1.431-2.231,1.45c-5.453,0.108-8.188,0.536-13.153,1.314 c-0.366,0.058-0.739,0.087-1.108,0.087c-1.65,0-3.235-0.58-4.464-1.632C25.185,65.797,24.4,64.132,24.4,62.4V50.537 c0-3.831,2.944-7.078,7-7.721C37.493,41.85,43.403,41.4,50,41.4 M31.022,65.4c0.203,0,0.408-0.016,0.611-0.048 c4.696-0.735,7.53-1.179,12.533-1.326l0.63-0.019l0.404-0.484c1.052-1.261,2.444-2.551,4.8-2.551 c2.433,0,3.771,1.418,4.566,2.485l0.405,0.544l0.678,0.019c4.892,0.136,7.872,0.572,12.719,1.331 c0.202,0.031,0.407,0.047,0.609,0.047c0.89,0,1.737-0.306,2.386-0.862c0.668-0.571,1.036-1.331,1.036-2.138V50.537 c0-2.248-1.809-4.166-4.301-4.561C62.097,45.024,56.515,44.6,50,44.6s-12.097,0.424-18.099,1.376 c-2.492,0.395-4.301,2.313-4.301,4.561V62.4c0,0.808,0.368,1.567,1.035,2.138C29.285,65.094,30.133,65.4,31.022,65.4 M50,40 c-6.673,0-12.653,0.456-18.819,1.433C26.44,42.184,23,46.013,23,50.537V62.4c0,2.142,0.964,4.195,2.645,5.633 c1.495,1.28,3.402,1.968,5.374,1.968c0.44,0,0.883-0.034,1.325-0.104c4.905-0.768,7.607-1.191,12.964-1.297 c1.696-0.033,2.651-1.193,3.284-1.96c0.723-0.877,0.973-1.066,1.408-1.066c0.331,0,0.465,0.043,1.103,0.947 c0.502,0.714,1.438,2.042,3.224,2.072c5.374,0.092,8.118,0.488,13.33,1.304C68.098,69.966,68.541,70,68.98,70 c1.974,0,3.879-0.688,5.375-1.968C76.036,66.595,77,64.542,77,62.4V50.537c0-4.524-3.44-8.353-8.181-9.104 C62.653,40.456,56.673,40,50,40L50,40z M31.022,64c-0.553,0-1.077-0.183-1.477-0.526C29.296,63.261,29,62.902,29,62.4V50.537 c0-1.555,1.312-2.891,3.12-3.178C38.048,46.419,43.562,46,50,46s11.952,0.419,17.88,1.359c1.808,0.287,3.12,1.623,3.12,3.178 V62.4c0,0.502-0.296,0.861-0.545,1.074C70.054,63.817,69.532,64,68.978,64c-0.13,0-0.262-0.01-0.395-0.031 c-4.937-0.773-7.921-1.208-12.895-1.347c-0.87-1.168-2.578-3.049-5.688-3.049c-3.162,0-4.951,1.945-5.875,3.054 c-5.089,0.149-8.031,0.61-12.708,1.342C31.284,63.99,31.153,64,31.022,64L31.022,64z"/><circle cx="37.5" cy="54.5" r="5.8" fill="#78a0cf"/><path fill="#472b29" d="M37.5,49.4c2.812,0,5.1,2.288,5.1,5.1s-2.288,5.1-5.1,5.1s-5.1-2.288-5.1-5.1 S34.688,49.4,37.5,49.4 M37.5,48c-3.59,0-6.5,2.91-6.5,6.5s2.91,6.5,6.5,6.5s6.5-2.91,6.5-6.5S41.09,48,37.5,48L37.5,48z"/><path fill="#472b29" d="M43.736,61.239c-0.065,0-0.131-0.026-0.18-0.077c-0.096-0.1-0.093-0.258,0.007-0.354 c1.733-1.666,2.687-3.906,2.687-6.309c0-0.138,0.112-0.25,0.25-0.25s0.25,0.112,0.25,0.25c0,2.54-1.009,4.909-2.84,6.669 C43.861,61.216,43.799,61.239,43.736,61.239z"/><path fill="#472b29" d="M46.032,51.878c-0.104,0-0.202-0.066-0.237-0.17c-0.128-0.38-0.285-0.758-0.467-1.122 c-0.474-0.946-1.11-1.792-1.89-2.512c-0.101-0.094-0.107-0.252-0.014-0.354c0.095-0.101,0.252-0.107,0.354-0.014 c0.824,0.762,1.496,1.655,1.998,2.656c0.192,0.385,0.358,0.784,0.494,1.187c0.044,0.131-0.026,0.272-0.157,0.316 C46.085,51.875,46.059,51.878,46.032,51.878z"/><path fill="#472b29" d="M52.781,56.992c-0.112,0-0.213-0.075-0.242-0.188c-0.192-0.749-0.289-1.523-0.289-2.304 c0-2.834,1.273-5.473,3.492-7.24c0.108-0.085,0.264-0.068,0.352,0.04c0.086,0.108,0.068,0.265-0.04,0.352 c-2.1,1.671-3.304,4.168-3.304,6.849c0,0.738,0.092,1.472,0.273,2.18c0.034,0.134-0.046,0.27-0.18,0.304 C52.822,56.989,52.802,56.992,52.781,56.992z"/><circle cx="61.5" cy="54.5" r="5.8" fill="#78a0cf"/><path fill="#472b29" d="M61.5,49.4c2.812,0,5.1,2.288,5.1,5.1s-2.288,5.1-5.1,5.1s-5.1-2.288-5.1-5.1 S58.688,49.4,61.5,49.4 M61.5,48c-3.59,0-6.5,2.91-6.5,6.5s2.91,6.5,6.5,6.5s6.5-2.91,6.5-6.5S65.09,48,61.5,48L61.5,48z"/><path fill="#472b29" d="M34.5,35H24c-0.276,0-0.5-0.224-0.5-0.5S23.724,34,24,34h10.5c0.276,0,0.5,0.224,0.5,0.5 S34.776,35,34.5,35z"/><g><path fill="#472b29" d="M45.5,35H38c-0.276,0-0.5-0.224-0.5-0.5S37.724,34,38,34h7.5c0.276,0,0.5,0.224,0.5,0.5 S45.776,35,45.5,35z"/></g><g><path fill="#472b29" d="M30.75,42.75c-0.276,0-0.5-0.224-0.5-0.5v-7.5c0-0.276,0.224-0.5,0.5-0.5s0.5,0.224,0.5,0.5v7.5 C31.25,42.526,31.026,42.75,30.75,42.75z"/></g><g><path fill="#472b29" d="M69.75,42.75c-0.276,0-0.5-0.224-0.5-0.5v-7.5c0-0.276,0.224-0.5,0.5-0.5s0.5,0.224,0.5,0.5v7.5 C70.25,42.526,70.026,42.75,69.75,42.75z"/></g><g><path fill="#472b29" d="M76.5,35H48c-0.276,0-0.5-0.224-0.5-0.5S47.724,34,48,34h28.5c0.276,0,0.5,0.224,0.5,0.5 S76.776,35,76.5,35z"/></g></g><g><path fill="#472b29" d="M39.362,52.025c-0.033,0-0.065-0.006-0.097-0.02C38.864,51.836,38.438,51.75,38,51.75 c-0.138,0-0.25-0.112-0.25-0.25s0.112-0.25,0.25-0.25c0.506,0,0.997,0.099,1.459,0.294c0.127,0.054,0.187,0.201,0.133,0.328 C39.552,51.968,39.459,52.025,39.362,52.025z"/></g><g><path fill="#472b29" d="M34.984,57.027c-0.085,0-0.168-0.044-0.215-0.123C34.429,56.33,34.25,55.671,34.25,55 c0-1.42,0.787-2.702,2.054-3.346c0.124-0.061,0.273-0.013,0.336,0.11c0.063,0.123,0.013,0.274-0.11,0.336 C35.432,52.658,34.75,53.769,34.75,55c0,0.582,0.155,1.152,0.449,1.65c0.07,0.119,0.031,0.272-0.088,0.342 C35.071,57.016,35.027,57.027,34.984,57.027z"/></g><g><path fill="#472b29" d="M63.362,52.025c-0.033,0-0.065-0.006-0.097-0.02C62.864,51.836,62.438,51.75,62,51.75 c-0.138,0-0.25-0.112-0.25-0.25s0.112-0.25,0.25-0.25c0.506,0,0.997,0.099,1.459,0.294c0.127,0.054,0.187,0.201,0.133,0.328 C63.552,51.968,63.459,52.025,63.362,52.025z"/></g><g><path fill="#472b29" d="M58.984,57.027c-0.085,0-0.168-0.044-0.215-0.123C58.429,56.33,58.25,55.671,58.25,55 c0-1.42,0.787-2.702,2.054-3.346c0.123-0.061,0.274-0.013,0.336,0.11s0.013,0.274-0.11,0.336C59.432,52.658,58.75,53.769,58.75,55 c0,0.582,0.155,1.152,0.449,1.65c0.07,0.119,0.031,0.272-0.088,0.342C59.071,57.016,59.027,57.027,58.984,57.027z"/></g></svg>