<svg xmlns="http://www.w3.org/2000/svg"  viewBox="0 0 100 100" width="200px" height="200px"><circle cx="13" cy="29" r="2" fill="#78a0cf"/><circle cx="77" cy="13" r="1" fill="#f1bc19"/><circle cx="49.743" cy="50" r="37" fill="#cee1f4"/><circle cx="83" cy="15" r="4" fill="#f1bc19"/><circle cx="87" cy="24" r="2" fill="#78a0cf"/><circle cx="81" cy="76" r="2" fill="#fbcd59"/><circle cx="15" cy="63" r="4" fill="#fbcd59"/><circle cx="25" cy="87" r="2" fill="#78a0cf"/><circle cx="18.5" cy="53.5" r="2.5" fill="#fff"/><circle cx="16" cy="47" r="1" fill="#f1bc19"/><circle cx="80" cy="34" r="1" fill="#fff"/><path fill="#472b29" d="M48.229,59h-5.556c-0.92,0-1.667,0.747-1.667,1.667v6.667c0,0.92,0.747,1.667,1.667,1.667h5.556 c0.92,0,1.667-0.747,1.667-1.667v-6.667C49.896,59.747,49.149,59,48.229,59z M48.229,67.333h-5.556v-6.667h5.556V67.333z"/><path fill="#472b29" d="M29.111,59h-4.444C23.747,59,23,59.747,23,60.667v2.222c0,0.92,0.747,1.667,1.667,1.667h4.444 v2.778h-4.444V66.5c0-0.46-0.373-0.833-0.833-0.833l0,0C23.373,65.667,23,66.04,23,66.5v0.833C23,68.253,23.747,69,24.667,69 h4.444c0.92,0,1.667-0.747,1.667-1.667v-2.778c0-0.92-0.747-1.667-1.667-1.667h-4.444v-2.222h4.444v0.278 c0,0.46,0.373,0.833,0.833,0.833l0,0c0.46,0,0.833-0.373,0.833-0.833v-0.278C30.778,59.747,30.031,59,29.111,59z"/><g><path fill="#472b29" d="M74.876,59h-4.458c-0.923,0-1.672,0.747-1.672,1.667v2.222c0,0.92,0.749,1.667,1.672,1.667h4.458 v2.778h-4.458V66.5c0-0.46-0.374-0.833-0.836-0.833l0,0c-0.461,0-0.836,0.373-0.836,0.833v0.833c0,0.92,0.749,1.667,1.672,1.667 h4.458c0.923,0,1.672-0.747,1.672-1.667v-2.778c0-0.92-0.749-1.667-1.672-1.667h-4.458v-2.222h4.458v0.278 c0,0.46,0.374,0.833,0.836,0.833l0,0c0.461,0,0.836-0.373,0.836-0.833v-0.278C76.548,59.747,75.799,59,74.876,59z"/></g><g><path fill="#472b29" d="M38.146,59h-5c-0.613,0-1.111,0.498-1.111,1.111v8.055c0,0.46,0.373,0.833,0.833,0.833 s0.833-0.374,0.833-0.833v-2.5h4.444c0.92,0,1.667-0.747,1.667-1.667v-3.333C39.813,59.747,39.066,59,38.146,59z M38.146,63.444 c0,0.307-0.249,0.556-0.556,0.556h-3.889v-3.333h3.889c0.307,0,0.556,0.249,0.556,0.556V63.444z"/></g><g><path fill="#472b29" d="M60.781,60.667h2.222v7.5c0,0.46,0.373,0.833,0.833,0.833l0,0c0.46,0,0.833-0.373,0.833-0.833v-7.5 h2.222c0.46,0,0.833-0.373,0.833-0.833l0,0c0-0.46-0.373-0.833-0.833-0.833h-6.111c-0.46,0-0.833,0.373-0.833,0.833l0,0 C59.948,60.293,60.321,60.667,60.781,60.667z"/></g><g><polygon fill="#ee3e54" points="32.133,33.278 35.037,28.784 54.535,28.784 51.633,33.278"/><path fill="#472b29" d="M53.25,29.483l-1.998,3.095H33.419l1.999-3.095H53.25 M54.903,28.083H34.928 c-0.172,0-0.332,0.088-0.423,0.233l-3.162,4.896c-0.097,0.154-0.103,0.349-0.014,0.508c0.088,0.16,0.255,0.258,0.438,0.258 h19.976c0.172,0,0.332-0.088,0.423-0.233l3.161-4.896c0.098-0.154,0.103-0.349,0.015-0.508 C55.252,28.182,55.084,28.083,54.903,28.083L54.903,28.083z"/><g><polygon fill="#ee3e54" points="24.306,54.242 30.758,44.258 25.408,44.258 28.213,39.726 47.718,39.726 44.914,44.258 35.623,44.258 31.96,49.812 47.413,49.812 60.217,29.459 75.824,54.238 70.95,54.238 67.657,49.269 58.282,49.269 61.024,45.731 65.471,45.731 60.225,37.195 49.466,54.242"/><path fill="#472b29" d="M60.217,30.773l14.339,22.765h-3.23l-2.878-4.342l-0.415-0.626h-0.752h-7.568l1.655-2.138h2.851 h2.504l-1.311-2.133l-4.002-6.512l-1.177-1.916l-1.2,1.901L49.08,53.542H25.592l5.056-7.824l1.396-2.16h-2.572h-2.809 l1.939-3.133h17.859l-1.938,3.133H36h-0.754l-0.415,0.629l-2.739,4.153l-1.432,2.171h2.6h13.766H47.8l0.412-0.654L60.217,30.773 M60.217,28.599c-0.166,0-0.332,0.072-0.423,0.218L47.026,49.112H33.261L36,44.958h9.025c0.172,0,0.332-0.088,0.423-0.234 l3.052-4.933c0.097-0.154,0.103-0.349,0.014-0.508c-0.088-0.16-0.255-0.258-0.438-0.258H28.102 c-0.172,0-0.332,0.088-0.423,0.234l-3.053,4.933c-0.097,0.154-0.103,0.349-0.014,0.508c0.088,0.159,0.255,0.258,0.438,0.258 h4.424l-5.957,9.218c-0.097,0.154-0.103,0.349-0.014,0.508c0.088,0.159,0.255,0.258,0.438,0.258h25.638 c0.172,0,0.332-0.088,0.423-0.234l10.217-16.189l4.002,6.512h-3.296c-0.172,0-0.332,0.088-0.423,0.234l-3.048,3.938 c-0.098,0.154-0.103,0.349-0.015,0.508c0.088,0.16,0.256,0.258,0.438,0.258h9.406l3.139,4.735 c0.091,0.146,0.251,0.234,0.423,0.234h5.345c0.182,0,0.35-0.099,0.438-0.258s0.083-0.354-0.015-0.508L60.64,28.817 C60.549,28.671,60.383,28.599,60.217,28.599L60.217,28.599z"/></g></g><g><path fill="#472b29" d="M58.806,64v-3.333c0-0.92-0.747-1.667-1.667-1.667h-5.278c-0.46,0-0.833,0.374-0.833,0.833v8.333 c0,0.46,0.373,0.833,0.833,0.833c0.46,0,0.833-0.374,0.833-0.833v-2.5h0.95l3.797,3.143C57.597,68.937,57.786,69,57.972,69 c0.239,0,0.478-0.104,0.642-0.302c0.293-0.354,0.243-0.88-0.111-1.173l-2.245-1.858h0.881C58.059,65.667,58.806,64.92,58.806,64z M56.583,64h-3.889v-3.333h3.889c0.307,0,0.556,0.249,0.556,0.556v2.222C57.139,63.751,56.89,64,56.583,64z"/></g><g><path fill="#472b29" d="M79.016,54.851c-0.165,0-0.326-0.082-0.422-0.231l-3.222-5.048c-0.148-0.233-0.08-0.542,0.153-0.69 c0.23-0.148,0.541-0.081,0.69,0.152l3.222,5.048c0.148,0.233,0.08,0.542-0.153,0.69C79.201,54.826,79.108,54.851,79.016,54.851z"/></g><g><path fill="#472b29" d="M74.509,47.788c-0.165,0-0.326-0.082-0.422-0.231l-4.067-6.373c-0.148-0.233-0.08-0.542,0.153-0.69 c0.231-0.148,0.541-0.081,0.69,0.152l4.067,6.373c0.148,0.233,0.08,0.542-0.153,0.69C74.694,47.763,74.602,47.788,74.509,47.788z"/></g><g><path fill="#472b29" d="M69.008,39.168c-0.165,0-0.326-0.082-0.422-0.231l-6.428-10.072 c-0.148-0.233-0.08-0.542,0.153-0.69c0.231-0.148,0.542-0.081,0.69,0.152l6.428,10.072c0.148,0.233,0.08,0.542-0.153,0.69 C69.193,39.143,69.101,39.168,69.008,39.168z"/></g><g><path fill="#472b29" d="M50.5,36H36.936c-0.276,0-0.5-0.224-0.5-0.5s0.224-0.5,0.5-0.5H50.5c0.276,0,0.5,0.224,0.5,0.5 S50.776,36,50.5,36z"/></g><g><path fill="#472b29" d="M34.303,36H29.5c-0.276,0-0.5-0.224-0.5-0.5s0.224-0.5,0.5-0.5h4.803c0.276,0,0.5,0.224,0.5,0.5 S34.58,36,34.303,36z"/></g></svg>