<svg xmlns="http://www.w3.org/2000/svg"  viewBox="0 0 100 100" width="200px" height="200px"><path fill="#ee3e54" d="M12.875,27.958c-1.105,0-2,0.895-2,2s0.895,2,2,2s2-0.895,2-2S13.98,27.958,12.875,27.958z"/><path fill="#f1bc19" d="M76.875,12.958c-0.551,0-1,0.449-1,1s0.449,1,1,1s1-0.449,1-1S77.426,12.958,76.875,12.958z"/><path fill="#fce0a2" d="M49.875,13.958c-20.434,0-37,16.566-37,37s16.566,37,37,37s37-16.566,37-37 S70.309,13.958,49.875,13.958z"/><path fill="#f1bc19" d="M82.875,11.958c-2.211,0-4,1.789-4,4s1.789,4,4,4s4-1.789,4-4S85.086,11.958,82.875,11.958z"/><path fill="#ee3e54" d="M86.875,22.958c-1.105,0-2,0.895-2,2s0.895,2,2,2s2-0.895,2-2S87.98,22.958,86.875,22.958z"/><path fill="#fbcd59" d="M80.875,74.958c-1.105,0-2,0.895-2,2s0.895,2,2,2s2-0.895,2-2S81.98,74.958,80.875,74.958z M14.875,59.958c-2.211,0-4,1.789-4,4c0,2.211,1.789,4,4,4s4-1.789,4-4C18.875,61.747,17.086,59.958,14.875,59.958z"/><path fill="#ee3e54" d="M24.875,85.958c-1.105,0-2,0.895-2,2s0.895,2,2,2s2-0.895,2-2S25.98,85.958,24.875,85.958z"/><path fill="#fff" d="M17.375,42.958c-1.379,0-2.5,1.121-2.5,2.5s1.121,2.5,2.5,2.5s2.5-1.121,2.5-2.5 S18.754,42.958,17.375,42.958z"/><path fill="#f1bc19" d="M20.875,65.958c-0.551,0-1,0.449-1,1s0.449,1,1,1s1-0.449,1-1S21.426,65.958,20.875,65.958z"/><path fill="#fff" d="M81.875,37.958c-0.551,0-1,0.449-1,1s0.449,1,1,1s1-0.449,1-1S82.426,37.958,81.875,37.958z"/><rect width="4" height="4" x="75" y="34" fill="#472b29"/><path fill="#472b29" d="M51.106,56H39.5V41.5h19.283l-1.665,9.577C56.622,53.929,54.093,56,51.106,56z M42.5,53h8.606 c1.525,0,2.81-1.025,3.056-2.438l1.055-6.063H42.5V53z"/><path d="M46,45c0,0,0.8,4,4,5.6"/><path fill="#472b29" d="M49.999,51.6c-0.15,0-0.303-0.034-0.446-0.106c-3.596-1.798-4.497-6.116-4.533-6.299 c-0.108-0.542,0.243-1.068,0.784-1.177c0.541-0.108,1.067,0.242,1.176,0.783c0.012,0.057,0.765,3.553,3.467,4.904 c0.494,0.247,0.694,0.848,0.447,1.342C50.719,51.398,50.366,51.6,49.999,51.6z"/><path fill="#a1a1ca" d="M27.855,71.3c-1.046,0-2.03-0.461-2.7-1.264c-0.678-0.813-0.958-1.879-0.768-2.925 c1.028-5.645,2.611-10.74,4.279-15.896c1.361-4.208-1.039-6.587-2.626-8.162c-0.188-0.186-0.368-0.365-0.534-0.538 c-0.357-0.293-0.697-0.701-0.739-0.913l1.817-9.903H76.3v10.059c0,0.613-0.239,1.19-0.673,1.624L74.78,44.23 c-0.69,0.69-1.608,1.07-2.584,1.07H47.883c-1.456,0-2.749,0.868-3.294,2.21c-2.012,4.951-2.692,10.777-3.413,16.945 c-0.145,1.237-0.292,2.495-0.452,3.773c-0.22,1.751-1.721,3.071-3.491,3.071H27.855z"/><path fill="#472b29" d="M75.6,32.4V41v0.563v0.196c0,0.426-0.166,0.827-0.468,1.129l-0.847,0.847 c-0.558,0.558-1.3,0.866-2.09,0.866H47.883c-1.742,0-3.29,1.039-3.943,2.647c-2.047,5.039-2.733,10.911-3.459,17.127 c-0.144,1.235-0.291,2.491-0.451,3.767c-0.176,1.401-1.378,2.458-2.796,2.458h-9.378c-0.838,0-1.626-0.369-2.163-1.012 c-0.545-0.653-0.769-1.51-0.616-2.351c1.021-5.605,2.596-10.675,4.256-15.806c1.494-4.617-1.194-7.282-2.8-8.875 c-0.183-0.182-0.359-0.355-0.52-0.524l-0.068-0.069l-0.068-0.056c-0.135-0.11-0.294-0.28-0.38-0.401l1.67-9.107H75.6 M77,31H26 l-1.938,10.563C24.062,42.257,25,43,25,43c1.557,1.627,4.379,3.738,3,8c-1.832,5.663-3.301,10.494-4.301,15.986 C23.224,69.592,25.206,72,27.855,72h9.378c2.122,0,3.921-1.579,4.185-3.684c0.967-7.706,1.45-14.711,3.819-20.542 C45.673,46.699,46.723,46,47.883,46h24.313c1.155,0,2.263-0.459,3.079-1.275l0.847-0.847C76.684,43.316,77,42.554,77,41.759 v-0.196V41V31L77,31z"/><rect width="4" height="2" x="31" y="30" fill="#472b29"/><rect width="4" height="2" x="70" y="30" fill="#472b29"/><g><path fill="#836f61" d="M29.686,68.5c-1.42,0-2.482-1.298-2.191-2.688c0.645-3.082,2-8.466,4.505-14.312 c3-7,9.208-4,8.208,0c-1.132,4.527-1.863,11.575-2.25,15.02c-0.127,1.131-1.083,1.98-2.221,1.98L29.686,68.5z"/></g><g><path fill="#836f61" d="M42,35.3c-0.717,0-1.3-0.583-1.3-1.3v-2.3h11.6V34c0,0.717-0.583,1.3-1.3,1.3H42z"/><path fill="#472b29" d="M51.6,32.4V34c0,0.331-0.269,0.6-0.6,0.6h-9c-0.331,0-0.6-0.269-0.6-0.6v-1.6H51.6 M53,31H40v3 c0,1.104,0.895,2,2,2h9c1.105,0,2-0.896,2-2V31L53,31z"/></g><g><path fill="#472b29" d="M32.5,42h-7c-0.276,0-0.5-0.224-0.5-0.5s0.224-0.5,0.5-0.5h7c0.276,0,0.5,0.224,0.5,0.5 S32.776,42,32.5,42z"/></g><g><path fill="#472b29" d="M51.5,42h-16c-0.276,0-0.5-0.224-0.5-0.5s0.224-0.5,0.5-0.5h16c0.276,0,0.5,0.224,0.5,0.5 S51.776,42,51.5,42z"/></g><g><path fill="#472b29" d="M28.5,39.292c-0.016,0-0.032-0.001-0.048-0.005c-0.136-0.026-0.224-0.157-0.198-0.293l0.958-4.958 c0.026-0.136,0.157-0.226,0.293-0.198c0.136,0.026,0.224,0.157,0.198,0.293l-0.958,4.958C28.722,39.209,28.618,39.292,28.5,39.292z"/></g><g><path fill="#472b29" d="M30.792,39.292c-0.016,0-0.032-0.001-0.048-0.005c-0.136-0.026-0.224-0.157-0.198-0.293l0.958-4.958 c0.026-0.136,0.16-0.226,0.293-0.198c0.136,0.026,0.224,0.157,0.198,0.293l-0.958,4.958C31.014,39.209,30.909,39.292,30.792,39.292 z"/></g><g><path fill="#472b29" d="M33.084,39.292c-0.016,0-0.032-0.001-0.048-0.005c-0.136-0.026-0.224-0.157-0.198-0.293l0.958-4.958 c0.026-0.136,0.158-0.226,0.293-0.198c0.136,0.026,0.224,0.157,0.198,0.293l-0.958,4.958 C33.306,39.209,33.201,39.292,33.084,39.292z"/></g><g><path fill="#472b29" d="M35.375,39.292c-0.016,0-0.032-0.001-0.048-0.005c-0.136-0.026-0.224-0.157-0.198-0.293l0.958-4.958 c0.026-0.136,0.157-0.226,0.293-0.198c0.136,0.026,0.224,0.157,0.198,0.293l-0.958,4.958 C35.597,39.209,35.493,39.292,35.375,39.292z"/></g><g><path fill="#472b29" d="M76.5,42h-22c-0.276,0-0.5-0.224-0.5-0.5s0.224-0.5,0.5-0.5h22c0.276,0,0.5,0.224,0.5,0.5 S76.776,42,76.5,42z"/></g><g><path fill="#472b29" d="M35.737,69h-6.052c-0.831,0-1.606-0.369-2.128-1.012c-0.52-0.64-0.721-1.471-0.552-2.279 c0.31-1.477,0.68-3.004,1.102-4.54c0.072-0.267,0.349-0.423,0.614-0.35c0.267,0.073,0.423,0.348,0.35,0.615 c-0.416,1.515-0.782,3.022-1.087,4.479c-0.107,0.512,0.021,1.038,0.35,1.443C28.665,67.766,29.158,68,29.686,68h6.052 c0.885,0,1.626-0.66,1.724-1.536l0.094-0.838c0.417-3.751,1.114-10.029,2.168-14.247c0.422-1.688-0.624-2.999-1.875-3.42 c-1.525-0.514-3.854,0.156-5.389,3.739c-0.109,0.254-0.403,0.371-0.656,0.262c-0.254-0.109-0.372-0.403-0.263-0.656 c1.803-4.208,4.697-4.942,6.627-4.292c1.934,0.652,3.02,2.634,2.525,4.611c-1.038,4.152-1.73,10.389-2.145,14.115l-0.093,0.839 C38.3,67.958,37.132,69,35.737,69z"/></g><g><path fill="#472b29" d="M29.405,59.033c-0.049,0-0.1-0.008-0.15-0.023c-0.263-0.083-0.41-0.364-0.327-0.627 c0.536-1.705,1.129-3.392,1.766-5.014c0.101-0.257,0.39-0.384,0.648-0.283c0.257,0.101,0.384,0.391,0.283,0.648 c-0.627,1.601-1.214,3.266-1.742,4.948C29.815,58.896,29.618,59.033,29.405,59.033z"/></g></svg>