<svg xmlns="http://www.w3.org/2000/svg"  viewBox="0 0 100 100" width="200px" height="200px"><path fill="#ee3e54" d="M13,27c-1.105,0-2,0.895-2,2s0.895,2,2,2s2-0.895,2-2S14.105,27,13,27z"/><path fill="#f1bc19" d="M77,12c-0.551,0-1,0.449-1,1s0.449,1,1,1s1-0.449,1-1S77.551,12,77,12z"/><path fill="#fce0a2" d="M50,13c-20.434,0-37,16.566-37,37s16.566,37,37,37s37-16.566,37-37S70.434,13,50,13z"/><path fill="#f1bc19" d="M83,11c-2.211,0-4,1.789-4,4s1.789,4,4,4s4-1.789,4-4S85.211,11,83,11z"/><path fill="#ee3e54" d="M87,22c-1.105,0-2,0.895-2,2s0.895,2,2,2s2-0.895,2-2S88.105,22,87,22z"/><path fill="#fbcd59" d="M81,74c-1.105,0-2,0.895-2,2s0.895,2,2,2s2-0.895,2-2S82.105,74,81,74z M15,59 c-2.211,0-4,1.789-4,4s1.789,4,4,4s4-1.789,4-4S17.211,59,15,59z"/><path fill="#ee3e54" d="M25,85c-1.105,0-2,0.895-2,2s0.895,2,2,2s2-0.895,2-2S26.105,85,25,85z"/><path fill="#fff" d="M21.5,34c-1.379,0-2.5,1.121-2.5,2.5s1.121,2.5,2.5,2.5s2.5-1.121,2.5-2.5S22.879,34,21.5,34z"/><path fill="#f1bc19" d="M21,66c-0.551,0-1,0.449-1,1s0.449,1,1,1s1-0.449,1-1S21.551,66,21,66z"/><path fill="#fff" d="M80,33c-0.551,0-1,0.449-1,1s0.449,1,1,1s1-0.449,1-1S80.551,33,80,33z"/><path fill="#8889b9" d="M50.5,72.3c-1.648,0-3.245-0.332-4.747-0.986L27.38,63.308c-0.417-0.181-0.668-0.55-0.673-0.986 l-0.003-8.883c0.036,0.008,0.075,0.021,0.117,0.04l18.373,8.005c1.68,0.732,3.465,1.103,5.306,1.103 c1.842,0,3.627-0.371,5.306-1.103l18.374-8.005c0.042-0.018,0.081-0.031,0.117-0.04v8.643l-0.004,0.241 c-0.004,0.435-0.256,0.804-0.673,0.985l-18.373,8.005C53.745,71.968,52.147,72.3,50.5,72.3z"/><path fill="#472b29" d="M27.403,54.496l17.511,7.629c1.768,0.771,3.647,1.162,5.586,1.162s3.818-0.391,5.586-1.161 l17.511-7.63v7.561l-0.003,0.257c-0.002,0.162-0.087,0.28-0.253,0.353l-18.374,8.005C53.554,71.288,52.051,71.6,50.5,71.6 s-3.054-0.313-4.467-0.928l-18.374-8.005c-0.166-0.072-0.251-0.191-0.253-0.353l-0.003-0.216V54.496 M74.373,52.729 c-0.136,0-0.294,0.029-0.473,0.107l-18.374,8.005c-1.598,0.697-3.312,1.045-5.026,1.045s-3.428-0.348-5.026-1.045L27.1,52.837 c-0.179-0.078-0.337-0.107-0.473-0.107c-0.413,0-0.624,0.271-0.624,0.271v9.331h0.003c0.008,0.654,0.37,1.305,1.094,1.62 l18.374,8.005C47.072,72.652,48.786,73,50.5,73s3.428-0.348,5.026-1.044L73.9,63.95c0.724-0.315,1.086-0.966,1.094-1.62h0.003V53 C74.997,53,74.786,52.729,74.373,52.729L74.373,52.729z"/><path fill="#472b29" d="M67.326,63.7c-0.095,0-0.185-0.054-0.227-0.145c-0.059-0.125-0.004-0.274,0.122-0.332l4.47-2.063 c0.121-0.058,0.273-0.003,0.331,0.122c0.059,0.125,0.004,0.274-0.122,0.332l-4.47,2.063C67.397,63.692,67.361,63.7,67.326,63.7z"/><g><path fill="#472b29" d="M50.5,70.249c-1.75,0-3.5-0.376-5.131-1.129c-0.125-0.058-0.18-0.206-0.122-0.332 c0.059-0.126,0.206-0.18,0.332-0.122c3.127,1.443,6.714,1.443,9.843,0l9.068-4.184c0.121-0.058,0.272-0.003,0.331,0.122 s0.004,0.274-0.122,0.332l-9.068,4.184C54.001,69.873,52.25,70.249,50.5,70.249z"/></g><g><path fill="#472b29" d="M42.453,67.75c-0.035,0-0.071-0.007-0.105-0.023l-8.456-3.901c-0.125-0.058-0.18-0.206-0.122-0.332 c0.058-0.125,0.207-0.18,0.332-0.122l8.456,3.901c0.125,0.058,0.18,0.206,0.122,0.332C42.638,67.696,42.547,67.75,42.453,67.75z"/></g><g><path fill="#472b29" d="M31.785,62.828c-0.035,0-0.071-0.007-0.105-0.023l-2.898-1.337c-0.125-0.058-0.18-0.206-0.123-0.332 c0.058-0.126,0.206-0.18,0.332-0.122l2.898,1.337c0.125,0.058,0.18,0.206,0.123,0.332C31.969,62.774,31.879,62.828,31.785,62.828z"/></g><g><path fill="#8889b9" d="M50.5,62.942c-1.648,0-3.246-0.331-4.747-0.985l-18.374-7.996c-0.426-0.185-0.68-0.559-0.679-0.998 c0-0.44,0.255-0.812,0.681-0.997l16.146-6.99c1.471-0.637,3.069-1.068,4.75-1.281l4.534,0.005 c1.593,0.208,3.191,0.639,4.662,1.276l16.146,6.99c0.427,0.185,0.682,0.557,0.682,0.997c0.001,0.44-0.253,0.813-0.679,0.998 l-18.374,7.996C53.746,62.61,52.148,62.942,50.5,62.942z"/><path fill="#472b29" d="M52.721,44.4c1.584,0.209,3.089,0.618,4.474,1.218l16.146,6.99c0.214,0.093,0.26,0.245,0.26,0.355 c0,0.111-0.045,0.262-0.259,0.355l-18.374,7.997c-1.413,0.615-2.916,0.926-4.468,0.926s-3.055-0.312-4.468-0.926l-18.374-7.997 c-0.214-0.093-0.259-0.245-0.259-0.355c0-0.111,0.045-0.263,0.26-0.355l16.145-6.99c1.385-0.6,2.89-1.009,4.474-1.218H52.721 M52.811,43h-4.622c-1.689,0.214-3.355,0.647-4.94,1.333l-16.146,6.99c-1.47,0.636-1.472,2.64-0.003,3.279l18.374,7.997 c1.597,0.695,3.312,1.042,5.026,1.042s3.429-0.348,5.026-1.042L73.9,54.603c1.468-0.639,1.466-2.643-0.003-3.279l-16.146-6.99 C56.166,43.647,54.5,43.214,52.811,43L52.811,43z"/></g><g><path fill="#472b29" d="M56,59.099c-0.096,0-0.187-0.055-0.229-0.148c-0.056-0.126,0.001-0.274,0.127-0.33l4-1.782 c0.127-0.056,0.273,0,0.33,0.127c0.056,0.126-0.001,0.274-0.127,0.33l-4,1.782C56.068,59.092,56.034,59.099,56,59.099z M62.196,56.338c-0.096,0-0.187-0.055-0.229-0.148c-0.056-0.126,0.001-0.274,0.127-0.33l6.868-3.061l0.101-0.301l-0.102,0.229 l-2.035-0.902c-0.126-0.056-0.183-0.204-0.127-0.33c0.056-0.127,0.203-0.183,0.33-0.127l2.035,0.902 c0.197,0.088,0.32,0.277,0.32,0.494c0,0.216-0.122,0.405-0.319,0.493l-6.868,3.061C62.265,56.33,62.23,56.338,62.196,56.338z M65.511,51.172c-0.034,0-0.068-0.007-0.102-0.021l-3.783-1.677c-0.126-0.056-0.183-0.204-0.127-0.33 c0.056-0.127,0.203-0.183,0.33-0.127l3.783,1.677c0.126,0.056,0.183,0.204,0.127,0.33C65.698,51.116,65.606,51.172,65.511,51.172z M60.161,48.8c-0.034,0-0.068-0.007-0.102-0.021l-2.348-1.041c-0.126-0.056-0.183-0.204-0.127-0.33 c0.056-0.127,0.204-0.183,0.33-0.127l2.348,1.041c0.126,0.056,0.183,0.204,0.127,0.33C60.349,48.745,60.257,48.8,60.161,48.8z"/></g><g><ellipse cx="36.25" cy="53" fill="#f4989e" rx="2.75" ry="1.5"/><path fill="#472b29" d="M36.25,55C34.397,55,33,54.14,33,53s1.397-2,3.25-2s3.25,0.86,3.25,2S38.103,55,36.25,55z M36.25,52 C34.876,52,34,52.592,34,53s0.876,1,2.25,1s2.25-0.592,2.25-1S37.624,52,36.25,52z"/></g><g><path fill="#edf7f5" d="M50.5,55.3c-1.544,0-2.8-1.256-2.8-2.8V36.2h5.6v16.3C53.3,54.044,52.044,55.3,50.5,55.3z"/><path fill="#472b29" d="M52.6,36.9v15.6c0,1.158-0.942,2.1-2.1,2.1s-2.1-0.942-2.1-2.1V36.9H52.6 M54,35.5h-7v17 c0,1.933,1.567,3.5,3.5,3.5s3.5-1.567,3.5-3.5V35.5L54,35.5z"/></g><g><circle cx="50.5" cy="32.5" r="6.8" fill="#ee3e54"/><path fill="#472b29" d="M50.5,26.4c3.364,0,6.1,2.736,6.1,6.1s-2.736,6.1-6.1,6.1s-6.1-2.736-6.1-6.1 S47.136,26.4,50.5,26.4 M50.5,25c-4.142,0-7.5,3.358-7.5,7.5s3.358,7.5,7.5,7.5s7.5-3.358,7.5-7.5S54.642,25,50.5,25L50.5,25z"/></g><g><path fill="#472b29" d="M53.359,35.547c-0.063,0-0.126-0.024-0.175-0.071c-0.099-0.097-0.101-0.255-0.004-0.354 c0.689-0.704,1.069-1.635,1.069-2.622c0-0.845-0.274-1.643-0.793-2.306c-0.085-0.109-0.065-0.266,0.043-0.351 c0.109-0.085,0.265-0.066,0.352,0.043c0.588,0.752,0.898,1.656,0.898,2.614c0,1.118-0.431,2.174-1.212,2.972 C53.489,35.522,53.424,35.547,53.359,35.547z"/></g><g><path fill="#472b29" d="M48.607,29.225c-0.089,0-0.175-0.048-0.22-0.132c-0.065-0.122-0.02-0.273,0.102-0.339 c1.047-0.564,2.337-0.657,3.454-0.254c0.13,0.047,0.197,0.19,0.15,0.32c-0.047,0.13-0.189,0.197-0.32,0.15 c-0.985-0.355-2.124-0.273-3.047,0.224C48.688,29.216,48.647,29.225,48.607,29.225z"/></g></svg>