<svg xmlns="http://www.w3.org/2000/svg"  viewBox="0 0 100 100" width="200px" height="200px"><path fill="#78a0cf" d="M13 27A2 2 0 1 0 13 31A2 2 0 1 0 13 27Z"/><path fill="#f1bc19" d="M77 12A1 1 0 1 0 77 14A1 1 0 1 0 77 12Z"/><path fill="#cee1f4" d="M50 13A37 37 0 1 0 50 87A37 37 0 1 0 50 13Z"/><path fill="#f1bc19" d="M83 11A4 4 0 1 0 83 19A4 4 0 1 0 83 11Z"/><path fill="#78a0cf" d="M87 22A2 2 0 1 0 87 26A2 2 0 1 0 87 22Z"/><path fill="#fbcd59" d="M81 74A2 2 0 1 0 81 78 2 2 0 1 0 81 74zM15 59A4 4 0 1 0 15 67 4 4 0 1 0 15 59z"/><path fill="#78a0cf" d="M25 85A2 2 0 1 0 25 89A2 2 0 1 0 25 85Z"/><path fill="#fff" d="M18.5 51A2.5 2.5 0 1 0 18.5 56A2.5 2.5 0 1 0 18.5 51Z"/><path fill="#f1bc19" d="M21 66A1 1 0 1 0 21 68A1 1 0 1 0 21 66Z"/><path fill="#fff" d="M80 33A1 1 0 1 0 80 35A1 1 0 1 0 80 33Z"/><g><path fill="#f2df5e" d="M28.733,68.066c-3.051,0-5.533-2.482-5.533-5.533v-2.199h-2.9v-5.268h2.9V42.934h-2.9v-5.268h2.9 v-2.199c0-3.051,2.482-5.533,5.533-5.533h42.533c3.051,0,5.533,2.482,5.533,5.533v2.199h2.9v5.268h-2.9v12.133h2.9v5.268h-2.9 v2.199c0,3.051-2.482,5.533-5.533,5.533H28.733z"/><path fill="#472b29" d="M71.267,30.633c2.669,0,4.833,2.164,4.833,4.833v2.9H79v3.867h-2.9v13.533H79v3.867h-2.9v2.9 c0,2.669-2.164,4.833-4.833,4.833H28.733c-2.669,0-4.833-2.164-4.833-4.833v-2.9H21v-3.867h2.9V42.233H21v-3.867h2.9v-2.9 c0-2.669,2.164-4.833,4.833-4.833H71.267 M71.267,29.233H28.733c-3.437,0-6.233,2.796-6.233,6.233v1.5H21h-1.4v1.4v3.867v1.4H21 h1.5v10.733H21h-1.4v1.4v3.867v1.4H21h1.5v1.5c0,3.437,2.796,6.233,6.233,6.233h42.533c3.437,0,6.233-2.796,6.233-6.233v-1.5H79 h1.4v-1.4v-3.867v-1.4H79h-1.5V43.633H79h1.4v-1.4v-3.867v-1.4H79h-1.5v-1.5C77.5,32.03,74.704,29.233,71.267,29.233 L71.267,29.233z"/></g><g><path fill="#f2df5e" d="M62.083,60.333c-1.165,0-2.149-0.984-2.149-2.149V39.816c0-1.165,0.984-2.149,2.149-2.149h4.834 c1.165,0,2.149,0.984,2.149,2.149v6.017h-4.3v-3.866h-0.533v4.399h2.684c1.165,0,2.149,0.985,2.149,2.15v9.667 c0,1.165-0.984,2.149-2.149,2.149H62.083z M64.767,56.033v-5.366h-0.533v5.366H64.767z M52.417,60.333 c-1.186,0-2.15-0.964-2.15-2.149v-7.517h-0.533v7.517c0,1.165-0.985,2.149-2.15,2.149H42.75c-1.166,0-2.15-0.984-2.15-2.149 V37.667H44.9v18.366h0.533V37.667h4.3v8.699h0.533v-6.55c0-1.186,0.965-2.149,2.15-2.149h4.833c1.186,0,2.15,0.964,2.15,2.149 V46.1c0,0.764-0.327,1.452-0.848,1.934c0.521,0.481,0.848,1.17,0.848,1.934v8.217c0,1.186-0.965,2.149-2.15,2.149H52.417z M55.1,56.033v-5.366h-0.533v5.366H55.1z M55.1,46.366v-4.399h-0.533v4.399H55.1z M30.934,60.333v-8.699h-0.967v-4.301h0.967 v-7.517c0-1.165,0.984-2.149,2.149-2.149h4.834c1.165,0,2.149,0.984,2.149,2.149v9.667c0,1.165-0.984,2.15-2.149,2.15h-2.684 v8.699H30.934z M35.767,47.333v-5.366h-0.533v5.366H35.767z"/><path fill="#472b29" d="M66.917,38.367c0.773,0,1.45,0.677,1.45,1.45v5.317h-2.9v-3.867h-1.933v15.467h1.933v-6.767H64.5 v-2.9h2.417c0.773,0,1.45,0.677,1.45,1.45v9.667c0,0.773-0.677,1.45-1.45,1.45h-4.833c-0.773,0-1.45-0.677-1.45-1.45v-8.217V46.1 v-6.283c0-0.773,0.677-1.45,1.45-1.45H66.917 M57.25,38.367c0.797,0,1.45,0.653,1.45,1.45V46.1c0,1.068-0.865,1.933-1.933,1.933 c1.068,0,1.933,0.865,1.933,1.934v8.217c0,0.797-0.653,1.45-1.45,1.45h-4.833c-0.798,0-1.45-0.653-1.45-1.45v-8.217H50v-2.9h0.967 v-7.25c0-0.797,0.652-1.45,1.45-1.45H57.25 M53.867,47.067H55.8v-5.8h-1.933V47.067 M53.867,56.733H55.8v-6.767h-1.933V56.733 M49.033,38.367v1.45v18.367c0,0.773-0.677,1.45-1.45,1.45H42.75c-0.773,0-1.45-0.677-1.45-1.45v-8.7v-9.667v-1.45h2.9v18.367 h1.933V38.367H49.033 M37.917,38.367c0.773,0,1.45,0.677,1.45,1.45v9.667c0,0.773-0.677,1.45-1.45,1.45h-1.45h-1.933v8.7h-2.9 v-8.7h-0.967v-2.9h0.967v-8.217c0-0.773,0.677-1.45,1.45-1.45H37.917 M34.533,48.033h1.933v-6.767h-1.933V48.033 M66.917,36.967 h-4.833c-1,0-1.9,0.547-2.41,1.352c-0.503-0.811-1.401-1.352-2.424-1.352h-4.833c-0.77,0-1.47,0.307-1.983,0.805v-0.805h-1.4h-2.9 H45.6h-1.4h-2.9h-1.4v0.825c-0.517-0.507-1.221-0.825-1.983-0.825h-4.833c-1.545,0-2.85,1.305-2.85,2.85v6.817h-0.967v1.4v2.9v1.4 h0.967v7.3v1.4h1.4h2.9h1.4v-1.4v-7.3h0.533h1.45c0.762,0,1.466-0.318,1.983-0.825v6.675c0,1.545,1.305,2.85,2.85,2.85h4.833 c1,0,1.9-0.547,2.41-1.352c0.503,0.811,1.401,1.352,2.424,1.352h4.833c1.022,0,1.921-0.541,2.424-1.352 c0.51,0.805,1.41,1.352,2.41,1.352h4.833c1.545,0,2.85-1.305,2.85-2.85v-9.667c0-0.762-0.318-1.466-0.825-1.983h0.825v-1.4v-5.317 C69.767,38.272,68.462,36.967,66.917,36.967L66.917,36.967z"/></g><g><path fill="#472b29" d="M63.5,34h-6.417c-0.276,0-0.5-0.224-0.5-0.5s0.224-0.5,0.5-0.5H63.5c0.276,0,0.5,0.224,0.5,0.5 S63.776,34,63.5,34z"/></g><g><path fill="#472b29" d="M70.842,65H35.5c-0.276,0-0.5-0.224-0.5-0.5s0.224-0.5,0.5-0.5h35.342 C72.032,64,73,63.032,73,61.842V36.158C73,34.968,72.032,34,70.842,34H66.5c-0.276,0-0.5-0.224-0.5-0.5s0.224-0.5,0.5-0.5h4.342 C72.583,33,74,34.417,74,36.158v25.684C74,63.583,72.583,65,70.842,65z"/></g><g><path fill="#472b29" d="M29.158,65C27.417,65,26,63.583,26,61.842V36.158C26,34.417,27.417,33,29.158,33H53.5 c0.276,0,0.5,0.224,0.5,0.5S53.776,34,53.5,34H29.158C27.968,34,27,34.968,27,36.158v25.684C27,63.032,27.968,64,29.158,64 c0.276,0,0.5,0.224,0.5,0.5S29.435,65,29.158,65z"/></g></svg>