<svg xmlns="http://www.w3.org/2000/svg"  viewBox="0 0 100 100" width="200px" height="200px"><circle cx="13" cy="29" r="2" fill="#ee3e54"/><circle cx="77" cy="13" r="1" fill="#f1bc19"/><circle cx="50" cy="50" r="37" fill="#fce0a2"/><circle cx="83" cy="15" r="4" fill="#f1bc19"/><circle cx="87" cy="24" r="2" fill="#ee3e54"/><circle cx="81" cy="76" r="2" fill="#fbcd59"/><circle cx="15" cy="63" r="4" fill="#fbcd59"/><circle cx="25" cy="87" r="2" fill="#ee3e54"/><circle cx="18.5" cy="53.5" r="2.5" fill="#fff"/><circle cx="21" cy="67" r="1" fill="#f1bc19"/><circle cx="80" cy="34" r="1" fill="#fff"/><path fill="#c0d078" d="M70.5,34.5c-3-1-8-1-6,3C67.108,42.715,70.5,34.5,70.5,34.5z"/><path fill="#472b29" d="M66.461,39.733c-0.931,0-1.741-0.676-2.408-2.01c-0.853-1.707-0.476-2.706-0.01-3.244 c1.313-1.513,4.675-1.101,6.615-0.454c0.131,0.044,0.239,0.14,0.296,0.266s0.061,0.271,0.007,0.399 c-0.209,0.507-2.113,4.958-4.431,5.041C66.507,39.733,66.484,39.733,66.461,39.733z M67.156,34.442 c-1.042,0-1.937,0.207-2.358,0.693c-0.388,0.447-0.338,1.168,0.149,2.142c0.493,0.986,1.043,1.476,1.547,1.456 c1.148-0.041,2.549-2.249,3.321-3.917C68.949,34.579,68.003,34.442,67.156,34.442z"/><path fill="#9f8066" d="M70.855,74.225c-7.129-0.508-11.847-3.489-14.614-6.008c-0.287-0.261-0.658-0.406-1.044-0.406 c-0.537,0-1.018,0.273-1.286,0.731c-1.708,2.92-4.153,4.612-8.089,5.56c0.022-0.167,0.045-0.33,0.067-0.49 c0.289-2.093,0.518-3.746-0.174-5.696c-0.112-0.32-0.419-0.537-0.764-0.537h-0.264l-0.27,0.2 c-3.882,3.402-7.058,3.692-13.272,3.717c0.284-0.202,0.566-0.401,0.844-0.597c4.137-2.919,7.71-5.44,7.71-11.136v-4.963 l-0.598-0.088c-2.044-0.301-3.709-0.816-6.147-2.548c-2.544-2.573-2.839-5.685-3.125-8.694c-0.13-1.373-0.254-2.682-0.582-3.909 c1.669,1.089,2.374,2.805,3.058,4.471c0.868,2.112,1.764,4.295,4.557,4.853l2.837,0.318V34.948l-0.01-0.065 c-0.196-3.21-0.911-6.684-2.227-10.761c2.812,2.579,4.489,5.447,5.749,9.678c0.104,0.346,0.416,0.577,0.775,0.577 c0.383,0,0.706-0.261,0.785-0.635c0.572-2.711,0.663-5.345,0.271-8.527c2.443,2.97,3.931,6.093,4.428,9.307 c0.061,0.394,0.391,0.679,0.784,0.679c0.378,0,0.707-0.273,0.78-0.649c0.914-4.75,3.196-8.893,5.612-12.449 c-1.138,5.871-1.564,10.107-1.375,13.509c0.022,0.422,0.373,0.753,0.798,0.753c0.321,0,0.612-0.19,0.742-0.484 c1.713-3.873,4-6.448,6.81-7.676c-1.174,2.567-2.261,5.902-2.323,8.779l0,12.729l5.393-1.541c2.889-1.233,4.871-2.65,6.446-4.627 c-0.382,3.765-1.483,6.401-4.978,8.342l-6.86,3.811v4.439C61.3,65.619,65.723,70.154,70.855,74.225z"/><path fill="#472b29" d="M55.332,25.498c-0.673,4.167-0.909,7.419-0.757,10.155c0.044,0.792,0.702,1.413,1.497,1.413 c0.598,0,1.14-0.353,1.382-0.9c1.269-2.87,2.855-4.99,4.735-6.338C61.328,32.098,60.65,34.679,60.6,37v11.786v1.856l1.785-0.51 l4.5-1.286l0.085-0.024l0.082-0.035c2.059-0.882,3.686-1.874,5.042-3.102c-0.564,2.418-1.735,4.181-4.274,5.592l-6.5,3.611 l-0.72,0.4v0.824v4.027c0,5.083,3.533,9.325,7.979,13.123c-5.645-0.896-9.495-3.403-11.866-5.562 c-0.416-0.379-0.955-0.588-1.516-0.588c-0.788,0-1.494,0.403-1.89,1.078c-1.476,2.524-3.466,4.035-6.649,4.968 c0.261-1.934,0.402-3.544-0.283-5.473c-0.212-0.601-0.785-1.005-1.424-1.005c-0.367,0-0.721,0.133-0.995,0.374 c-3.225,2.826-5.848,3.399-10.573,3.516c3.73-2.668,7.016-5.436,7.016-11.006v-4.359v-1.209l-1.196-0.176 c-1.925-0.283-3.498-0.768-5.794-2.391c-2.33-2.387-2.599-5.224-2.883-8.225c-0.056-0.592-0.113-1.191-0.189-1.788 c0.547,0.799,0.928,1.727,1.321,2.683c0.894,2.176,1.906,4.642,5.066,5.274l0.06,0.012l0.06,0.007l2,0.222l1.555,0.172v-1.564 l-0.001-13.263l-0.001-0.025l-0.002-0.025c-0.157-2.537-0.616-5.194-1.417-8.146c1.576,1.98,2.675,4.26,3.561,7.235 c0.191,0.646,0.773,1.079,1.446,1.079c0.718,0,1.323-0.49,1.471-1.191c0.433-2.052,0.598-4.058,0.496-6.272 c1.509,2.273,2.457,4.621,2.827,7.016c0.114,0.737,0.735,1.272,1.476,1.272c0.714,0,1.331-0.512,1.467-1.219 C52.37,31.322,53.728,28.26,55.332,25.498 M57.795,19.345c-0.029,0-0.059,0.012-0.08,0.042 c-3.396,4.635-6.296,9.468-7.366,15.032c-0.011,0.055-0.052,0.083-0.092,0.083c-0.042,0-0.084-0.029-0.092-0.086 c-0.633-4.092-2.749-7.813-5.922-11.162c-0.021-0.022-0.047-0.032-0.073-0.032c-0.062,0-0.121,0.056-0.109,0.128 c0.693,4.062,0.69,7.107,0.027,10.248c-0.011,0.054-0.056,0.081-0.101,0.081c-0.044,0-0.089-0.026-0.104-0.077 c-1.471-4.94-3.573-8.261-7.602-11.385c-0.02-0.015-0.042-0.022-0.063-0.022c-0.066,0-0.127,0.064-0.101,0.137 c1.51,4.271,2.624,8.506,2.882,12.665c0,0.003,0,0.006,0,0.009l0,13.218L37,48c-4.702-0.94-3.214-7.186-8.008-9.591 c-0.064-0.032-0.129-0.046-0.192-0.046c-0.277,0-0.511,0.281-0.41,0.58c1.344,3.958-0.049,9.398,4.11,13.558 c2.564,1.832,4.376,2.393,6.5,2.705v4.359c0,6.328-4.72,8.478-9.742,12.241C29.177,71.867,29.225,72,29.327,72 c7.699,0,11.171-0.054,15.552-3.893c0.021-0.018,0.046-0.027,0.072-0.027c0.044,0,0.088,0.026,0.104,0.071 c0.762,2.148,0.311,3.875-0.036,6.694c-0.008,0.066,0.048,0.126,0.112,0.126c0.007,0,0.014,0,0.021-0.002 c4.524-0.931,7.392-2.702,9.363-6.073c0.149-0.255,0.412-0.385,0.681-0.385c0.203,0,0.409,0.073,0.573,0.223 c3.929,3.577,9.568,6.192,16.917,6.264c0,0,0.001,0,0.001,0c0.097,0,0.143-0.126,0.065-0.186C67.28,70.642,62,65.913,62,60.138 v-4.027l6.5-3.611c4.151-2.306,5.167-5.561,5.444-10.278c0.012-0.203-0.151-0.333-0.316-0.333c-0.095,0-0.192,0.043-0.256,0.141 c-1.688,2.563-3.768,4.14-6.872,5.47L62,48.786V37c0.064-2.962,1.346-6.842,2.895-9.801c0.036-0.068-0.019-0.145-0.09-0.145 c-0.009,0-0.018,0.001-0.027,0.004c-3.777,1.031-6.615,4.043-8.604,8.541c-0.02,0.045-0.061,0.066-0.102,0.066 c-0.049,0-0.096-0.032-0.099-0.091c-0.248-4.468,0.651-10.095,1.927-16.102C57.915,19.399,57.855,19.345,57.795,19.345 L57.795,19.345z"/><path fill="#f4989e" d="M44.338,62.779c-0.167,0.254-0.517,0.061-0.446-0.245c0.28-1.197,0.608-2.876,0.608-4.181 c0-2.251-0.433-4.503-0.73-5.779c-0.066-0.284,0.241-0.478,0.423-0.27l2.089,2.381c0.113,0.128,0.3,0.107,0.388-0.044l1.619-2.769 c0.1-0.171,0.32-0.171,0.42,0l1.58,2.702c0.1,0.171,0.32,0.171,0.42,0l1.58-2.702c0.1-0.171,0.32-0.171,0.42,0l1.592,2.722 c0.097,0.165,0.307,0.172,0.412,0.013l2.028-3.082c0.163-0.248,0.509-0.064,0.445,0.238c-0.481,2.293-0.759,4.503-0.688,6.571 c0,0.012,0.001,0.025,0.003,0.037c0.148,1.412,0.372,2.835,0.675,4.267c0.065,0.307-0.28,0.497-0.446,0.245l-2.056-3.126 c-0.092-0.14-0.272-0.155-0.38-0.031l-1.616,1.842c-0.099,0.112-0.258,0.112-0.357,0l-1.643-1.873 c-0.099-0.112-0.258-0.112-0.357,0l-1.643,1.873c-0.099,0.112-0.258,0.112-0.357,0l-1.616-1.842 c-0.109-0.124-0.288-0.109-0.38,0.031L44.338,62.779z"/><path fill="#472b29" d="M56.93,63.5c-0.241,0-0.473-0.122-0.617-0.342l-1.87-2.843l-1.389,1.583 c-0.282,0.323-0.826,0.324-1.109-0.001L50.5,60.251l-1.446,1.648c-0.282,0.323-0.826,0.324-1.109-0.001l-1.389-1.582l-1.801,2.738 c-0.202,0.308-0.574,0.424-0.906,0.282c-0.347-0.149-0.534-0.535-0.444-0.917C43.677,61.261,44,59.615,44,58.352 c0-2.242-0.449-4.512-0.717-5.666c-0.083-0.36,0.08-0.726,0.398-0.889c0.303-0.156,0.66-0.084,0.889,0.176l1.849,2.108l1.44-2.462 c0.276-0.471,1.007-0.47,1.283,0l1.359,2.323l1.358-2.323c0.276-0.471,1.007-0.47,1.283,0l1.384,2.366l1.799-2.734 c0.201-0.304,0.57-0.421,0.896-0.285c0.344,0.143,0.536,0.522,0.456,0.9c-0.52,2.479-0.741,4.589-0.677,6.451 c0.146,1.399,0.371,2.817,0.667,4.218c0.081,0.382-0.111,0.764-0.458,0.909C57.118,63.481,57.023,63.5,56.93,63.5z M54.472,59.143 c0.017,0,0.034,0.001,0.05,0.002c0.231,0.016,0.439,0.139,0.57,0.338l1.361,2.07c-0.19-1.045-0.34-2.093-0.449-3.129 c-0.061-1.694,0.091-3.511,0.459-5.567l-1.333,2.026c-0.145,0.22-0.387,0.346-0.638,0.34c-0.256-0.007-0.489-0.147-0.623-0.375 L52.5,52.503l-1.358,2.323c-0.276,0.471-1.007,0.47-1.283,0L48.5,52.503l-1.397,2.39c-0.123,0.211-0.337,0.35-0.573,0.372 c-0.236,0.022-0.463-0.069-0.623-0.251l-1.455-1.659C44.733,54.749,45,56.545,45,58.352c0,0.937-0.161,2.05-0.354,3.048 l1.261-1.917c0.132-0.199,0.339-0.323,0.571-0.339c0.225-0.016,0.449,0.077,0.604,0.253l1.418,1.616l1.446-1.648 c0.282-0.323,0.826-0.324,1.109,0.001l1.445,1.647l1.418-1.617C54.062,59.234,54.261,59.143,54.472,59.143z M52.302,61.239 C52.302,61.239,52.302,61.24,52.302,61.239L52.302,61.239z M48.302,61.239C48.302,61.239,48.302,61.24,48.302,61.239 L48.302,61.239z M52.697,61.238L52.697,61.238C52.697,61.239,52.697,61.238,52.697,61.238z M48.697,61.238L48.697,61.238 C48.697,61.239,48.697,61.238,48.697,61.238z M50.302,60.025C50.303,60.026,50.303,60.026,50.302,60.025L50.302,60.025z M50.698,60.025L50.698,60.025C50.698,60.025,50.698,60.025,50.698,60.025z"/><path fill="#f1bc19" d="M42,43c0,0,0.329,4.887,3.5,5c1.52,0.007,3.084-0.652,3.5-2.5C45.5,44.25,42,43,42,43z"/><path fill="#472b29" d="M45.524,48.5c-0.009,0-0.017,0-0.026,0c-3.596-0.128-3.982-5.248-3.997-5.466 c-0.011-0.168,0.063-0.331,0.197-0.432c0.135-0.102,0.311-0.129,0.47-0.072l7,2.5c0.238,0.085,0.375,0.334,0.32,0.581 C49.08,47.421,47.599,48.5,45.524,48.5z M42.607,43.748c0.234,1.279,0.936,3.682,2.911,3.753c0.728,0.002,2.284-0.166,2.868-1.689 L42.607,43.748z"/><path fill="#f1bc19" d="M59,43c0,0-0.329,4.887-3.5,5c-1.52,0.007-3.084-0.652-3.5-2.5C55.5,44.25,59,43,59,43z"/><path fill="#472b29" d="M55.491,48.5c-2.091,0-3.571-1.079-3.979-2.89c-0.056-0.246,0.082-0.496,0.32-0.581l7-2.5 c0.158-0.057,0.334-0.03,0.47,0.072c0.134,0.102,0.208,0.264,0.197,0.432c-0.015,0.218-0.4,5.338-3.981,5.466 C55.509,48.5,55.5,48.5,55.491,48.5z M52.614,45.812c0.584,1.523,2.173,1.693,2.884,1.688c1.964-0.07,2.663-2.474,2.896-3.752 L52.614,45.812z"/><g><path fill="#472b29" d="M73,46.5c-0.224,0-0.428-0.152-0.484-0.379c-0.067-0.268,0.096-0.539,0.363-0.606 c1.051-0.264,3.94-1.27,4.674-2.739c0.124-0.247,0.424-0.347,0.671-0.224c0.247,0.123,0.347,0.424,0.224,0.671 c-1.09,2.181-5.154,3.218-5.326,3.261C73.081,46.495,73.04,46.5,73,46.5z"/></g><g><path fill="#472b29" d="M78.5,47c-0.079,0-0.159-0.019-0.233-0.058l-2.755-1.457c-0.244-0.129-0.337-0.432-0.208-0.676 c0.129-0.244,0.431-0.337,0.676-0.208l2.755,1.457c0.244,0.129,0.337,0.432,0.208,0.676C78.852,46.903,78.679,47,78.5,47z"/></g><g><path fill="#472b29" d="M31.5,43c-0.276,0-0.5-0.224-0.5-0.5c0-2.057,0.984-5.032,1.026-5.158 c0.087-0.262,0.367-0.404,0.632-0.316c0.262,0.087,0.403,0.37,0.316,0.632C32.965,37.687,32,40.606,32,42.5 C32,42.776,31.776,43,31.5,43z"/></g><g><path fill="#472b29" d="M31.958,39.989c-0.2,0-0.389-0.121-0.466-0.319c-0.1-0.257,0.027-0.547,0.285-0.647l2.542-0.989 c0.256-0.1,0.547,0.027,0.647,0.285c0.1,0.257-0.027,0.547-0.285,0.647l-2.542,0.989C32.079,39.978,32.018,39.989,31.958,39.989z"/></g><g><path fill="#472b29" d="M61.5,43c-0.04,0-0.081-0.005-0.122-0.015c-0.268-0.067-0.431-0.338-0.364-0.606 c0.042-0.172,1.109-4.236,6.228-7.307c0.237-0.142,0.544-0.065,0.686,0.171c0.142,0.237,0.065,0.544-0.171,0.686 c-4.768,2.86-5.763,6.655-5.772,6.693C61.928,42.848,61.725,43,61.5,43z"/></g><g><path fill="#472b29" d="M54.5,58.25c-0.05,0-0.1-0.015-0.144-0.045C52.701,57.046,51.1,56.55,49.6,56.73 c-0.139,0.016-0.261-0.081-0.278-0.218c-0.017-0.137,0.081-0.262,0.218-0.278c1.625-0.196,3.343,0.329,5.103,1.561 c0.113,0.079,0.141,0.235,0.061,0.348C54.656,58.213,54.579,58.25,54.5,58.25z"/></g><g><path fill="#472b29" d="M46.5,58.25c-0.058,0-0.116-0.02-0.163-0.06c-0.104-0.09-0.117-0.247-0.027-0.352 c0.021-0.024,0.515-0.594,1.432-1.058c0.122-0.062,0.273-0.013,0.336,0.11c0.063,0.123,0.013,0.274-0.11,0.336 c-0.822,0.416-1.273,0.932-1.278,0.937C46.64,58.22,46.57,58.25,46.5,58.25z"/></g><g><path fill="#472b29" d="M49.5,43.25c-1.882,0-3.685-0.437-5.215-1.264c-0.121-0.066-0.167-0.217-0.101-0.339 c0.065-0.122,0.217-0.166,0.339-0.101c1.457,0.788,3.177,1.204,4.977,1.204c0.138,0,0.25,0.112,0.25,0.25S49.638,43.25,49.5,43.25 z"/></g><g><path fill="#472b29" d="M42.948,41.026c-0.058,0-0.115-0.02-0.162-0.06c-0.663-0.565-1.185-1.207-1.509-1.854 c-0.062-0.123-0.012-0.274,0.112-0.335c0.123-0.062,0.273-0.012,0.335,0.112c0.294,0.588,0.773,1.175,1.386,1.698 c0.105,0.09,0.118,0.247,0.028,0.352C43.088,40.996,43.019,41.026,42.948,41.026z"/></g><g><path fill="#472b29" d="M51.5,43.25c-0.138,0-0.25-0.112-0.25-0.25s0.112-0.25,0.25-0.25c4.016,0,6.846-2.002,7.776-3.862 c0.063-0.124,0.212-0.173,0.335-0.112c0.124,0.062,0.173,0.212,0.112,0.335C58.727,41.105,55.729,43.25,51.5,43.25z"/></g><g><path fill="#472b29" d="M61.5,56c-0.128,0-0.256-0.049-0.354-0.146C60.013,54.72,60,53.549,60,53.5 c0-0.276,0.224-0.5,0.5-0.5c0.274,0,0.498,0.221,0.5,0.495c0.001,0.042,0.033,0.831,0.854,1.651c0.195,0.195,0.195,0.512,0,0.707 C61.756,55.951,61.628,56,61.5,56z M61,53.5h0.01H61z"/></g><g><path fill="#472b29" d="M39.712,54.749c-0.154,0-0.306-0.071-0.404-0.205c-0.162-0.222-0.115-0.532,0.104-0.696 c0.033-0.026,0.651-0.517,0.829-1.664c0.043-0.273,0.298-0.46,0.571-0.417c0.273,0.042,0.46,0.298,0.417,0.571 c-0.246,1.584-1.183,2.286-1.223,2.315C39.917,54.718,39.814,54.749,39.712,54.749z"/></g><g><circle cx="46" cy="45" r="1" fill="#472b29"/></g><g><circle cx="55" cy="45" r="1" fill="#472b29"/></g></svg>