<svg xmlns="http://www.w3.org/2000/svg"  viewBox="0 0 100 100" width="200px" height="200px"><path fill="#ee3e54" d="M12.875,27.958c-1.105,0-2,0.895-2,2s0.895,2,2,2s2-0.895,2-2S13.98,27.958,12.875,27.958z"/><path fill="#f1bc19" d="M76.875,12.958c-0.551,0-1,0.449-1,1s0.449,1,1,1s1-0.449,1-1S77.426,12.958,76.875,12.958z"/><path fill="#fce0a2" d="M49.875,13.958c-20.434,0-37,16.566-37,37s16.566,37,37,37s37-16.566,37-37 S70.309,13.958,49.875,13.958z"/><path fill="#f1bc19" d="M82.875,11.958c-2.211,0-4,1.789-4,4s1.789,4,4,4s4-1.789,4-4S85.086,11.958,82.875,11.958z"/><path fill="#ee3e54" d="M86.875,22.958c-1.105,0-2,0.895-2,2s0.895,2,2,2s2-0.895,2-2S87.98,22.958,86.875,22.958z"/><path fill="#fbcd59" d="M80.875,74.958c-1.105,0-2,0.895-2,2s0.895,2,2,2s2-0.895,2-2S81.98,74.958,80.875,74.958z M14.875,59.958c-2.211,0-4,1.789-4,4c0,2.211,1.789,4,4,4s4-1.789,4-4C18.875,61.747,17.086,59.958,14.875,59.958z"/><path fill="#ee3e54" d="M24.875,85.958c-1.105,0-2,0.895-2,2s0.895,2,2,2s2-0.895,2-2S25.98,85.958,24.875,85.958z"/><path fill="#fff" d="M17.375,42.958c-1.379,0-2.5,1.121-2.5,2.5s1.121,2.5,2.5,2.5s2.5-1.121,2.5-2.5 S18.754,42.958,17.375,42.958z"/><path fill="#f1bc19" d="M20.875,65.958c-0.551,0-1,0.449-1,1s0.449,1,1,1s1-0.449,1-1S21.426,65.958,20.875,65.958z"/><path fill="#fff" d="M81.875,37.958c-0.551,0-1,0.449-1,1s0.449,1,1,1s1-0.449,1-1S82.426,37.958,81.875,37.958z"/><g><path fill="#472b29" d="M39.5,42c-4.687,0-8.5-3.813-8.5-8.5s3.813-8.5,8.5-8.5s8.5,3.813,8.5,8.5S44.187,42,39.5,42z M39.5,26c-4.136,0-7.5,3.365-7.5,7.5s3.364,7.5,7.5,7.5s7.5-3.365,7.5-7.5S43.636,26,39.5,26z"/><path fill="#8889b9" d="M46,33l-0.125-6.438C34.5,26.563,29,35,29,44.417V64.5c0,0.828,0.672,1.5,1.5,1.5h0 c0.828,0,1.5-0.672,1.5-1.5V44.583C32,38,38.5,33,46,33z"/><path fill="#472b29" d="M30.5,66.5c-1.103,0-2-0.897-2-2V44.417c0-9.136,5.373-18.354,17.375-18.354 c0.272,0,0.495,0.218,0.5,0.49L46.5,32.99c0.002,0.134-0.049,0.264-0.143,0.36C46.263,33.446,46.134,33.5,46,33.5 c-7.444,0-13.5,4.972-13.5,11.083V64.5C32.5,65.603,31.603,66.5,30.5,66.5z M45.385,27.068C33.673,27.318,29.5,36.521,29.5,44.417 V64.5c0,0.552,0.449,1,1,1s1-0.448,1-1V44.583c0-6.521,6.23-11.851,13.99-12.076L45.385,27.068z"/><path fill="#a2b3cb" d="M45.7,39.3V26.7h14.657c0.994,0,1.843,0.708,1.934,1.612c0.051,0.518-0.11,1.013-0.456,1.395 C61.494,30.084,61.008,30.3,60.5,30.3h-3.2v9H45.7z"/><path fill="#472b29" d="M60.358,27.4c0.628,0,1.182,0.44,1.236,0.981c0.032,0.319-0.067,0.623-0.278,0.856 C61.105,29.471,60.815,29.6,60.5,29.6H58h-1.4V31v7.6H46.4V27.4h6.1H58H60.358 M60.358,26H58h-5.5h-7.146 C45.159,26,45,26.159,45,26.354V40h13v-9h2.5c1.466,0,2.637-1.261,2.487-2.758C62.857,26.941,61.665,26,60.358,26L60.358,26z"/><path fill="#8c9136" d="M45.379,77.3c-3.942-2.954-6.679-9.585-6.679-16.238c0-5.065,1.624-10.541,4.041-13.627 l0.149-0.19V39.75c0-1.13,1.037-2.05,2.313-2.05h12.596c1.275,0,2.313,0.92,2.313,2.05v7.495l0.149,0.19 c2.417,3.086,4.041,8.562,4.041,13.627c0,6.652-2.737,13.284-6.679,16.238H45.379z"/><path fill="#472b29" d="M57.798,38.4c0.889,0,1.612,0.605,1.612,1.35v7.254v0.483l0.298,0.38 c2.328,2.972,3.892,8.275,3.892,13.195c0,6.342-2.539,12.643-6.217,15.538H45.617c-3.678-2.895-6.217-9.196-6.217-15.538 c0-4.92,1.564-10.223,3.892-13.195l0.298-0.38v-0.483V39.75c0-0.745,0.723-1.35,1.612-1.35H57.798 M57.798,37H45.202 c-1.664,0-3.012,1.231-3.012,2.75v7.254C39.613,50.293,38,55.921,38,61.063C38,67.966,40.897,74.96,45.151,78h12.699 C62.103,74.96,65,67.966,65,61.063c0-5.141-1.613-10.769-4.19-14.059V39.75C60.81,38.231,59.462,37,57.798,37L57.798,37z"/><path fill="#9daa39" d="M60.604,65.5c-0.157,0-0.302-0.064-0.408-0.181c-0.11-0.122-0.162-0.28-0.146-0.445 c0.26-2.629,0.352-5.25,0.275-7.79c-0.005-0.157,0.051-0.305,0.159-0.416c0.105-0.108,0.247-0.168,0.399-0.168h4.956 c0.295,0,0.542,0.225,0.561,0.513c0.067,0.961,0.099,1.856,0.099,2.737c0,1.765-0.111,3.538-0.332,5.268 c-0.035,0.274-0.276,0.482-0.562,0.482H60.604z"/><path fill="#472b29" d="M65.84,57c0.032,0,0.061,0.022,0.063,0.047C65.968,58.002,66,58.886,66,59.75 c0,1.744-0.11,3.495-0.328,5.205C65.67,64.976,65.642,65,65.606,65l-5.04-0.017c-0.015-0.016-0.021-0.036-0.018-0.06 c0.262-2.654,0.355-5.296,0.277-7.854c0-0.008-0.001-0.032,0.059-0.068H65.84 M65.84,56h-4.956c-0.602,0-1.077,0.498-1.058,1.099 c0.073,2.371,0.001,4.952-0.272,7.726C59.491,65.451,59.975,66,60.604,66h5.002c0.533,0,0.991-0.391,1.058-0.919 C66.883,63.364,67,61.581,67,59.75c0-0.939-0.037-1.861-0.1-2.771C66.862,56.426,66.395,56,65.84,56L65.84,56z"/><path fill="#9daa39" d="M51.278,77.5c-0.219,0-0.419-0.122-0.509-0.312c-0.97-2.052-1.879-4.665-2.779-7.987 c-0.045-0.168-0.011-0.342,0.094-0.48c0.108-0.141,0.272-0.221,0.451-0.221h6.26c0.179,0,0.343,0.081,0.45,0.221 c0.105,0.137,0.139,0.312,0.094,0.48c-0.901,3.324-1.81,5.937-2.779,7.988c-0.089,0.189-0.289,0.311-0.508,0.311H51.278z"/><path fill="#472b29" d="M54.794,69c0.01,0,0.034,0,0.062,0.07c-0.893,3.294-1.792,5.88-2.749,7.905 C52.102,76.987,52.079,77,52.051,77h-0.773c-0.028,0-0.051-0.013-0.056-0.025c-0.957-2.024-1.856-4.61-2.74-7.95 C48.5,69,48.524,69,48.535,69H54.794 M54.794,68h-6.26c-0.699,0-1.21,0.657-1.027,1.332c0.664,2.453,1.582,5.474,2.81,8.071 C50.492,77.771,50.869,78,51.278,78h0.773c0.408,0,0.786-0.229,0.96-0.598c1.228-2.597,2.145-5.618,2.81-8.071 C56.004,68.657,55.493,68,54.794,68L54.794,68z"/><path fill="#9daa39" d="M60.384,53.5c-0.28,0-0.513-0.203-0.553-0.483c-0.365-2.52-0.856-5.006-1.348-6.819 c-0.045-0.167-0.011-0.341,0.094-0.478c0.107-0.14,0.271-0.22,0.448-0.22h3.831c0.214,0,0.409,0.116,0.495,0.295 c0.997,2.08,1.75,4.964,2.206,7.016c0.038,0.17-0.002,0.344-0.11,0.479c-0.063,0.078-0.203,0.209-0.437,0.209H60.384z"/><path fill="#472b29" d="M62.855,46l0.044,0.011c0.977,2.038,1.719,4.882,2.169,6.909c0.002,0.01,0.007,0.033-0.012,0.058 C65.038,53,65.019,53,65.009,53h-4.625c-0.031,0-0.053-0.021-0.058-0.054c-0.368-2.54-0.864-5.047-1.353-6.922 C58.992,46,59.015,46,59.025,46H62.855 M62.855,45h-3.83c-0.697,0-1.207,0.656-1.025,1.329c0.497,1.833,0.986,4.338,1.336,6.76 C59.412,53.612,59.855,54,60.384,54h4.625c0.682,0,1.184-0.631,1.036-1.297c-0.543-2.445-1.302-5.159-2.244-7.124 C63.628,45.219,63.254,45,62.855,45L62.855,45z"/><path fill="#9daa39" d="M47.442,65.5c-0.282,0-0.528-0.218-0.562-0.496c-0.328-2.703-0.445-5.387-0.347-7.977 c0.011-0.295,0.259-0.527,0.563-0.527h9.136c0.304,0,0.552,0.232,0.563,0.527c0.098,2.589-0.019,5.273-0.347,7.977 c-0.034,0.278-0.281,0.496-0.563,0.496H47.442z"/><path fill="#472b29" d="M56.232,57c0.035,0,0.062,0.024,0.063,0.046c0.097,2.563-0.018,5.221-0.343,7.898 C55.949,64.973,55.917,65,55.886,65h-8.444c-0.031,0-0.063-0.027-0.066-0.056c-0.325-2.678-0.44-5.335-0.343-7.898 C47.034,57.024,47.062,57,47.097,57H56.232 M56.232,56h-9.135c-0.567,0-1.041,0.442-1.063,1.008 c-0.092,2.437-0.005,5.129,0.349,8.056C46.448,65.596,46.907,66,47.443,66h8.444c0.535,0,0.995-0.404,1.059-0.936 c0.355-2.927,0.442-5.62,0.349-8.056C57.273,56.442,56.799,56,56.232,56L56.232,56z"/><path fill="#9daa39" d="M57.489,77.5c-0.187,0-0.354-0.087-0.459-0.239c-0.105-0.152-0.128-0.338-0.063-0.512 c1.017-2.729,1.75-5.764,2.214-7.81c0.058-0.258,0.283-0.438,0.547-0.438h4.567c0.186,0,0.354,0.087,0.46,0.24 c0.108,0.154,0.132,0.344,0.067,0.521c-1.31,3.587-2.995,6.464-4.745,8.1c-0.096,0.09-0.231,0.139-0.38,0.139H57.489z"/><path fill="#472b29" d="M64.294,69c0.012,0,0.033,0,0.051,0.026c0.02,0.029,0.012,0.052,0.008,0.063 c-1.283,3.515-2.923,6.322-4.656,7.911h-2.207c-0.012,0-0.032,0-0.049-0.024c-0.016-0.023-0.01-0.041-0.006-0.052 c1.029-2.762,1.767-5.817,2.233-7.875C59.674,69.02,59.698,69,59.727,69H64.294 M64.294,68h-4.567 c-0.497,0-0.925,0.343-1.035,0.828c-0.519,2.294-1.236,5.173-2.195,7.746C56.24,77.267,56.75,78,57.489,78h2.207 c0.267,0,0.527-0.092,0.722-0.274c2.039-1.906,3.72-5.134,4.874-8.293C65.546,68.737,65.034,68,64.294,68L64.294,68z"/><path fill="#9daa39" d="M37.394,65.5c-0.286,0-0.527-0.207-0.562-0.482c-0.22-1.73-0.332-3.503-0.332-5.268 c0-0.88,0.032-1.776,0.099-2.736c0.02-0.288,0.266-0.514,0.561-0.514h5.285c0.152,0,0.294,0.06,0.399,0.168 c0.107,0.111,0.164,0.258,0.159,0.416c-0.078,2.536,0.015,5.157,0.275,7.79c0.016,0.165-0.035,0.323-0.146,0.445 c-0.106,0.117-0.251,0.181-0.408,0.181H37.394z"/><path fill="#472b29" d="M42.445,57l0.04,0.016c0.019,0.02,0.019,0.044,0.019,0.052c-0.078,2.558,0.015,5.201,0.277,7.854 c0.002,0.024-0.004,0.044-0.056,0.077h-5.331c-0.036,0-0.063-0.024-0.066-0.045C37.11,63.245,37,61.494,37,59.75 c0-0.864,0.032-1.748,0.097-2.702C37.099,57.022,37.128,57,37.16,57H42.445 M42.445,56H37.16c-0.555,0-1.022,0.426-1.06,0.979 c-0.063,0.91-0.1,1.832-0.1,2.771c0,1.831,0.117,3.614,0.336,5.331C36.403,65.609,36.861,66,37.394,66h5.331 c0.63,0,1.113-0.549,1.051-1.175c-0.274-2.773-0.345-5.354-0.272-7.726C43.522,56.498,43.047,56,42.445,56L42.445,56z"/><g><path fill="#9daa39" d="M43.304,77.5c-0.149,0-0.284-0.05-0.381-0.14c-1.75-1.636-3.435-4.512-4.745-8.099 c-0.065-0.177-0.041-0.367,0.067-0.521c0.106-0.153,0.274-0.24,0.46-0.24h4.896c0.264,0,0.488,0.18,0.547,0.438 c0.462,2.042,1.194,5.074,2.213,7.81c0.065,0.174,0.042,0.361-0.063,0.512c-0.105,0.152-0.273,0.239-0.459,0.239H43.304z"/><path fill="#472b29" d="M43.602,69c0.029,0,0.053,0.02,0.059,0.049c0.466,2.058,1.204,5.113,2.233,7.875 c0.004,0.011,0.011,0.029-0.006,0.052C45.872,77,45.852,77,45.84,77l-2.575-0.005c-1.694-1.583-3.334-4.391-4.617-7.906 c-0.004-0.011-0.012-0.034,0.008-0.063C38.674,69,38.694,69,38.706,69H43.602 M43.602,68h-4.896c-0.74,0-1.252,0.737-0.998,1.432 c1.154,3.159,2.835,6.388,4.874,8.293C42.777,77.908,43.037,78,43.304,78h2.536c0.739,0,1.25-0.733,0.992-1.426 c-0.959-2.573-1.675-5.452-2.195-7.746C44.527,68.343,44.099,68,43.602,68L43.602,68z"/></g><g><path fill="#9daa39" d="M37.674,53.5c-0.095,0-0.184-0.042-0.243-0.115c-0.033-0.041-0.084-0.127-0.059-0.246 c0.48-2.218,1.277-5.317,2.345-7.482c0.047-0.095,0.153-0.156,0.271-0.156h4.651c0.132,0,0.208,0.075,0.242,0.119 c0.035,0.046,0.087,0.142,0.05,0.273c-0.531,1.87-1.079,4.617-1.465,7.347c-0.021,0.151-0.147,0.261-0.299,0.261H37.674z"/><path fill="#472b29" d="M44.382,46c-0.504,1.841-1.016,4.421-1.387,7h-5.081c0.469-2.126,1.214-4.965,2.192-7H44.382 M44.64,45h-4.651c-0.303,0-0.585,0.163-0.719,0.435c-1.017,2.062-1.826,5.009-2.386,7.598c-0.108,0.5,0.279,0.967,0.79,0.967 h5.493c0.401,0,0.738-0.293,0.794-0.69c0.372-2.624,0.91-5.375,1.451-7.281C45.559,45.512,45.177,45,44.64,45L44.64,45z"/></g><g><path fill="#9daa39" d="M47.716,53.5c-0.168,0-0.321-0.071-0.429-0.201c-0.108-0.13-0.153-0.3-0.123-0.468 c0.477-2.632,1.157-5.305,1.776-6.977c0.08-0.215,0.286-0.354,0.523-0.354h4.4c0.238,0,0.443,0.139,0.523,0.354 c0.619,1.671,1.3,4.344,1.777,6.977c0.031,0.167-0.014,0.338-0.123,0.468c-0.108,0.13-0.261,0.201-0.429,0.201H47.716z"/><path fill="#472b29" d="M53.864,46c0.02,0,0.047,0.007,0.055,0.029c0.61,1.645,1.282,4.286,1.754,6.892 c0.002,0.009,0.006,0.033-0.06,0.08l-7.942-0.021c-0.021-0.025-0.016-0.049-0.015-0.058c0.472-2.606,1.144-5.247,1.754-6.892 C49.418,46.007,49.444,46,49.465,46H53.864 M53.864,45h-4.4c-0.442,0-0.839,0.267-0.992,0.681 c-0.602,1.625-1.299,4.296-1.8,7.061C46.554,53.396,47.052,54,47.716,54h7.897c0.664,0,1.162-0.604,1.044-1.258 c-0.501-2.765-1.198-5.436-1.8-7.061C54.703,45.267,54.306,45,53.864,45L53.864,45z"/></g><g><circle cx="49" cy="30" r=".3" fill="#a2b3cb"/><path fill="#472b29" d="M49,29c-0.552,0-1,0.448-1,1s0.448,1,1,1s1-0.448,1-1S49.552,29,49,29L49,29z"/></g><g><path fill="#472b29" d="M45.5,42h-2c-0.276,0-0.5-0.224-0.5-0.5s0.224-0.5,0.5-0.5h2c0.276,0,0.5,0.224,0.5,0.5 S45.776,42,45.5,42z"/></g><g><path fill="#472b29" d="M50.5,42h-3c-0.276,0-0.5-0.224-0.5-0.5s0.224-0.5,0.5-0.5h3c0.276,0,0.5,0.224,0.5,0.5 S50.776,42,50.5,42z"/></g><g><path fill="#472b29" d="M59.5,42h-7c-0.276,0-0.5-0.224-0.5-0.5s0.224-0.5,0.5-0.5h7c0.276,0,0.5,0.224,0.5,0.5 S59.776,42,59.5,42z"/></g><g><path fill="#472b29" d="M33.5,35.75c-0.048,0-0.096-0.014-0.139-0.042c-0.115-0.077-0.146-0.232-0.069-0.347 c0.824-1.236,1.878-2.313,3.135-3.203c0.112-0.079,0.268-0.054,0.349,0.06c0.08,0.113,0.053,0.269-0.06,0.349 c-1.207,0.854-2.219,1.888-3.008,3.072C33.66,35.711,33.581,35.75,33.5,35.75z"/></g><g><path fill="#472b29" d="M39.207,31.149c-0.097,0-0.189-0.057-0.23-0.152c-0.054-0.127,0.004-0.274,0.131-0.328 c3.273-1.403,6.266-1.419,6.392-1.419c0.138,0,0.25,0.112,0.25,0.25c0,0.138-0.112,0.25-0.25,0.25 c-0.03,0-3.021,0.018-6.195,1.378C39.273,31.142,39.24,31.149,39.207,31.149z"/></g></g></svg>