<svg xmlns="http://www.w3.org/2000/svg"  viewBox="0 0 100 100" width="200px" height="200px"><circle cx="13" cy="29" r="2" fill="#78a0cf"/><circle cx="77" cy="13" r="1" fill="#f1bc19"/><circle cx="50" cy="50" r="37" fill="#cee1f4"/><circle cx="83" cy="15" r="4" fill="#f1bc19"/><circle cx="87" cy="24" r="2" fill="#78a0cf"/><circle cx="81" cy="76" r="2" fill="#fbcd59"/><circle cx="15" cy="63" r="4" fill="#fbcd59"/><circle cx="25" cy="87" r="2" fill="#78a0cf"/><circle cx="18.5" cy="53.5" r="2.5" fill="#fff"/><circle cx="16" cy="47" r="1" fill="#f1bc19"/><circle cx="80" cy="34" r="1" fill="#fff"/><path fill="#f4989e" d="M50,74.268c-10.003-3.147-26.3-18.946-26.3-31.366c0-7.645,5.511-13.195,13.105-13.198 c6.616,0,11.086,4.812,12.299,6.287c0.222,0.27,0.548,0.425,0.896,0.425s0.674-0.155,0.896-0.425 c1.212-1.475,5.683-6.29,12.299-6.29C70.788,29.703,76.3,35.255,76.3,42.901C76.3,55.322,60.003,71.121,50,74.268z"/><path fill="#472b29" d="M63.195,30.4L63.195,30.4C70.383,30.403,75.6,35.66,75.6,42.901c0,5.441-3.42,12.31-9.384,18.846 c-5.14,5.633-11.45,10.21-16.216,11.785c-4.765-1.575-11.075-6.153-16.216-11.788C27.82,55.207,24.4,48.339,24.4,42.901 c0-7.239,5.217-12.496,12.41-12.499c6.305,0,10.59,4.617,11.753,6.032c0.355,0.433,0.879,0.681,1.437,0.681 c0.558,0,1.081-0.248,1.437-0.681C52.6,35.019,56.886,30.4,63.195,30.4 M63.195,29c-6.922,0-11.565,4.994-12.84,6.546 c-0.093,0.113-0.224,0.169-0.355,0.169s-0.262-0.057-0.355-0.169c-1.275-1.551-5.915-6.543-12.835-6.543 c-0.002,0-0.003,0-0.005,0C28.803,29.006,23,34.85,23,42.901C23,55.867,40,72,50,75c10-3,27-19.124,27-32.099 C77,34.85,71.197,29.003,63.195,29L63.195,29z"/><g><path fill="#fbcd59" d="M65.235,42.039c-0.217-0.064-0.317-0.287-0.233-0.49c0.361-0.863,0.127-2.504-1.69-2.094 c-1.551,0.35-2.243,2.175-2.314,3.267l-24.499,9.953c-1.351-1.167-3.839-2.013-4.721-0.432c-0.782,1.403,0.43,2.436,1.341,2.703 c0.217,0.064,0.317,0.287,0.233,0.49c-0.361,0.863-0.127,2.504,1.69,2.094c1.343-0.303,2.043-1.714,2.254-2.797l24.933-10.129 c1.396,1.002,3.543,1.583,4.349,0.138C67.358,43.339,66.145,42.306,65.235,42.039z"/><path fill="#472b29" d="M34.5,58.096c-0.694,0-1.113-0.3-1.355-0.589c-0.513-0.61-0.521-1.498-0.308-2.126 c-0.596-0.212-1.34-0.707-1.661-1.49c-0.172-0.42-0.283-1.089,0.164-1.891c0.327-0.587,0.861-0.961,1.543-1.081 c1.231-0.217,2.722,0.431,3.7,1.182l23.947-9.729c0.183-1.267,0.984-3.023,2.67-3.404c1.1-0.247,1.696,0.142,2.007,0.512 c0.512,0.61,0.52,1.497,0.307,2.125c0.597,0.212,1.341,0.708,1.661,1.491c0.172,0.42,0.282,1.089-0.165,1.89 c-0.308,0.552-0.802,0.918-1.429,1.058c-1.139,0.255-2.472-0.259-3.416-0.876l-24.441,9.929c-0.311,1.245-1.127,2.594-2.575,2.92 C34.911,58.072,34.695,58.096,34.5,58.096z M33.404,51.875c-0.119,0-0.234,0.009-0.345,0.029 c-0.387,0.068-0.663,0.259-0.844,0.583c-0.206,0.37-0.243,0.705-0.111,1.025c0.197,0.481,0.737,0.832,1.156,0.954 c0.238,0.07,0.435,0.236,0.539,0.455c0.105,0.22,0.11,0.478,0.014,0.708c-0.149,0.358-0.154,0.932,0.099,1.234 c0.192,0.228,0.535,0.288,1.02,0.179c1.084-0.245,1.686-1.448,1.873-2.405l0.052-0.266l25.439-10.335l0.225,0.161 c0.956,0.687,2.098,1.038,2.846,0.87c0.351-0.078,0.604-0.265,0.773-0.569c0.206-0.37,0.243-0.705,0.112-1.025 c-0.196-0.481-0.737-0.832-1.156-0.955c-0.237-0.07-0.434-0.235-0.539-0.454c-0.104-0.22-0.11-0.477-0.016-0.707 c0.15-0.36,0.156-0.934-0.098-1.236c-0.19-0.229-0.535-0.289-1.02-0.179c-1.22,0.275-1.86,1.81-1.926,2.812l-0.021,0.313 L36.404,53.254l-0.232-0.2C35.453,52.432,34.327,51.875,33.404,51.875z"/></g><g><path fill="#fbcd59" d="M34.11,42.053c0.217-0.064,0.317-0.287,0.233-0.49c-0.361-0.863-0.127-2.504,1.69-2.094 c1.551,0.35,2.243,2.175,2.314,3.267l24.499,9.953c1.351-1.167,3.839-2.013,4.721-0.432c0.782,1.403-0.43,2.436-1.341,2.703 c-0.217,0.064-0.317,0.287-0.233,0.49c0.361,0.863,0.127,2.504-1.69,2.094c-1.343-0.303-2.043-1.714-2.254-2.797L37.118,44.618 c-1.396,1.002-3.543,1.583-4.349,0.138C31.987,43.354,33.2,42.321,34.11,42.053z"/><path fill="#472b29" d="M64.846,58.11c-0.195,0-0.411-0.024-0.651-0.078c-1.447-0.326-2.264-1.676-2.574-2.92 l-24.441-9.929c-0.945,0.616-2.272,1.131-3.417,0.876c-0.627-0.14-1.122-0.506-1.429-1.058c-0.447-0.801-0.336-1.47-0.164-1.89 c0.32-0.783,1.064-1.278,1.661-1.491c-0.213-0.628-0.205-1.516,0.307-2.126c0.311-0.37,0.91-0.759,2.005-0.512 c1.686,0.381,2.488,2.137,2.67,3.404l23.948,9.729c0.979-0.752,2.465-1.4,3.701-1.182c0.683,0.12,1.216,0.494,1.543,1.081 c0.447,0.802,0.336,1.471,0.164,1.891c-0.32,0.783-1.064,1.278-1.661,1.49c0.214,0.629,0.205,1.517-0.307,2.126 C65.958,57.81,65.539,58.11,64.846,58.11z M37.051,44.051L62.49,54.386l0.052,0.266c0.186,0.957,0.788,2.161,1.873,2.405 c0.482,0.109,0.827,0.05,1.02-0.179c0.253-0.301,0.248-0.876,0.099-1.235c-0.097-0.229-0.091-0.487,0.014-0.707 c0.104-0.219,0.301-0.385,0.539-0.455c0.419-0.123,0.96-0.474,1.156-0.955c0.131-0.32,0.095-0.655-0.111-1.025 c-0.181-0.324-0.457-0.515-0.844-0.583c-0.971-0.171-2.303,0.449-3.114,1.15l-0.231,0.2L37.868,43.082l-0.021-0.313 c-0.065-1.002-0.706-2.537-1.926-2.812c-0.483-0.109-0.827-0.049-1.02,0.179c-0.253,0.302-0.248,0.876-0.098,1.234 c0.096,0.229,0.091,0.487-0.014,0.707c-0.104,0.219-0.301,0.385-0.539,0.455h0c-0.419,0.123-0.96,0.475-1.157,0.955 c-0.131,0.32-0.094,0.655,0.112,1.025c0.17,0.305,0.423,0.491,0.774,0.569c0.743,0.166,1.889-0.183,2.846-0.87L37.051,44.051z M33.969,41.574C33.969,41.574,33.969,41.574,33.969,41.574C33.969,41.574,33.969,41.574,33.969,41.574L33.969,41.574z"/></g><g><path fill="#472b29" d="M27.553,42.646c-0.276,0-0.5-0.224-0.5-0.5c0-2.961,1.013-5.405,2.929-7.068 c1.972-1.711,4.78-2.454,7.704-2.038c0.273,0.039,0.463,0.292,0.425,0.565c-0.039,0.273-0.291,0.464-0.565,0.425 c-2.637-0.375-5.154,0.282-6.907,1.803c-1.691,1.467-2.585,3.65-2.585,6.313C28.053,42.422,27.83,42.646,27.553,42.646z"/></g><g><path fill="#472b29" d="M70.492,51.094c-0.081,0-0.164-0.02-0.24-0.061c-0.242-0.132-0.331-0.436-0.198-0.679 c1.002-1.833,1.609-3.406,1.913-4.95c0.052-0.271,0.311-0.447,0.587-0.394c0.271,0.053,0.447,0.316,0.394,0.587 c-0.323,1.648-0.964,3.312-2.017,5.237C70.84,51,70.669,51.094,70.492,51.094z"/></g><g><path fill="#472b29" d="M72.689,42.759c-0.276,0-0.5-0.224-0.5-0.5c0-1.878-0.702-3.78-1.978-5.353 c-0.742-0.916-1.673-1.704-2.69-2.28c-0.24-0.136-0.325-0.441-0.189-0.681c0.137-0.241,0.441-0.324,0.682-0.189 c1.126,0.637,2.154,1.509,2.976,2.521c1.419,1.751,2.2,3.876,2.2,5.983C73.189,42.535,72.966,42.759,72.689,42.759z"/></g><g><path fill="#472b29" d="M61.06,33.763c-0.224,0-0.427-0.15-0.484-0.376c-0.068-0.268,0.093-0.54,0.36-0.608 c1.308-0.334,2.638-0.385,3.955-0.153c0.271,0.048,0.453,0.307,0.405,0.579c-0.048,0.273-0.313,0.453-0.579,0.406 c-1.178-0.207-2.364-0.162-3.533,0.137C61.142,33.758,61.101,33.763,61.06,33.763z"/></g><g><path fill="#f5e690" fill-rule="evenodd" d="M50,65.5c-2.765,0-4.849-1.975-4.849-4.594v-1.06 l-0.526,0.027c-0.3,0.015-0.482,0.023-0.738,0.023c-1.486,0-3.066-0.628-3.066-1.792c0-0.575,0.24-1.127,0.676-1.554 l0.354-0.348l-0.345-0.357c-1.781-1.843-2.723-4.233-2.723-6.911c0-5.29,4.927-9.434,11.217-9.434 c6.29,0,11.217,4.144,11.217,9.434c0,2.668-0.434,4.559-2.723,6.909l-0.348,0.357l0.356,0.349 c0.437,0.427,0.677,0.979,0.677,1.554c0,1.164-1.58,1.792-3.066,1.792c-0.118,0-0.222-0.005-0.329-0.011 c-0.132-0.007-0.268-0.013-0.436-0.013h-0.5v1.033C54.849,63.525,52.765,65.5,50,65.5z" clip-rule="evenodd"/><path fill="#472b29" d="M50,40c6.01,0,10.717,3.924,10.717,8.934c0,2.593-0.399,4.32-2.581,6.561l-0.695,0.715 l0.712,0.697c0.339,0.332,0.526,0.757,0.526,1.197c0,0.798-1.332,1.292-2.566,1.292c-0.11,0-0.206-0.005-0.305-0.01 c-0.138-0.007-0.282-0.014-0.459-0.014h-1v1v0.533C54.349,63.24,52.479,65,50,65s-4.349-1.76-4.349-4.094v-0.533v-1.052 l-1.05,0.053c-0.29,0.014-0.467,0.022-0.714,0.022c-1.234,0-2.566-0.494-2.566-1.292c0-0.44,0.187-0.865,0.526-1.197l0.71-0.695 l-0.69-0.714c-1.69-1.749-2.583-4.018-2.583-6.563C39.283,43.924,43.99,40,50,40 M50,39c-6.752,0-11.717,4.448-11.717,9.934 c0,2.865,1.019,5.349,2.864,7.258c-0.511,0.5-0.826,1.171-0.826,1.912c0,1.547,1.878,2.292,3.566,2.292 c0.265,0,0.454-0.008,0.764-0.023v0.533C44.651,63.86,47.046,66,50,66c2.954,0,5.349-2.14,5.349-5.094v-0.533 c0.305,0,0.499,0.023,0.764,0.023c1.688,0,3.566-0.745,3.566-2.292c0-0.74-0.315-1.411-0.826-1.912 c2.355-2.419,2.864-4.394,2.864-7.258C61.717,43.448,56.752,39,50,39L50,39z"/><path fill="#9f8066" d="M50,56.353c0,0-1.528,1.274-1.528,2.802S50,59.919,50,59.919s1.528,0.764,1.528-0.764 S50,56.353,50,56.353z"/><path fill="#472b29" d="M50.761,60.36c-0.309,0-0.603-0.102-0.761-0.168c-0.254,0.106-0.86,0.304-1.312,0.025 c-0.31-0.191-0.466-0.549-0.466-1.063c0-1.627,1.552-2.939,1.618-2.994c0.093-0.077,0.228-0.077,0.32,0 c0.066,0.055,1.618,1.367,1.618,2.994c0,0.514-0.157,0.872-0.466,1.063C51.142,60.323,50.949,60.36,50.761,60.36z M50,59.669 c0.038,0,0.076,0.009,0.111,0.026c0.157,0.078,0.668,0.264,0.938,0.097c0.151-0.094,0.229-0.309,0.229-0.637 c0-1.107-0.903-2.099-1.278-2.462c-0.375,0.364-1.278,1.355-1.278,2.462c0,0.329,0.077,0.543,0.229,0.637 c0.269,0.167,0.781-0.019,0.938-0.097C49.924,59.678,49.962,59.669,50,59.669z"/><path fill="#472b29" d="M50.764,65.741c-0.138,0-0.25-0.112-0.25-0.25v-1.783c0-0.138,0.112-0.25,0.25-0.25 s0.25,0.112,0.25,0.25v1.783C51.014,65.629,50.902,65.741,50.764,65.741z"/><path fill="#472b29" d="M49.236,65.741c-0.138,0-0.25-0.112-0.25-0.25v-1.783c0-0.138,0.112-0.25,0.25-0.25 s0.25,0.112,0.25,0.25v1.783C49.486,65.629,49.374,65.741,49.236,65.741z"/><path fill="#472b29" d="M47.708,64.976c-0.138,0-0.25-0.112-0.25-0.25v-1.528c0-0.138,0.112-0.25,0.25-0.25 s0.25,0.112,0.25,0.25v1.528C47.958,64.864,47.846,64.976,47.708,64.976z"/><path fill="#472b29" d="M52.293,64.976c-0.138,0-0.25-0.112-0.25-0.25l-0.001-1.528c0-0.138,0.111-0.25,0.25-0.25l0,0 c0.138,0,0.25,0.112,0.25,0.25l0.001,1.528C52.543,64.864,52.432,64.976,52.293,64.976L52.293,64.976z"/><path fill="#472b29" d="M53.821,64.059c-0.138,0-0.25-0.112-0.25-0.25v-1.375c0-0.138,0.112-0.25,0.25-0.25 s0.25,0.112,0.25,0.25v1.375C54.071,63.948,53.959,64.059,53.821,64.059z"/><path fill="#472b29" d="M46.179,64.059c-0.138,0-0.25-0.112-0.25-0.25v-1.375c0-0.138,0.112-0.25,0.25-0.25 s0.25,0.112,0.25,0.25v1.375C46.429,63.948,46.317,64.059,46.179,64.059z"/><path fill="#472b29" d="M41.916,56.633c-0.087,0-0.172-0.046-0.218-0.127c-0.068-0.12-0.026-0.272,0.094-0.341 c0.164-0.093,0.598-0.409,0.636-0.748c0.019-0.168-0.064-0.333-0.252-0.506c-0.714-0.714-1.3-1.646-1.465-2.327 c-0.033-0.134,0.049-0.269,0.184-0.302c0.136-0.033,0.27,0.05,0.302,0.184c0.144,0.59,0.689,1.447,1.326,2.084 c0.303,0.278,0.441,0.591,0.403,0.925c-0.075,0.65-0.804,1.078-0.887,1.125C41.999,56.623,41.957,56.633,41.916,56.633z"/><path fill="#472b29" d="M58.063,56.633c-0.042,0-0.084-0.01-0.123-0.032c-0.083-0.047-0.812-0.475-0.887-1.125 c-0.038-0.334,0.1-0.648,0.411-0.933c1.067-1.068,1.546-2.368,1.536-3.122c-0.002-0.138,0.108-0.251,0.247-0.253 c0.128-0.003,0.251,0.109,0.253,0.247c0.014,1.046-0.682,2.481-1.69,3.49c-0.196,0.18-0.279,0.346-0.26,0.514 c0.038,0.338,0.472,0.654,0.636,0.748c0.12,0.068,0.162,0.221,0.095,0.341C58.234,56.587,58.15,56.633,58.063,56.633z"/><path fill="#472b29" d="M46.688,60.642c-0.106,0-0.212-0.033-0.303-0.102c-0.027-0.019-0.411-0.281-1.21-0.196 c-0.281,0.029-0.521-0.17-0.55-0.444c-0.029-0.275,0.17-0.521,0.444-0.55c1.215-0.129,1.86,0.347,1.93,0.401 c0.216,0.172,0.252,0.486,0.081,0.702C46.981,60.577,46.835,60.642,46.688,60.642z"/><path fill="#472b29" d="M53.249,60.641c-0.19,0-0.373-0.11-0.456-0.295c-0.113-0.251-0.002-0.547,0.249-0.66 c0.046-0.021,1.122-0.501,2.172-0.317c0.272,0.048,0.454,0.307,0.406,0.579c-0.047,0.273-0.322,0.453-0.578,0.406 c-0.749-0.131-1.581,0.24-1.589,0.243C53.387,60.627,53.317,60.641,53.249,60.641z"/><path fill="#836f61" d="M48.726,52.5c0,0.985-1.509,2.802-3.057,2.802s-2.292-1.274-2.292-2.802 c0-0.985,1.254-1.783,2.802-1.783S48.726,51.515,48.726,52.5z"/><path fill="#472b29" d="M45.67,55.552c-1.544,0-2.542-1.198-2.542-3.052c0-1.14,1.34-2.033,3.052-2.033 c1.621,0,2.797,0.855,2.797,2.033C48.977,53.621,47.343,55.552,45.67,55.552z M46.179,50.967c-1.383,0-2.552,0.702-2.552,1.533 c0,1.234,0.537,2.552,2.042,2.552c1.45,0,2.807-1.755,2.807-2.552C48.477,51.612,47.51,50.967,46.179,50.967z"/><g><path fill="#836f61" d="M51.274,52.5c0,0.985,1.509,2.802,3.057,2.802s2.292-1.274,2.292-2.802 c0-0.985-1.254-1.783-2.802-1.783S51.274,51.515,51.274,52.5z"/><path fill="#472b29" d="M54.33,55.552c-1.673,0-3.307-1.931-3.307-3.052c0-1.178,1.176-2.033,2.797-2.033 c1.712,0,3.053,0.893,3.053,2.033C56.873,54.354,55.875,55.552,54.33,55.552z M53.82,50.967c-1.331,0-2.297,0.645-2.297,1.533 c0,0.797,1.357,2.552,2.807,2.552c1.506,0,2.043-1.318,2.043-2.552C56.373,51.669,55.204,50.967,53.82,50.967z"/></g><g><path fill="#472b29" d="M46.837,58.672c-0.035,0-0.07-0.007-0.104-0.023c-1.041-0.476-2.396-0.449-3.238-0.282 c-0.138,0.027-0.267-0.061-0.294-0.197s0.061-0.267,0.196-0.294c0.917-0.182,2.394-0.207,3.543,0.318 c0.125,0.057,0.181,0.206,0.124,0.331C47.023,58.618,46.932,58.672,46.837,58.672z"/></g><g><path fill="#472b29" d="M53.283,58.672c-0.095,0-0.186-0.054-0.228-0.146c-0.058-0.126-0.002-0.274,0.124-0.331 c0.416-0.191,2.221-0.469,3.508-0.197c0.135,0.029,0.222,0.161,0.192,0.296c-0.027,0.134-0.153,0.222-0.296,0.193 c-1.179-0.249-2.874,0.015-3.197,0.163C53.354,58.665,53.318,58.672,53.283,58.672z"/></g></g><g><path fill="#472b29" d="M50.085,71.457c-0.077,0-0.153-0.018-0.224-0.053c-2.002-1.001-4.476-2.598-4.58-2.666 c-0.232-0.15-0.298-0.46-0.148-0.691c0.15-0.232,0.46-0.298,0.691-0.148c0.024,0.016,2.347,1.515,4.261,2.498 c1.833-0.932,7.044-3.766,10.944-7.666c0.195-0.195,0.512-0.195,0.707,0c0.195,0.195,0.195,0.512,0,0.707 c-4.065,4.065-9.346,6.925-11.428,7.966C50.238,71.44,50.162,71.457,50.085,71.457z"/></g></svg>