<svg xmlns="http://www.w3.org/2000/svg"  viewBox="0 0 128 128" width="64px" height="64px"><path fill="#fff" d="M64 14A50 50 0 1 0 64 114A50 50 0 1 0 64 14Z"/><path fill="#659ec9" d="M104,34c-7.2-9.6-17.8-16.5-30-19v64l15-10l15,10V34z"/><path fill="#fff" d="M94 4L94 64 79 54 64 64 64 -6"/><path fill="#444b54" d="M64,117c-29.2,0-53-23.8-53-53s23.8-53,53-53c1.7,0,3,1.3,3,3s-1.3,3-3,3c-25.9,0-47,21.1-47,47s21.1,47,47,47s47-21.1,47-47c0-14.9-6.9-28.6-18.8-37.6c-1.3-1-1.6-2.9-0.6-4.2c1-1.3,2.9-1.6,4.2-0.6C109.3,31.7,117,47.2,117,64C117,93.2,93.2,117,64,117z"/><path fill="#444b54" d="M64 67c-.5 0-1-.1-1.4-.4-1-.5-1.6-1.5-1.6-2.6V14c0-1.7 1.3-3 3-3s3 1.3 3 3v44.4l10.3-6.9c1-.7 2.3-.7 3.3 0l4.8 3.2c1.4.9 1.8 2.8.8 4.2-.9 1.4-2.8 1.8-4.2.8L79 57.6l-13.3 8.9C65.2 66.8 64.6 67 64 67zM94 67c-.2 0-.4 0-.6-.1-.2 0-.4-.1-.6-.2-.2-.1-.3-.2-.5-.3-.2-.1-.3-.2-.5-.4-.1-.1-.3-.3-.4-.5-.1-.2-.2-.3-.3-.5-.1-.2-.1-.4-.2-.6 0-.2-.1-.4-.1-.6 0-.2 0-.4.1-.6 0-.2.1-.4.2-.6.1-.2.2-.3.3-.5.1-.2.2-.3.4-.5.7-.7 1.7-1 2.7-.8.2 0 .4.1.6.2.2.1.4.2.5.3.2.1.3.2.5.4.1.1.3.3.4.5.1.2.2.3.3.5.1.2.1.4.2.6 0 .2.1.4.1.6 0 .2 0 .4-.1.6 0 .2-.1.4-.2.6-.1.2-.2.4-.3.5-.1.2-.2.3-.4.5C95.6 66.7 94.8 67 94 67zM94 56c-1.7 0-3-1.3-3-3V24c0-1.7 1.3-3 3-3s3 1.3 3 3v29C97 54.7 95.7 56 94 56z"/></svg>