<svg xmlns="http://www.w3.org/2000/svg"  viewBox="0 0 128 128" width="64px" height="64px"><path fill="#fff" d="M109,124H19c-5.5,0-10-4.5-10-10V36c0-5.5,4.5-10,10-10h90c5.5,0,10,4.5,10,10v78C119,119.5,114.5,124,109,124 z"/><path fill="#71c2ff" d="M65.2,87.3L65.2,87.3c-4.4,0-8-3.6-8-8v-8h16v8C73.2,83.8,69.6,87.3,65.2,87.3z"/><path fill="#444b54" d="M119,67.7c-1.7,0-3,1.3-3,3V114c0,3.9-3.1,7-7,7H19c-3.9,0-7-3.1-7-7V70.7c0-1.7-1.3-3-3-3s-3,1.3-3,3V114 c0,7.2,5.8,13,13,13h90c7.2,0,13-5.8,13-13V70.7C122,69,120.7,67.7,119,67.7z"/><path fill="#444b54" d="M109,23H86.8v-3c0-7.7-6.3-14-14-14H55.2c-4.9,0-9.3,2.5-11.9,6.6c-0.9,1.4-0.5,3.3,1,4.1 c1.4,0.9,3.3,0.5,4.1-1c1.5-2.4,4-3.8,6.8-3.8h17.6c4.4,0,8,3.6,8,8v3H19c-7.2,0-13,5.8-13,13v19.7c0,1.1,0.6,2,1.5,2.6 C24.9,68.7,44.4,74,64,74s39.1-5.2,56.5-15.7c0.9-0.5,1.5-1.5,1.5-2.6V36C122,28.8,116.2,23,109,23z M116,54 C83.8,72.6,44.2,72.6,12,54V36c0-3.9,3.1-7,7-7h90c3.9,0,7,3.1,7,7V54z"/></svg>