<svg xmlns="http://www.w3.org/2000/svg"  viewBox="0 0 128 128" width="64px" height="64px"><path fill="#fff" d="M19,114V24c0-5.5,4.5-10,10-10h70c11,0,20,9,20,20v80c0,2.8-2.2,5-5,5H24C21.2,119,19,116.8,19,114z"/><path fill="#fcca3d" d="M125.5,38.4L104.3,3.1c-0.9-1.5-2.5-2.4-4.3-2.4s-3.4,0.9-4.3,2.4L74.5,38.4c-0.9,1.6-1,3.4-0.1,5 c0.9,1.6,2.5,2.5,4.4,2.5h42.3c1.8,0,3.5-0.9,4.4-2.5C126.4,41.9,126.4,40,125.5,38.4z"/><path fill="#fff" d="M100,29c-1.7,0-3-1.3-3-3V16c0-1.7,1.3-3,3-3s3,1.3,3,3v10C103,27.7,101.7,29,100,29z"/><path fill="#fff" d="M100,39c-0.8,0-1.6-0.3-2.1-0.9c-0.1-0.1-0.3-0.3-0.4-0.5c-0.1-0.2-0.2-0.3-0.3-0.5 c-0.1-0.2-0.1-0.4-0.2-0.6c0-0.2-0.1-0.4-0.1-0.6c0-0.8,0.3-1.6,0.9-2.1c1.1-1.1,3.1-1.1,4.2,0c0.6,0.6,0.9,1.3,0.9,2.1 c0,0.2,0,0.4-0.1,0.6c0,0.2-0.1,0.4-0.2,0.6c-0.1,0.2-0.2,0.4-0.3,0.5c-0.1,0.2-0.2,0.3-0.4,0.5C101.6,38.7,100.8,39,100,39 z"/><g><path fill="#444b54" d="M19,34c-1.7,0-3-1.3-3-3v-7c0-7.2,5.8-13,13-13h39c1.7,0,3,1.3,3,3s-1.3,3-3,3H29c-3.9,0-7,3.1-7,7v7 C22,32.7,20.7,34,19,34z"/></g><g><path fill="#fff" d="M100.7,57H67.2c-5.2,0-10-2.4-13.2-6.5l0,0c-3.2-4.1-8-6.5-13.2-6.5H14c-2.8,0-5,2.2-5,5v65c0,2.8,2.2,5,5,5 h91.7V62C105.7,59.2,103.4,57,100.7,57z"/><path fill="#fcca3d" d="M39,114c0,2.8,2.2,5,5,5h61.7v-10H44C41.2,109,39,111.2,39,114L39,114z"/><path fill="#444b54" d="M112.3,122H14c-4.4,0-8-3.6-8-8V49c0-4.4,3.6-8,8-8h26.8c6.1,0,11.9,2.9,15.6,7.7C58.9,52,63,54,67.2,54 h33.5c4.4,0,8,3.6,8,8v50.3c0,2,1.6,3.7,3.7,3.7c2,0,3.7-1.6,3.7-3.7V57c0-1.7,1.3-3,3-3s3,1.3,3,3v55.3 C122,117.7,117.7,122,112.3,122z M14,47c-1.1,0-2,0.9-2,2v65c0,1.1,0.9,2,2,2h89.4c-0.5-1.1-0.7-2.4-0.7-3.7V62c0-1.1-0.9-2-2-2 H67.2c-6.1,0-11.9-2.9-15.6-7.7C49.1,49,45,47,40.8,47H14z"/></g></svg>