<svg xmlns="http://www.w3.org/2000/svg"  viewBox="0 0 128 128" width="64px" height="64px"><path fill="#fff" d="M13.5 102H58.5V114H13.5zM69.5 102H114.5V114H69.5z"/><path fill="#88e3ff" d="M109.5,102l-7-47h-5V40c0-2.8-2.2-5-5-5h-4V23c0-1.1-0.9-2-2-2h-14c-1.1,0-2,0.9-2,2v12h-13V23c0-1.1-0.9-2-2-2h-14c-1.1,0-2,0.9-2,2v12h-4c-2.8,0-5,2.2-5,5v15h-5l-7,47h5v12h35v-12h-5V55h21v47h5v12h35v-12H109.5z"/><path fill="#fff" d="M20,92c12.3-0.1,22.5-30.5,25-71h-3.5c-1.1,0-2,0.9-2,2v12h-4c-2.8,0-5,2.2-5,5v15h-5L20,92z"/><path fill="#146b8e" d="M53.5 55h-9v29c0 5.5-4.5 10-10 10h-3.4c-2 0-3.6 1.4-3.9 3.4l0 .1c-.4 2.4 1.5 4.5 3.9 4.5h17.4v12h10v-12h-5V55zM109.5 102l-7-47h-5V40c0-2.8-2.2-5-5-5h-6c2.8 0 5 2.2 5 5v15h-17v19.9c10.1-1 18-9.5 18-19.9h1.2l4.1 27.5c.9 6-3.8 11.5-9.9 11.5h-1.4c-2.2 0-4 1.8-4 4 0 2.2 1.8 4 4 4h18v12h10v-12H109.5z"/><path fill="none" stroke="#444b54" stroke-linecap="round" stroke-linejoin="round" stroke-miterlimit="10" stroke-width="6" d="M13.5 102H58.5V114H13.5zM53.5 55L53.5 102 18.5 102 25.5 55 37.5 55M39.5 23c0-1.1.9-2 2-2h14c1.1 0 2 .9 2 2v12M70.5 35V23c0-1.1.9-2 2-2h14c1.1 0 2 .9 2 2v12M30.5 47v-7c0-2.8 2.2-5 5-5h57c2.8 0 5 2.2 5 5v7M109.5 102L74.5 102 74.5 55 102.5 55zM69.5 102H114.5V114H69.5z"/><path fill="#88e3ff" d="M72.5,65h-17c-5.5,0-10-4.5-10-10v0c0-5.5,4.5-10,10-10h17c5.5,0,10,4.5,10,10v0C82.5,60.5,78,65,72.5,65z"/><path fill="none" stroke="#444b54" stroke-linecap="round" stroke-linejoin="round" stroke-miterlimit="10" stroke-width="6" d="M72.5,65h-17c-5.5,0-10-4.5-10-10v0c0-5.5,4.5-10,10-10h17c5.5,0,10,4.5,10,10v0C82.5,60.5,78,65,72.5,65z"/></svg>