<svg xmlns="http://www.w3.org/2000/svg"  viewBox="0 0 100 100" width="200px" height="200px"><circle cx="77" cy="14" r="1" fill="#f1bc19"/><circle cx="50" cy="51" r="37" fill="#e6edb7"/><circle cx="83" cy="16" r="4" fill="#f1bc19"/><circle cx="87" cy="25" r="2" fill="#88ae45"/><circle cx="81" cy="77" r="2" fill="#fbcd59"/><circle cx="15" cy="64" r="4" fill="#fbcd59"/><circle cx="25" cy="88" r="2" fill="#88ae45"/><circle cx="17.5" cy="46.5" r="2.5" fill="#fff"/><circle cx="81.5" cy="40.5" r="1.5" fill="#fff"/><path fill="#77cbd2" d="M50,26l-22,5v25c0,12,10.522,19,22,23c11.478-4,22-11,22-23V31L50,26z"/><path fill="#a8dbdb" d="M50,26l-22,5v25c0,12,10.522,19,22,23V26z"/><path fill="#ee3e54" d="M50,31.652l-17,4.13v19.783c0,9.391,8.13,14.652,17,17.783c8.87-3.13,17-8.391,17-17.783V35.783 L50,31.652z"/><path fill="#f4989e" d="M50,31.652l-17,4.13v19.783c0,9.391,8.13,14.652,17,17.782V31.652z"/><path fill="#c5def0" d="M67,36.021L33,54.65v0.916c0,2.277,0.493,4.363,1.346,6.272L67,43.905V36.021z"/><path fill="#fff" d="M50,45.313L33,54.65v0.916c0,2.277,0.493,4.363,1.346,6.272L50,53.313V45.313z"/><polygon fill="#c5def0" points="58.672,64 55.343,59.172 58.672,54.343 62,59.172"/><polygon fill="#fff" points="40.672,47 37.343,42.172 40.672,37.343 44,42.172"/><path fill="#472b29" d="M58.671,64.25c-0.082,0-0.159-0.04-0.206-0.108l-3.328-4.828c-0.059-0.085-0.059-0.198,0-0.284 l0.623-0.904c0.079-0.115,0.234-0.142,0.348-0.064c0.113,0.078,0.142,0.234,0.064,0.348l-0.525,0.762l3.024,4.388l1.713-2.485 c0.079-0.114,0.234-0.142,0.348-0.064c0.113,0.078,0.142,0.234,0.064,0.348l-1.919,2.784C58.831,64.21,58.753,64.25,58.671,64.25z"/><path fill="#472b29" d="M61.471,60.189c-0.049,0-0.099-0.014-0.142-0.044c-0.113-0.078-0.142-0.234-0.064-0.348l0.431-0.626 l-3.025-4.388l-1.732,2.513c-0.08,0.114-0.235,0.142-0.348,0.064c-0.113-0.078-0.142-0.234-0.064-0.348l1.938-2.812 c0.094-0.135,0.318-0.135,0.412,0l3.329,4.828c0.059,0.085,0.059,0.198,0,0.284l-0.529,0.767 C61.628,60.151,61.55,60.189,61.471,60.189z"/><path fill="#472b29" d="M40.671,47.25c-0.082,0-0.159-0.04-0.206-0.108l-3.328-4.828c-0.059-0.085-0.059-0.198,0-0.284 l1.586-2.302c0.079-0.115,0.234-0.142,0.348-0.064c0.113,0.078,0.142,0.234,0.064,0.348l-1.489,2.16l3.024,4.388l0.592-0.858 c0.078-0.114,0.234-0.142,0.348-0.064c0.113,0.078,0.142,0.234,0.063,0.348l-0.797,1.156C40.831,47.21,40.753,47.25,40.671,47.25z"/><path fill="#472b29" d="M42.443,44.68c-0.049,0-0.099-0.014-0.142-0.044c-0.113-0.078-0.142-0.234-0.064-0.348l1.459-2.116 l-3.025-4.388l-0.709,1.029c-0.08,0.114-0.235,0.142-0.348,0.064c-0.113-0.078-0.142-0.234-0.064-0.348l0.915-1.327 c0.094-0.135,0.318-0.135,0.412,0l3.329,4.828c0.059,0.085,0.059,0.198,0,0.284l-1.557,2.258 C42.601,44.642,42.522,44.68,42.443,44.68z"/><path fill="#472b29" d="M50,27.433l21.6,4.696V56c0,9.409-7.266,16.648-21.6,21.523C35.666,72.648,28.4,65.409,28.4,56 V32.128L50,27.433 M50,26l-23,5v25c0,12,11,19,23,23c12-4,23-11,23-23V31L50,26L50,26z"/><path fill="#472b29" d="M67,46.625c-0.276,0-0.5-0.224-0.5-0.5v-9.949L50,32.167l-16.5,4.009v4.762 c0,0.276-0.224,0.5-0.5,0.5s-0.5-0.224-0.5-0.5v-5.155c0-0.231,0.158-0.431,0.382-0.486l17-4.13c0.078-0.019,0.158-0.019,0.236,0 l17,4.13c0.224,0.054,0.382,0.255,0.382,0.486v10.342C67.5,46.401,67.276,46.625,67,46.625z"/><path fill="#472b29" d="M67,53.625c-0.276,0-0.5-0.224-0.5-0.5v-4.438c0-0.276,0.224-0.5,0.5-0.5s0.5,0.224,0.5,0.5v4.438 C67.5,53.401,67.276,53.625,67,53.625z"/><g><path fill="#472b29" d="M50,73.848c-0.056,0-0.113-0.01-0.167-0.028C38.332,69.76,32.5,63.618,32.5,55.565V53.5 c0-0.276,0.224-0.5,0.5-0.5s0.5,0.224,0.5,0.5v2.065c0,7.546,5.551,13.349,16.5,17.252c10.949-3.903,16.5-9.706,16.5-17.252 c0-0.276,0.224-0.5,0.5-0.5s0.5,0.224,0.5,0.5c0,8.053-5.832,14.195-17.333,18.254C50.113,73.838,50.056,73.848,50,73.848z"/></g><g><path fill="#472b29" d="M33,51.313c-0.276,0-0.5-0.224-0.5-0.5v-6.938c0-0.276,0.224-0.5,0.5-0.5s0.5,0.224,0.5,0.5v6.938 C33.5,51.089,33.276,51.313,33,51.313z"/></g><g><path fill="#472b29" d="M55.131,42.771c-0.088,0-0.174-0.047-0.22-0.13c-0.066-0.121-0.021-0.273,0.1-0.339l11.869-6.458 c0.121-0.066,0.273-0.021,0.339,0.1c0.066,0.121,0.021,0.273-0.1,0.339L55.25,42.74C55.212,42.761,55.171,42.771,55.131,42.771z"/></g><g><path fill="#472b29" d="M41.325,50.283c-0.088,0-0.174-0.047-0.22-0.13c-0.066-0.121-0.021-0.273,0.1-0.339l11.523-6.27 c0.121-0.066,0.273-0.021,0.339,0.1c0.066,0.121,0.021,0.273-0.1,0.339l-11.523,6.27C41.406,50.273,41.365,50.283,41.325,50.283z"/></g><g><path fill="#472b29" d="M33,54.813c-0.088,0-0.174-0.047-0.22-0.13c-0.066-0.121-0.021-0.273,0.1-0.339l6.042-3.288 c0.122-0.066,0.273-0.021,0.339,0.1c0.066,0.121,0.021,0.273-0.1,0.339l-6.042,3.288C33.082,54.803,33.041,54.813,33,54.813z"/></g><g><path fill="#472b29" d="M55.813,50.313c-0.088,0-0.173-0.047-0.219-0.129c-0.067-0.121-0.023-0.273,0.098-0.34l11.187-6.188 c0.122-0.067,0.273-0.023,0.34,0.098c0.067,0.121,0.023,0.273-0.098,0.34l-11.187,6.188C55.896,50.303,55.854,50.313,55.813,50.313 z"/></g><g><path fill="#472b29" d="M40.658,58.697c-0.088,0-0.173-0.047-0.219-0.129c-0.067-0.121-0.023-0.273,0.098-0.34l13.073-7.232 c0.121-0.067,0.273-0.023,0.34,0.098c0.067,0.121,0.023,0.273-0.098,0.34l-13.073,7.232C40.741,58.687,40.699,58.697,40.658,58.697 z"/></g><g><path fill="#472b29" d="M34.688,62c-0.088,0-0.173-0.047-0.219-0.129c-0.067-0.121-0.023-0.273,0.098-0.34l3.841-2.125 c0.121-0.067,0.273-0.023,0.34,0.098c0.067,0.121,0.023,0.273-0.098,0.34l-3.841,2.125C34.77,61.99,34.729,62,34.688,62z"/></g></svg>