<svg xmlns="http://www.w3.org/2000/svg"  viewBox="0 0 100 100" width="200px" height="200px"><circle cx="13" cy="29" r="2" fill="#ee3e54"/><circle cx="77" cy="13" r="1" fill="#f1bc19"/><circle cx="50.125" cy="49.688" r="37" fill="#fce0a2"/><circle cx="83" cy="15" r="4" fill="#f1bc19"/><circle cx="87" cy="24" r="2" fill="#ee3e54"/><circle cx="81" cy="76" r="2" fill="#fbcd59"/><circle cx="15" cy="63" r="4" fill="#fbcd59"/><circle cx="25" cy="87" r="2" fill="#ee3e54"/><circle cx="18.5" cy="53.5" r="2.5" fill="#fff"/><circle cx="21" cy="67" r="1" fill="#f1bc19"/><circle cx="80" cy="34" r="1" fill="#fff"/><path fill="#a1a1ca" d="M30.423,54.967c-0.035-2.586,0.309-11.5,6.248-17.91c4.409-4.758,10.948-7.17,19.436-7.17 c2.969,0,6.21,0.299,9.652,0.891l-7.038,7.758L36.491,54.263L30.423,54.967z"/><path fill="#472b29" d="M56.11,29.187v1.4c2.561,0,5.332,0.227,8.264,0.675l-6.12,6.747l-22.02,15.58l-5.108,0.593 c0.06-3.195,0.785-10.963,6.067-16.656c4.271-4.604,10.635-6.938,18.915-6.939L56.11,29.187 M56.106,29.187 C27.691,29.188,29.75,55.75,29.75,55.75l7-0.813l22.437-15.875l7.938-8.75C63.018,29.535,59.364,29.186,56.106,29.187 L56.106,29.187z"/><path fill="#472b29" d="M70,59c-0.397,0-0.773-0.238-0.929-0.63l-3.333-8.375c-0.205-0.514,0.046-1.095,0.559-1.299 c0.517-0.206,1.096,0.046,1.299,0.559l3.333,8.375c0.205,0.514-0.046,1.095-0.559,1.299C70.248,58.978,70.123,59,70,59z"/><g><path fill="#c5def0" d="M33.929,75.31c-0.046,0-0.08-0.022-0.101-0.068c-0.032-0.069,0.004-0.111,0.018-0.128 c2.592-3.064,3.926-6.803,2.013-15.084c-2.441-10.563,0.487-18.723,8.035-22.389c2.155-0.914,4.419-1.385,6.698-1.385 c7.805,0,14.179,5.385,16.448,13.799c-0.236-0.009-0.481-0.02-0.734-0.031c-0.712-0.031-1.479-0.065-2.247-0.065 c-1.735,0-6.347,0-6.347,3.993c0,3.607,4.349,5.753,8.608,6.03c1.077,2.913,4.272,9.489,5.537,12.061 c-6.451-0.372-13.93-3.786-17.126-7.93c-0.134-0.172-0.339-0.272-0.555-0.272c-0.014,0-0.027,0.001-0.041,0.001 c-0.23,0.014-0.44,0.141-0.56,0.339c-2.973,4.954-11.325,10.617-19.636,11.13H33.929z"/><path fill="#472b29" d="M50.591,36.956c7.187,0,13.114,4.791,15.503,12.358c-0.637-0.028-1.338-0.056-2.036-0.056 c-4.676,0-7.046,1.579-7.046,4.694c0,3.951,4.29,6.278,8.813,6.693c1.063,2.722,3.462,7.726,4.861,10.595 c-5.966-0.677-12.508-3.808-15.4-7.555c-0.266-0.345-0.676-0.544-1.108-0.544c-0.027,0-0.055,0-0.082,0.002 c-0.462,0.027-0.881,0.28-1.119,0.677c-2.734,4.556-10.348,9.707-17.757,10.666c2.156-3.048,3.086-6.979,1.321-14.614 c-2.392-10.352,0.316-18.017,7.627-21.586C46.258,37.403,48.418,36.956,50.591,36.956 M50.591,35.556 c-2.326,0-4.7,0.477-7.003,1.455C35.375,41,32.75,49.688,35.176,60.187c1.878,8.125,0.527,11.645-1.865,14.474 c-0.454,0.537-0.068,1.349,0.618,1.349c0.018,0,0.036,0,0.055-0.001c8.705-0.537,17.239-6.545,20.193-11.468 C57.676,69.075,66,72.775,73,72.775c0,0-5.118-10.294-6.176-13.471c-4.324-0.138-8.412-2.177-8.412-5.353 c0-2.823,2.823-3.294,5.646-3.294c1.412,0,2.824,0.118,3.883,0.118C65.675,40.931,58.402,35.556,50.591,35.556L50.591,35.556z"/></g><g><path fill="#ee3e54" d="M31.636,68.579c-0.265-3.009-1.329-6.53-3.01-9.893c-1.882-3.765-5.576-16.743,1.405-27.406 c2.236,1.229,3.109,1.932,3.445,2.31c0.136,0.153,0.328,0.235,0.523,0.235c0.106,0,0.213-0.024,0.312-0.073 c0.283-0.142,0.437-0.454,0.375-0.765c-0.269-1.34-0.916-3.076-1.925-5.165c1.104-1.173,2.333-2.269,3.658-3.262 c3.925-2.944,8.447-4.59,13.45-4.895c0.623,1.943,1.117,4.154,1.437,6.432c0.04,0.281,0.245,0.511,0.521,0.581 C51.885,26.693,51.942,26.7,52,26.7c0.218,0,0.428-0.103,0.562-0.283c1.621-2.184,2.52-4.271,3.177-5.794 c0.105-0.246,0.204-0.477,0.299-0.688c7.066,0.999,12.904,4.086,14.871,5.225l-9.049,9.954c-2.903-1.593-6.836-2.532-10.654-2.532 c-3.631,0-8.948,0.848-13.661,4.888c-6.818,5.844-6.473,14.222-5.235,21.646C32.77,61.196,33.377,66.331,31.636,68.579z"/><path fill="#472b29" d="M49.366,20.403c0.534,1.775,0.962,3.755,1.247,5.791c0.079,0.563,0.49,1.022,1.041,1.162 C51.769,27.386,51.885,27.4,52,27.4c0.436,0,0.856-0.205,1.124-0.565c1.669-2.248,2.587-4.377,3.257-5.933 c0.029-0.066,0.057-0.131,0.084-0.196c5.966,0.94,10.981,3.349,13.335,4.633l-8.093,8.902c-2.947-1.489-6.78-2.36-10.501-2.36 c-3.749,0-9.241,0.877-14.117,5.056c-7.082,6.071-6.739,14.676-5.47,22.293c0.004,0.024,0.009,0.049,0.014,0.073 c0.354,1.606,0.66,4.414,0.299,6.587c-0.512-2.421-1.429-5.015-2.68-7.516c-1.803-3.606-5.311-15.88,1.015-26.16 c1.896,1.081,2.504,1.635,2.687,1.841c0.273,0.307,0.656,0.47,1.047,0.47c0.211,0,0.425-0.048,0.624-0.146 c0.566-0.282,0.873-0.908,0.749-1.528c-0.26-1.301-0.855-2.944-1.771-4.893c0.987-1.012,2.073-1.964,3.239-2.837 C40.51,22.367,44.72,20.783,49.366,20.403 M50.367,18.939C45.633,19.138,40.648,20.514,36,24c-1.563,1.172-2.91,2.414-4.078,3.699 c0.85,1.715,1.749,3.783,2.078,5.426c-0.696-0.783-2.48-1.846-4.194-2.763C21.867,41.821,26.327,55.655,28,59c2,4,3,8,3,11 c4-2,2-11,2-11c-1-6-2-15,5-21c4.052-3.473,8.825-4.719,13.206-4.719c4.345,0,8.304,1.225,10.794,2.719l10-11 c0,0-7.182-4.668-16.381-5.828C54.917,20.625,54.042,23.25,52,26C51.667,23.625,51.125,21.167,50.367,18.939L50.367,18.939z"/></g><g><path fill="#472b29" d="M39.32,70.688c-0.04,0-0.081-0.005-0.122-0.015c-0.268-0.067-0.43-0.339-0.363-0.607 c0.99-3.947,0.333-7.5-0.303-10.937c-0.739-3.998-1.505-8.132,0.508-12.619c0.112-0.252,0.41-0.367,0.66-0.252 c0.252,0.112,0.365,0.408,0.252,0.66c-1.885,4.203-1.181,8.005-0.437,12.029c0.655,3.541,1.333,7.203,0.29,11.362 C39.748,70.536,39.545,70.688,39.32,70.688z"/></g><g><path fill="#472b29" d="M41,44.563c-0.112,0-0.225-0.037-0.318-0.114c-0.213-0.176-0.243-0.491-0.067-0.704 c3.522-4.269,7.544-5.022,10.311-4.921c0.275,0.012,0.49,0.244,0.479,0.521c-0.012,0.275-0.245,0.508-0.521,0.479 c-3.629-0.147-6.918,1.43-9.498,4.558C41.287,44.501,41.144,44.563,41,44.563z"/></g><g><path fill="#472b29" d="M58.905,43.101c-0.154,0-0.307-0.071-0.404-0.206c-0.488-0.673-2.282-1.927-4.739-2.612 c-0.267-0.074-0.422-0.35-0.348-0.615s0.347-0.42,0.615-0.348c2.561,0.713,4.594,2.043,5.28,2.987 c0.162,0.224,0.113,0.536-0.11,0.698C59.11,43.069,59.008,43.101,58.905,43.101z"/></g><g><path fill="#472b29" d="M28.833,51c-0.13,0-0.239-0.1-0.249-0.23c-0.15-1.914-0.175-3.775-0.073-5.533 c0.008-0.138,0.129-0.247,0.265-0.235c0.138,0.009,0.243,0.127,0.235,0.265C28.91,47,28.934,48.839,29.082,50.73 c0.011,0.138-0.092,0.258-0.229,0.269C28.846,51,28.839,51,28.833,51z"/></g><g><path fill="#472b29" d="M29.086,42.417c-0.013,0-0.025-0.001-0.038-0.003c-0.137-0.021-0.23-0.149-0.209-0.285 c0.414-2.672,1.168-5.14,2.24-7.336c0.06-0.125,0.21-0.179,0.334-0.115c0.124,0.061,0.176,0.21,0.115,0.334 c-1.05,2.151-1.789,4.571-2.195,7.193C29.313,42.329,29.207,42.417,29.086,42.417z"/></g><g><path fill="#472b29" d="M36.223,28.637c-0.068,0-0.138-0.028-0.187-0.084c-0.092-0.103-0.083-0.261,0.021-0.353 c5.354-4.773,11.686-5.524,11.749-5.531c0.133-0.021,0.261,0.084,0.275,0.221c0.016,0.137-0.083,0.261-0.221,0.275 c-0.062,0.008-6.24,0.745-11.472,5.408C36.342,28.616,36.282,28.637,36.223,28.637z"/></g><g><path fill="#472b29" d="M63.625,62.254c-0.021,0-0.041-0.003-0.062-0.008c-1.958-0.499-3.989-1.129-5.587-2.349 c-0.11-0.083-0.131-0.24-0.047-0.35c0.083-0.109,0.241-0.132,0.35-0.047c1.526,1.165,3.501,1.775,5.407,2.261 c0.134,0.034,0.215,0.17,0.181,0.304C63.839,62.179,63.736,62.254,63.625,62.254z"/></g><g><path fill="#472b29" d="M56.782,58.609c-0.075,0-0.15-0.034-0.199-0.1c-0.971-1.282-1.461-2.851-1.5-4.793 c-0.03-1.474,0.346-2.728,1.117-3.729c0.086-0.112,0.243-0.131,0.351-0.046c0.109,0.085,0.13,0.241,0.046,0.351 c-0.701,0.908-1.042,2.057-1.014,3.414c0.036,1.833,0.494,3.306,1.398,4.502c0.083,0.109,0.062,0.267-0.049,0.35 C56.888,58.593,56.835,58.609,56.782,58.609z"/></g><g><path fill="#472b29" d="M58.175,48.916c-0.089,0-0.175-0.048-0.22-0.131c-0.065-0.122-0.021-0.273,0.101-0.339 c1.861-1.006,3.894-1.028,3.979-1.029h0.001c0.138,0,0.249,0.111,0.25,0.248c0.001,0.139-0.11,0.251-0.248,0.252 c-0.021,0-1.997,0.024-3.744,0.969C58.256,48.906,58.215,48.916,58.175,48.916z"/></g></svg>