<svg xmlns="http://www.w3.org/2000/svg"  viewBox="0 0 100 100" width="200px" height="200px"><circle cx="78" cy="14" r="1" fill="#f1bc19"/><circle cx="50" cy="50" r="38" fill="#f9dbd2"/><circle cx="84" cy="16" r="4" fill="#f1bc19"/><circle cx="14" cy="26" r="2" fill="#ee3e54"/><circle cx="78" cy="77" r="2" fill="#fbcd59"/><circle cx="17" cy="78" r="4" fill="#fbcd59"/><circle cx="24" cy="83" r="2" fill="#ee3e54"/><circle cx="76.483" cy="69.517" r="2.483" fill="#fff"/><circle cx="15" cy="54" r="1" fill="#fff"/><circle cx="86" cy="31" r="1" fill="#f1bc19"/><circle cx="83" cy="58" r="2" fill="#fff"/><g><path fill="#edf7f5" d="M50.944,77.96c7.001-0.271,11.298-2.093,15.467-5.473c0.345-0.28,0.447-0.77,0.248-1.168L65,68 l-15,4.706L35,68l-1.66,3.32c-0.199,0.398-0.097,0.888,0.248,1.168c4.169,3.38,8.466,5.201,15.467,5.473V78 c0.324,0,0.632-0.008,0.944-0.014C50.313,77.992,50.621,78,50.944,78V77.96z"/><path fill="#edf7f5" d="M35,68c6,3,7,4,15,5V31c-9.273,0.006-16.129,1.771-22,6l3,13C31.441,57.316,33.212,63.051,35,68z"/><path fill="#c0e5e4" d="M65,68c-6,3-7,4-15,5V31c9.273,0.006,16.129,1.771,22,6l-3,13C68.559,57.316,66.788,63.051,65,68z"/><path fill="#77cbd2" d="M50,49.997V73c8-1,9-2,15-5c1.788-4.949,3.559-10.684,4-18l1.868-8.096L50,49.997z"/><path fill="#a8dbdb" d="M49.992,50l-20.859-8.09L31,50c0.441,7.316,2.212,13.051,4,18c6,3,7,4,15,5V49.997L49.992,50z"/><path fill="#472b29" d="M50,32.4c8.473,0.006,14.035,1.497,19.543,5.286l-0.941,12.23 c-0.344,5.705-2.285,11.157-3.845,15.538c-0.264,0.741-0.518,1.455-0.754,2.139l-0.172,0.498l0.199,0.487l1.236,3.034 c-4.189,3.319-8.253,4.713-14.377,4.95l-0.475,0.032c-0.058-0.001-0.115-0.002-0.173-0.003l-0.216-0.004l-0.026,0l-0.026,0 l-0.152,0.003l-0.712-0.028c-6.124-0.237-10.188-1.631-14.377-4.95l1.236-3.034l0.199-0.487l-0.172-0.498 c-0.236-0.684-0.49-1.398-0.754-2.139c-1.56-4.381-3.501-9.833-3.846-15.562l-0.939-12.207C35.965,33.897,41.527,32.406,50,32.4 M50,31c-9.273,0.006-15.129,1.771-21,6l1,13c0.414,6.867,3.001,13.202,4.673,18.049L33.34,71.32 c-0.199,0.398-0.097,0.888,0.248,1.168c4.169,3.379,8.466,5.201,15.467,5.473V78c0.324,0,0.632-0.008,0.944-0.014 C50.313,77.992,50.621,78,50.944,78v-0.04c7.001-0.271,11.298-2.093,15.467-5.473c0.345-0.28,0.447-0.77,0.248-1.168l-1.333-3.271 C66.999,63.202,69.586,56.867,70,50l1-13C65.129,32.771,59.273,31.006,50,31L50,31z"/><path fill="#77cbd2" d="M65,31c6,1,12,5,14,10c-2.146,1.61-4.869,3.508-6.931,4.921c-1.867,1.279-4.297,1.378-6.261,0.255 l0,0c-2.26-1.292-3.407-3.912-2.822-6.449L65,31z"/><path fill="#472b29" d="M68.731,47.447c-1.096,0-2.192-0.277-3.172-0.837c-2.47-1.412-3.7-4.223-3.061-6.995l2.014-8.727 c0.06-0.257,0.31-0.425,0.569-0.381c6.472,1.079,12.386,5.317,14.382,10.307c0.084,0.21,0.017,0.45-0.165,0.586 c-2.188,1.641-4.986,3.589-6.948,4.933C71.272,47.073,70.003,47.447,68.731,47.447z M65.38,31.576l-1.907,8.263 c-0.54,2.339,0.498,4.711,2.582,5.902c1.786,1.021,4.035,0.929,5.73-0.233c1.861-1.276,4.478-3.095,6.601-4.675 C76.452,36.488,71.102,32.68,65.38,31.576z"/><path fill="#77cbd2" d="M35,31c-6,1-12,5-14,10c2.146,1.61,4.869,3.508,6.931,4.921c1.867,1.279,4.297,1.378,6.261,0.255 l0,0c2.26-1.292,3.407-3.912,2.822-6.449L35,31z"/><path fill="#472b29" d="M31.269,47.447c-1.271,0-2.541-0.374-3.62-1.114c-1.962-1.345-4.76-3.292-6.948-4.933 c-0.181-0.136-0.249-0.376-0.165-0.586c1.996-4.99,7.91-9.229,14.382-10.307c0.26-0.044,0.51,0.123,0.569,0.381l2.014,8.727 c0.64,2.773-0.59,5.584-3.061,6.995C33.461,47.17,32.364,47.447,31.269,47.447z M21.613,40.834 c2.124,1.579,4.74,3.399,6.601,4.675c1.696,1.162,3.946,1.253,5.73,0.233c2.084-1.191,3.122-3.563,2.582-5.902l-1.907-8.263 C28.898,32.68,23.548,36.488,21.613,40.834z"/><path fill="#8889b9" d="M50,24c0,0-9,0-9,2.813c0,1.875,1.537,5.066,3.273,7.188C45.091,35,50,40,50,40s4.909-5,5.728-6 C57.463,31.879,59,28.688,59,26.813C59,24,50,24,50,24z"/><path fill="#472b29" d="M50,40.714l-0.357-0.363c-0.201-0.205-4.935-5.028-5.757-6.034 c-1.665-2.034-3.386-5.397-3.386-7.504c0-3.153,7.914-3.313,9.5-3.313s9.5,0.16,9.5,3.313c0,2.107-1.722,5.47-3.386,7.504 c-0.823,1.006-5.556,5.829-5.757,6.034L50,40.714z M50,24.5c-3.529,0.001-8.5,0.719-8.5,2.313c0,1.659,1.417,4.742,3.16,6.871 c0.667,0.816,4.198,4.434,5.34,5.602c1.143-1.168,4.673-4.786,5.341-5.602c1.742-2.129,3.16-5.211,3.16-6.871 C58.5,25.219,53.53,24.501,50,24.5L50,24.5z"/><path fill="#c0e5e4" d="M41,27v5c0,3,4.39,5.985,9,8v-0.068c0-3.184-1.637-6.188-4.396-7.778 C43.186,30.762,41,28.833,41,27z"/><path fill="#77cbd2" d="M59,27v5c0,3-4.39,5.985-9,8v-0.068c0-3.184,1.637-6.188,4.396-7.778 C56.815,30.762,59,28.833,59,27z"/><path fill="#472b29" d="M49.955,40.49c-0.053,0-0.105-0.01-0.155-0.031c-2.796-1.222-9.3-4.493-9.3-8.458v-5 c0-0.276,0.224-0.5,0.5-0.5s0.5,0.224,0.5,0.5c0,1.386,1.627,3.151,4.354,4.721c2.866,1.651,4.646,4.797,4.646,8.211 c0,0.169-0.085,0.36-0.226,0.453C50.178,40.447,50.065,40.49,49.955,40.49z M41.5,29.467V32c0,2.234,2.961,4.903,7.966,7.212 c-0.243-2.805-1.772-5.276-4.112-6.625C44.4,32.038,42.619,30.896,41.5,29.467z"/><path fill="#472b29" d="M50,40.5c-0.096,0-0.191-0.028-0.274-0.082C49.585,40.326,49.5,40.169,49.5,40 c0-3.482,1.78-6.628,4.646-8.279C56.873,30.151,58.5,28.386,58.5,27c0-0.276,0.224-0.5,0.5-0.5s0.5,0.224,0.5,0.5v5 c0,3.964-6.503,7.236-9.3,8.458C50.137,40.486,50.068,40.5,50,40.5z M58.5,29.467c-1.119,1.429-2.9,2.571-3.854,3.12 c-2.355,1.356-3.889,3.852-4.116,6.626c5.007-2.31,7.971-4.98,7.971-7.214V29.467z"/><path fill="#472b29" d="M54.624,73.057c-0.238,0-0.448-0.17-0.492-0.412c-0.049-0.272,0.132-0.532,0.404-0.58 c3.493-0.626,6.806-2.127,9.848-4.461c0.22-0.168,0.534-0.126,0.701,0.092c0.168,0.219,0.127,0.533-0.092,0.701 c-3.169,2.432-6.628,3.998-10.279,4.652C54.683,73.054,54.653,73.057,54.624,73.057z"/><path fill="#472b29" d="M50.666,73.405c-2.628,0-5.324-0.436-8.029-1.3c-0.263-0.084-0.408-0.365-0.324-0.628 c0.083-0.263,0.366-0.408,0.628-0.324c2.954,0.943,5.895,1.357,8.728,1.23c0.267-0.011,0.509,0.201,0.522,0.477 c0.012,0.276-0.201,0.509-0.477,0.522C51.365,73.397,51.016,73.405,50.666,73.405z"/><path fill="#472b29" d="M40.614,71.34c-0.063,0-0.126-0.012-0.188-0.037c-3.258-1.325-5.261-2.776-5.345-2.837 c-0.223-0.163-0.271-0.475-0.109-0.698c0.162-0.223,0.475-0.272,0.698-0.109c0.02,0.014,1.997,1.443,5.133,2.719 c0.256,0.104,0.379,0.396,0.275,0.651C40.998,71.223,40.811,71.34,40.614,71.34z"/><path fill="#472b29" d="M50,72.956L50,72.956c-0.139,0-0.25-0.113-0.25-0.251l0.045-19.789c0-0.138,0.112-0.249,0.25-0.249 h0c0.138,0,0.25,0.113,0.25,0.251L50.25,72.707C50.25,72.844,50.138,72.956,50,72.956z"/><path fill="#472b29" d="M50.048,51.292L50.048,51.292c-0.138,0-0.25-0.112-0.25-0.25l0.005-6.542 c0-0.138,0.112-0.25,0.25-0.25l0,0c0.138,0,0.25,0.112,0.25,0.25l-0.005,6.542C50.298,51.18,50.187,51.292,50.048,51.292z"/><path fill="#472b29" d="M50.057,43.083L50.057,43.083c-0.139,0-0.25-0.112-0.25-0.25l0.006-3.146 c0-0.138,0.112-0.25,0.25-0.25h0c0.138,0,0.25,0.112,0.25,0.25l-0.006,3.146C50.306,42.972,50.194,43.083,50.057,43.083z"/><path fill="#472b29" d="M76.25,40.705c-0.081,0-0.16-0.039-0.208-0.111c-1.314-1.972-3.156-3.666-5.474-5.035 c-0.119-0.07-0.159-0.224-0.088-0.342c0.071-0.119,0.225-0.158,0.342-0.088c2.383,1.408,4.279,3.154,5.636,5.188 c0.077,0.115,0.045,0.27-0.069,0.347C76.346,40.691,76.298,40.705,76.25,40.705z"/><path fill="#472b29" d="M68.815,34.608c-0.035,0-0.071-0.007-0.104-0.023c-1.181-0.544-1.998-0.78-2.006-0.782 c-0.133-0.038-0.209-0.176-0.171-0.309c0.038-0.132,0.172-0.21,0.309-0.172c0.034,0.01,0.858,0.248,2.078,0.809 c0.125,0.058,0.18,0.206,0.123,0.332C69,34.554,68.91,34.608,68.815,34.608z"/><path fill="#472b29" d="M23.523,40.705c-0.048,0-0.096-0.014-0.139-0.042c-0.115-0.077-0.146-0.232-0.069-0.347 c1.356-2.035,3.252-3.78,5.636-5.188c0.117-0.07,0.271-0.031,0.342,0.088c0.07,0.119,0.031,0.272-0.088,0.342 c-2.317,1.37-4.159,3.064-5.474,5.035C23.683,40.666,23.604,40.705,23.523,40.705z"/><path fill="#472b29" d="M30.958,34.608c-0.094,0-0.185-0.054-0.227-0.146c-0.058-0.125-0.003-0.274,0.123-0.332 c1.219-0.561,2.043-0.799,2.078-0.809c0.133-0.038,0.271,0.039,0.309,0.172c0.038,0.133-0.039,0.271-0.171,0.309 c-0.008,0.002-0.825,0.239-2.006,0.782C31.029,34.601,30.993,34.608,30.958,34.608z"/><g><path fill="#472b29" d="M62.458,66.484c-0.029,0-0.059-0.005-0.087-0.016c-0.129-0.048-0.195-0.192-0.147-0.322 c0.617-1.656,1.097-3.024,1.512-4.306c0.042-0.131,0.182-0.203,0.315-0.161c0.131,0.043,0.203,0.183,0.161,0.315 c-0.417,1.289-0.899,2.664-1.519,4.327C62.655,66.422,62.56,66.484,62.458,66.484z"/></g><g><path fill="#472b29" d="M64.493,60.494c-0.023,0-0.047-0.003-0.071-0.01c-0.132-0.039-0.208-0.178-0.168-0.311 c0.541-1.824,0.966-3.554,1.3-5.289c0.026-0.136,0.157-0.224,0.293-0.198c0.136,0.026,0.224,0.157,0.198,0.293 c-0.338,1.752-0.767,3.497-1.312,5.337C64.701,60.423,64.601,60.494,64.493,60.494z"/></g><g><path fill="#472b29" d="M66.184,52.917c-0.012,0-0.024-0.001-0.037-0.003c-0.137-0.02-0.231-0.147-0.211-0.284 c0.186-1.263,0.326-2.561,0.418-3.857c0.01-0.138,0.137-0.24,0.267-0.232c0.138,0.01,0.242,0.13,0.232,0.267 c-0.093,1.308-0.236,2.618-0.422,3.894C66.412,52.828,66.306,52.917,66.184,52.917z"/></g></g></svg>