<svg xmlns="http://www.w3.org/2000/svg"  viewBox="0 0 100 100" width="200px" height="200px"><path fill="#ee3e54" d="M12.875,27.958c-1.105,0-2,0.895-2,2s0.895,2,2,2s2-0.895,2-2S13.98,27.958,12.875,27.958z"/><path fill="#f1bc19" d="M76.875,12.958c-0.551,0-1,0.449-1,1s0.449,1,1,1s1-0.449,1-1S77.426,12.958,76.875,12.958z"/><path fill="#fce0a2" d="M49.875,13.958c-20.434,0-37,16.566-37,37s16.566,37,37,37s37-16.566,37-37 S70.309,13.958,49.875,13.958z"/><path fill="#f1bc19" d="M82.875,11.958c-2.211,0-4,1.789-4,4s1.789,4,4,4s4-1.789,4-4S85.086,11.958,82.875,11.958z"/><path fill="#ee3e54" d="M86.875,22.958c-1.105,0-2,0.895-2,2s0.895,2,2,2s2-0.895,2-2S87.98,22.958,86.875,22.958z"/><path fill="#fbcd59" d="M80.875,74.958c-1.105,0-2,0.895-2,2s0.895,2,2,2s2-0.895,2-2S81.98,74.958,80.875,74.958z M14.875,59.958c-2.211,0-4,1.789-4,4c0,2.211,1.789,4,4,4s4-1.789,4-4C18.875,61.747,17.086,59.958,14.875,59.958z"/><path fill="#ee3e54" d="M24.875,85.958c-1.105,0-2,0.895-2,2s0.895,2,2,2s2-0.895,2-2S25.98,85.958,24.875,85.958z"/><path fill="#fff" d="M17.375,42.958c-1.379,0-2.5,1.121-2.5,2.5s1.121,2.5,2.5,2.5s2.5-1.121,2.5-2.5 S18.754,42.958,17.375,42.958z"/><path fill="#f1bc19" d="M20.875,65.958c-0.551,0-1,0.449-1,1s0.449,1,1,1s1-0.449,1-1S21.426,65.958,20.875,65.958z"/><path fill="#fff" d="M81.875,37.958c-0.551,0-1,0.449-1,1s0.449,1,1,1s1-0.449,1-1S82.426,37.958,81.875,37.958z"/><g><path fill="#8889b9" d="M36.2,42.2h27.6v25.485c-4.532-0.671-9.143-1.011-13.717-1.011c-4.581,0-9.247,0.341-13.883,1.013 V42.2z"/><path fill="#472b29" d="M63.1,42.9v23.978c-4.307-0.6-8.678-0.903-13.017-0.903c-4.35,0-8.777,0.305-13.183,0.908V42.9 H63.1 M64.5,41.5h-29v27c4.875-0.748,9.735-1.125,14.583-1.125c4.819,0,9.626,0.373,14.417,1.125V41.5L64.5,41.5z"/><path fill="#77cbd2" d="M53.7,59.396l6.065-3.639c2.306-1.384,3.097-4.409,1.763-6.744 c-0.886-1.549-2.544-2.511-4.328-2.511c-0.699,0-1.379,0.145-2.021,0.43L50,49.234l-5.179-2.302 c-0.642-0.285-1.322-0.43-2.021-0.43c-1.784,0-3.442,0.962-4.328,2.511c-1.334,2.335-0.543,5.36,1.763,6.744l6.065,3.639v15.891 c-6.107-0.213-12.776-3.168-16.352-7.246l4.933-4.933L34.6,62.64c-3.251-5.419-4.9-11.354-4.9-17.64 c0-10.063,10.486-17.54,20.3-20.274C59.813,27.46,70.3,34.937,70.3,45c0,6.286-1.648,12.221-4.9,17.64l-0.281,0.469l4.933,4.933 c-3.575,4.078-10.244,7.033-16.352,7.246V59.396z"/><path fill="#472b29" d="M50,25.453C59.511,28.159,69.6,35.366,69.6,45c0,6.157-1.615,11.971-4.8,17.28l-0.562,0.937 l0.773,0.773l4.073,4.073C65.689,71.6,59.879,74.167,54.4,74.55V59.792l5.726-3.436c2.63-1.578,3.531-5.028,2.01-7.691 c-1.009-1.766-2.901-2.863-4.936-2.863c-0.798,0-1.573,0.165-2.305,0.49L50,48.468l-4.895-2.175 c-0.732-0.325-1.508-0.49-2.305-0.49c-2.035,0-3.926,1.097-4.936,2.863c-1.522,2.663-0.62,6.113,2.01,7.692l5.726,3.435V74.55 c-5.479-0.383-11.289-2.951-14.683-6.487l4.073-4.073l0.773-0.773L35.2,62.28c-3.185-5.309-4.8-11.123-4.8-17.28 C30.4,35.366,40.489,28.159,50,25.453 M50,24c-11,3-21,11-21,21c0,7,2,13,5,18l-5,5c4,5,11.711,8,18,8V59l-6.405-3.843 c-1.997-1.199-2.671-3.774-1.515-5.796c0.785-1.373,2.226-2.158,3.72-2.158c0.583,0,1.173,0.119,1.737,0.37L50,50l5.463-2.428 c0.563-0.25,1.154-0.37,1.737-0.37c1.495,0,2.936,0.785,3.72,2.158h0c1.156,2.022,0.483,4.598-1.515,5.796L53,59v17 c6.289,0,14-3,18-8l-5-5c3-5,5-11,5-18C71,35,61,27,50,24L50,24z"/><path fill="#472b29" d="M31.5,43h-1c-0.276,0-0.5-0.224-0.5-0.5s0.224-0.5,0.5-0.5h1c0.276,0,0.5,0.224,0.5,0.5 S31.776,43,31.5,43z"/><path fill="#472b29" d="M65.579,43h-1.947c-0.276,0-0.5-0.224-0.5-0.5s0.224-0.5,0.5-0.5h1.947c0.276,0,0.5,0.224,0.5,0.5 S65.855,43,65.579,43z M60.71,43h-1.947c-0.276,0-0.5-0.224-0.5-0.5s0.224-0.5,0.5-0.5h1.947c0.276,0,0.5,0.224,0.5,0.5 S60.987,43,60.71,43z M55.842,43h-1.947c-0.276,0-0.5-0.224-0.5-0.5s0.224-0.5,0.5-0.5h1.947c0.276,0,0.5,0.224,0.5,0.5 S56.118,43,55.842,43z M50.974,43h-1.947c-0.276,0-0.5-0.224-0.5-0.5s0.224-0.5,0.5-0.5h1.947c0.276,0,0.5,0.224,0.5,0.5 S51.25,43,50.974,43z M46.105,43h-1.947c-0.276,0-0.5-0.224-0.5-0.5s0.224-0.5,0.5-0.5h1.947c0.276,0,0.5,0.224,0.5,0.5 S46.381,43,46.105,43z M41.237,43H39.29c-0.276,0-0.5-0.224-0.5-0.5s0.224-0.5,0.5-0.5h1.947c0.276,0,0.5,0.224,0.5,0.5 S41.513,43,41.237,43z M36.368,43h-1.947c-0.276,0-0.5-0.224-0.5-0.5s0.224-0.5,0.5-0.5h1.947c0.276,0,0.5,0.224,0.5,0.5 S36.645,43,36.368,43z"/><path fill="#472b29" d="M69.5,43h-1c-0.276,0-0.5-0.224-0.5-0.5s0.224-0.5,0.5-0.5h1c0.276,0,0.5,0.224,0.5,0.5 S69.776,43,69.5,43z"/><polygon fill="#fbcd59" points="50,26.5 50,50 44.5,44.405"/><polygon fill="#e0a825" points="50,26.5 50,50 55.5,44.405"/><path fill="#472b29" d="M50,50.25c-0.067,0-0.131-0.027-0.178-0.075l-5.5-5.595c-0.064-0.066-0.088-0.161-0.061-0.249 l5.5-17.905c0.064-0.21,0.413-0.21,0.478,0l5.5,17.905c0.027,0.088,0.004,0.183-0.061,0.249l-5.5,5.595 C50.131,50.223,50.067,50.25,50,50.25z M44.783,44.336L50,49.643l5.217-5.308L50,27.351L44.783,44.336z"/><g><path fill="#472b29" d="M43.5,66.5c-0.002,0-0.005,0-0.008,0c-1.861-0.06-3.675-0.514-5.392-1.352 c-0.124-0.061-0.175-0.21-0.115-0.334c0.062-0.125,0.21-0.175,0.334-0.115c1.652,0.806,3.397,1.244,5.188,1.301 c0.138,0.004,0.247,0.12,0.242,0.258C43.746,66.393,43.634,66.5,43.5,66.5z"/></g><g><path fill="#472b29" d="M36.807,64.383c-0.046,0-0.093-0.013-0.135-0.04c-1.127-0.725-1.742-1.351-1.768-1.377 c-0.096-0.099-0.094-0.257,0.005-0.353c0.099-0.096,0.257-0.094,0.354,0.004c0.006,0.006,0.604,0.614,1.68,1.306 c0.116,0.075,0.15,0.229,0.075,0.345C36.97,64.343,36.889,64.383,36.807,64.383z"/></g><g><path fill="#472b29" d="M56.646,66.5c-0.135,0-0.246-0.107-0.25-0.242C56.392,66.12,56.5,66.005,56.638,66 c0.925-0.03,1.851-0.163,2.751-0.398c0.136-0.036,0.271,0.046,0.305,0.179c0.035,0.134-0.045,0.27-0.179,0.305 c-0.937,0.244-1.899,0.383-2.862,0.414C56.651,66.5,56.648,66.5,56.646,66.5z"/></g><g><path fill="#472b29" d="M61.105,65.545c-0.099,0-0.192-0.059-0.231-0.156c-0.052-0.128,0.009-0.274,0.137-0.326 c2.44-0.994,3.859-2.432,3.873-2.446c0.098-0.099,0.256-0.101,0.354-0.005c0.099,0.096,0.101,0.255,0.005,0.354 c-0.061,0.062-1.506,1.527-4.042,2.56C61.168,65.539,61.136,65.545,61.105,65.545z"/></g></g></svg>